<?xml version="1.0" standalone="no"?>
<svg width="567.429" height="674.153" viewBox="0 0 567.429 674.153" xmlns="http://www.w3.org/2000/svg">
<title>
/exper-sw/cmst3/cmssw/users/olek/CMSSW_8_0_26_patch1/src/UserCode/NtuplerAnalyzer/frag_weights_sel1mu3j1b1t_fragUp_fragDown.svg
</title>
<desc>
Creator: ROOT Version 6.06/01
CreationDate: Fri Apr  6 16:37:00 2018</desc>
<defs>
</defs>
<rect x="0.5" y="0" width="566.929" height="673.653" fill="white"/>
<rect x="57.1929" y="67.3653" width="453.543" height="538.923" fill="white"/>
<rect x="57.1929" y="67.3653" width="453.543" height="538.923" fill="none" stroke="black"/>
<rect x="57.1929" y="67.3653" width="453.543" height="538.923" fill="white"/>
<rect x="57.1929" y="67.3653" width="453.543" height="538.923" fill="none" stroke="black"/>
<path d="M57.1929,606.288h 40.8189v -36.7443h 4.53543v 36.7443h 9.07087v -36.7443h 9.07087v -58.2383h 4.53543v -27.0793h 4.53543v -24.9153h 4.53543v -140.837h 4.53543v -48.387h 4.53543v -22.8455h 4.53543v -18.3712h 4.53543v -10.0496h 4.53543v
 -7.22035h 4.53543v -12.2239h 4.53543v -25.5325h 4.53543v -24.0539h 4.53543v -0.211851h 4.53543v -11.6519h 4.53543v -9.85496h 4.53543v -2.34306h 4.53543v 2.78042h 4.53543v -2.69455h 4.53543v -1.30957h 4.53543v 1.64209h 4.53543v -9.89922h 4.53543v
 -7.40177h 4.53543v -0.927791h 4.53543v -0.531638h 4.53543v -0.843098h 4.53543v 0.0768706h 4.53543v -5.37628h 4.53543v 3.09274h 4.53543v 8.73821h 4.53543v 16.8477h 4.53543v 7.28368h 4.53543v 2.63666h 4.53543v 6.61901h 4.53543v 3.96897h 4.53543v
 9.51678h 4.53543v 10.7417h 4.53543v -18.0652h 4.53543v 32.1827h 4.53543v -11.1144h 4.53543v -11.1829h 4.53543v 23.0119h 4.53543v -4.84553h 4.53543v -0.686678h 4.53543v -9.35711h 4.53543v -1.38285h 4.53543v 34.6952h 4.53543v 7.10159h 4.53543v
 -6.12789h 4.53543v 3.84879h 4.53543v 17.5089h 4.53543v 5.32271h 4.53543v 2.49618h 4.53543v 6.97053h 9.07087v 11.9371h 4.53543v 33.8497h 4.53543v 11.7011h 4.53543v 13.368h 4.53543v 11.9319h 4.53543v 18.9812h 4.53543v 2.25612h 4.53543v 5.67068h
 4.53543v 15.8234h 4.53543v 10.128h 4.53543v 20.1171h 4.53543v 16.6272h 4.53543v 5.89616h 4.53543v 76.7024h 4.53543v 110.233h 4.53543v -73.4886h 4.53543v 36.7443h 4.53543v -36.7443h 4.53543v 36.7443h 4.53543v 36.7443h 9.07087v -94.9827h 4.53543v
 94.9827h 4.53543v -73.4886h 4.53543v 36.7443h 4.53543v 36.7443h 31.748" fill="none" stroke="#660000"/>
<rect x="442.351" y="91.0893" width="113.522" height="59.8199" fill="white"/>
<path d="M442.351,150.909h 113.522" fill="none" stroke="black"/>
<path d="M555.873,150.909v -59.8199" fill="none" stroke="black"/>
<path d="M555.873,91.0893h -113.522" fill="none" stroke="black"/>
<path d="M442.351,91.0893v 59.8199" fill="none" stroke="black"/>
<text x="449.149" y="101.286" fill="black" font-size="8.7512" font-family="Helvetica">
frag_up_weight_1mu3j1b1t
</text>
<path d="M442.351,106.044h 113.522" fill="none" stroke="black"/>
<text x="447.789" y="117.6" fill="black" font-size="11.1228" font-family="Helvetica">
Entries 
</text>
<text x="510.328" y="117.6" fill="black" font-size="11.1228" font-family="Helvetica">
 139567
</text>
<text x="447.789" y="132.555" fill="black" font-size="11.1228" font-family="Helvetica">
Mean  
</text>
<text x="513.727" y="132.555" fill="black" font-size="11.1228" font-family="Helvetica">
 0.8024
</text>
<text x="447.789" y="148.19" fill="black" font-size="11.1228" font-family="Helvetica">
Std Dev   
</text>
<text x="513.727" y="147.51" fill="black" font-size="11.1228" font-family="Helvetica">
 0.2082
</text>
<path d="M57.1929,606.288h 453.543" fill="none" stroke="black"/>
<path d="M57.1929,590.12v 16.1677" fill="none" stroke="black"/>
<path d="M68.5315,598.204v 8.08384" fill="none" stroke="black"/>
<path d="M79.8701,598.204v 8.08384" fill="none" stroke="black"/>
<path d="M91.2087,598.204v 8.08384" fill="none" stroke="black"/>
<path d="M102.547,590.12v 16.1677" fill="none" stroke="black"/>
<path d="M113.886,598.204v 8.08384" fill="none" stroke="black"/>
<path d="M125.224,598.204v 8.08384" fill="none" stroke="black"/>
<path d="M136.563,598.204v 8.08384" fill="none" stroke="black"/>
<path d="M147.902,590.12v 16.1677" fill="none" stroke="black"/>
<path d="M159.24,598.204v 8.08384" fill="none" stroke="black"/>
<path d="M170.579,598.204v 8.08384" fill="none" stroke="black"/>
<path d="M181.917,598.204v 8.08384" fill="none" stroke="black"/>
<path d="M193.256,590.12v 16.1677" fill="none" stroke="black"/>
<path d="M204.594,598.204v 8.08384" fill="none" stroke="black"/>
<path d="M215.933,598.204v 8.08384" fill="none" stroke="black"/>
<path d="M227.272,598.204v 8.08384" fill="none" stroke="black"/>
<path d="M238.61,590.12v 16.1677" fill="none" stroke="black"/>
<path d="M249.949,598.204v 8.08384" fill="none" stroke="black"/>
<path d="M261.287,598.204v 8.08384" fill="none" stroke="black"/>
<path d="M272.626,598.204v 8.08384" fill="none" stroke="black"/>
<path d="M283.965,590.12v 16.1677" fill="none" stroke="black"/>
<path d="M295.303,598.204v 8.08384" fill="none" stroke="black"/>
<path d="M306.642,598.204v 8.08384" fill="none" stroke="black"/>
<path d="M317.98,598.204v 8.08384" fill="none" stroke="black"/>
<path d="M329.319,590.12v 16.1677" fill="none" stroke="black"/>
<path d="M340.657,598.204v 8.08384" fill="none" stroke="black"/>
<path d="M351.996,598.204v 8.08384" fill="none" stroke="black"/>
<path d="M363.335,598.204v 8.08384" fill="none" stroke="black"/>
<path d="M374.673,590.12v 16.1677" fill="none" stroke="black"/>
<path d="M386.012,598.204v 8.08384" fill="none" stroke="black"/>
<path d="M397.35,598.204v 8.08384" fill="none" stroke="black"/>
<path d="M408.689,598.204v 8.08384" fill="none" stroke="black"/>
<path d="M420.028,590.12v 16.1677" fill="none" stroke="black"/>
<path d="M431.366,598.204v 8.08384" fill="none" stroke="black"/>
<path d="M442.705,598.204v 8.08384" fill="none" stroke="black"/>
<path d="M454.043,598.204v 8.08384" fill="none" stroke="black"/>
<path d="M465.382,590.12v 16.1677" fill="none" stroke="black"/>
<path d="M476.72,598.204v 8.08384" fill="none" stroke="black"/>
<path d="M488.059,598.204v 8.08384" fill="none" stroke="black"/>
<path d="M499.398,598.204v 8.08384" fill="none" stroke="black"/>
<path d="M510.736,590.12v 16.1677" fill="none" stroke="black"/>
<text x="52.1626" y="628.109" fill="black" font-size="18.7041" font-family="Helvetica">
0
</text>
<text x="89.55" y="628.109" fill="black" font-size="18.7041" font-family="Helvetica">
0.2
</text>
<text x="134.415" y="628.109" fill="black" font-size="18.7041" font-family="Helvetica">
0.4
</text>
<text x="179.96" y="628.109" fill="black" font-size="18.7041" font-family="Helvetica">
0.6
</text>
<text x="225.504" y="628.109" fill="black" font-size="18.7041" font-family="Helvetica">
0.8
</text>
<text x="280.566" y="628.109" fill="black" font-size="18.7041" font-family="Helvetica">
1
</text>
<text x="315.914" y="628.109" fill="black" font-size="18.7041" font-family="Helvetica">
1.2
</text>
<text x="361.458" y="628.109" fill="black" font-size="18.7041" font-family="Helvetica">
1.4
</text>
<text x="407.003" y="628.109" fill="black" font-size="18.7041" font-family="Helvetica">
1.6
</text>
<text x="451.868" y="628.109" fill="black" font-size="18.7041" font-family="Helvetica">
1.8
</text>
<text x="505.57" y="628.109" fill="black" font-size="18.7041" font-family="Helvetica">
2
</text>
<path d="M57.1929,606.288v -538.923" fill="none" stroke="black"/>
<path d="M63.9961,606.288h -6.80315" fill="none" stroke="black"/>
<path d="M63.9961,596.623h -6.80315" fill="none" stroke="black"/>
<path d="M63.9961,588.451h -6.80315" fill="none" stroke="black"/>
<path d="M63.9961,581.372h -6.80315" fill="none" stroke="black"/>
<path d="M63.9961,575.129h -6.80315" fill="none" stroke="black"/>
<path d="M70.7992,569.543h -13.6063" fill="none" stroke="black"/>
<text x="52.7709" y="578.896" text-anchor="end" fill="black" font-size="18.7041" font-family="Helvetica">
1
</text>
<path d="M63.9961,532.799h -6.80315" fill="none" stroke="black"/>
<path d="M63.9961,511.305h -6.80315" fill="none" stroke="black"/>
<path d="M63.9961,496.055h -6.80315" fill="none" stroke="black"/>
<path d="M63.9961,484.226h -6.80315" fill="none" stroke="black"/>
<path d="M63.9961,474.561h -6.80315" fill="none" stroke="black"/>
<path d="M63.9961,466.389h -6.80315" fill="none" stroke="black"/>
<path d="M63.9961,459.311h -6.80315" fill="none" stroke="black"/>
<path d="M63.9961,453.067h -6.80315" fill="none" stroke="black"/>
<path d="M70.7992,447.482h -13.6063" fill="none" stroke="black"/>
<text x="52.7709" y="456.834" text-anchor="end" fill="black" font-size="18.7041" font-family="Helvetica">
10
</text>
<path d="M63.9961,410.737h -6.80315" fill="none" stroke="black"/>
<path d="M63.9961,389.243h -6.80315" fill="none" stroke="black"/>
<path d="M63.9961,373.993h -6.80315" fill="none" stroke="black"/>
<path d="M63.9961,362.164h -6.80315" fill="none" stroke="black"/>
<path d="M63.9961,352.499h -6.80315" fill="none" stroke="black"/>
<path d="M63.9961,344.327h -6.80315" fill="none" stroke="black"/>
<path d="M63.9961,337.249h -6.80315" fill="none" stroke="black"/>
<path d="M63.9961,331.005h -6.80315" fill="none" stroke="black"/>
<path d="M70.7992,325.42h -13.6063" fill="none" stroke="black"/>
<text x="45.3649" y="325.61" fill="black" font-size="12.6361" font-family="Helvetica">
2
</text>
<text x="25.6515" y="333.768" fill="black" font-size="18.7041" font-family="Helvetica">
10
</text>
<path d="M63.9961,288.675h -6.80315" fill="none" stroke="black"/>
<path d="M63.9961,267.181h -6.80315" fill="none" stroke="black"/>
<path d="M63.9961,251.931h -6.80315" fill="none" stroke="black"/>
<path d="M63.9961,240.102h -6.80315" fill="none" stroke="black"/>
<path d="M63.9961,230.437h -6.80315" fill="none" stroke="black"/>
<path d="M63.9961,222.265h -6.80315" fill="none" stroke="black"/>
<path d="M63.9961,215.187h -6.80315" fill="none" stroke="black"/>
<path d="M63.9961,208.943h -6.80315" fill="none" stroke="black"/>
<path d="M70.7992,203.358h -13.6063" fill="none" stroke="black"/>
<text x="45.3649" y="203.252" fill="black" font-size="12.6361" font-family="Helvetica">
3
</text>
<text x="25.6515" y="212.089" fill="black" font-size="18.7041" font-family="Helvetica">
10
</text>
<path d="M63.9961,166.613h -6.80315" fill="none" stroke="black"/>
<path d="M63.9961,145.119h -6.80315" fill="none" stroke="black"/>
<path d="M63.9961,129.869h -6.80315" fill="none" stroke="black"/>
<path d="M63.9961,118.04h -6.80315" fill="none" stroke="black"/>
<path d="M63.9961,108.375h -6.80315" fill="none" stroke="black"/>
<path d="M63.9961,100.203h -6.80315" fill="none" stroke="black"/>
<path d="M63.9961,93.1248h -6.80315" fill="none" stroke="black"/>
<path d="M63.9961,86.881h -6.80315" fill="none" stroke="black"/>
<path d="M70.7992,81.2958h -13.6063" fill="none" stroke="black"/>
<text x="45.3649" y="81.5725" fill="black" font-size="12.6361" font-family="Helvetica">
4
</text>
<text x="25.6515" y="89.7298" fill="black" font-size="18.7041" font-family="Helvetica">
10
</text>
<rect x="442.351" y="91.0893" width="113.522" height="59.8199" fill="white"/>
<path d="M442.351,150.909h 113.522" fill="none" stroke="black"/>
<path d="M555.873,150.909v -59.8199" fill="none" stroke="black"/>
<path d="M555.873,91.0893h -113.522" fill="none" stroke="black"/>
<path d="M442.351,91.0893v 59.8199" fill="none" stroke="black"/>
<text x="449.149" y="101.286" fill="black" font-size="8.7512" font-family="Helvetica">
frag_up_weight_1mu3j1b1t
</text>
<path d="M442.351,106.044h 113.522" fill="none" stroke="black"/>
<text x="447.789" y="117.6" fill="black" font-size="11.1228" font-family="Helvetica">
Entries 
</text>
<text x="510.328" y="117.6" fill="black" font-size="11.1228" font-family="Helvetica">
 139567
</text>
<text x="447.789" y="132.555" fill="black" font-size="11.1228" font-family="Helvetica">
Mean  
</text>
<text x="513.727" y="132.555" fill="black" font-size="11.1228" font-family="Helvetica">
 0.8024
</text>
<text x="447.789" y="148.19" fill="black" font-size="11.1228" font-family="Helvetica">
Std Dev   
</text>
<text x="513.727" y="147.51" fill="black" font-size="11.1228" font-family="Helvetica">
 0.2082
</text>
<text x="91.5893" y="23.792" fill="black" font-size="6.28378" font-family="Helvetica">
gen_weight_FragUp / gen_weight_centralFrag {abs(leps_ID) == 13 &amp;&amp; njets &gt;2 &amp;&amp; nbjets &gt; 0 &amp;&amp; tau_IDlev[0] &gt; 2 &amp;&amp; tau_id[0] * lep_id[0] &lt; 0}
</text>
<path d="M57.1929,606.288h 136.063v -36.7443h 4.53543v -58.2383h 4.53543v -36.7443h 4.53543v -27.0793h 4.53543v -72.1465h 4.53543v -73.1477h 4.53543v -23.3975h 4.53543v -22.5826h 4.53543v -22.3962h 4.53543v -43.7876h 4.53543v -15.3224h 4.53543v
 -1.88044h 4.53543v -10.8243h 4.53543v 0.463619h 4.53543v -28.3434h 4.53543v 5.61397h 4.53543v 15.3088h 4.53543v -12.9923h 4.53543v 20.9796h 4.53543v 0.0743664h 4.53543v -20.2982h 4.53543v 17.8739h 4.53543v -10.0703h 4.53543v -11.8094h 4.53543v
 -5.2375h 4.53543v -0.677644h 4.53543v -3.42212h 4.53543v -1.88606h 4.53543v -10.0402h 4.53543v -10.1563h 4.53543v -5.38719h 4.53543v 10.194h 4.53543v 8.25241h 4.53543v 2.28941h 4.53543v 3.19856h 4.53543v 6.39932h 4.53543v -1.0854h 4.53543v 1.92486h
 4.53543v 4.17971h 4.53543v 24.0976h 4.53543v 1.85936h 4.53543v 1.05623h 4.53543v 4.33847h 4.53543v 3.12253h 4.53543v 3.72424h 4.53543v 0.599355h 4.53543v 4.25899h 4.53543v 0.27574h 4.53543v 3.2786h 4.53543v -1.73584h 4.53543v 3.11379h 4.53543v
 2.82843h 4.53543v 8.01932h 4.53543v 10.5144h 4.53543v 1.54662h 4.53543v 6.41844h 4.53543v 6.11272h 4.53543v 2.7191h 4.53543v 4.52807h 4.53543v 5.23003h 4.53543v -4.20729h 4.53543v 11.4859h 4.53543v 13.0179h 4.53543v 21.6308h 4.53543v 11.9319h
 4.53543v 7.44751h 4.53543v 1.50182h 4.53543v 7.51564h 4.53543v -5.02055h 4.53543v 15.8928h 4.53543" fill="none" stroke="#003366"/></svg>
