<?xml version="1.0" standalone="no"?>
<svg width="567.429" height="674.153" viewBox="0 0 567.429 674.153" xmlns="http://www.w3.org/2000/svg">
<title>
/exper-sw/cmst3/cmssw/users/olek/CMSSW_8_0_26_patch1/src/UserCode/NtuplerAnalyzer/frag_weights_sel1mu_fragUp.svg
</title>
<desc>
Creator: ROOT Version 6.06/01
CreationDate: Fri Apr  6 16:09:54 2018</desc>
<defs>
</defs>
<rect x="0.5" y="0" width="566.929" height="673.653" fill="white"/>
<rect x="57.1929" y="67.3653" width="453.543" height="538.923" fill="white"/>
<rect x="57.1929" y="67.3653" width="453.543" height="538.923" fill="none" stroke="black"/>
<rect x="57.1929" y="67.3653" width="453.543" height="538.923" fill="white"/>
<rect x="57.1929" y="67.3653" width="453.543" height="538.923" fill="none" stroke="black"/>
<path d="M57.1929,606.288h 40.8189v -0.00328542h 4.53543v 0.00328542h 9.07087v -0.00328542h 4.53543v -0.00985626h 4.53543v -0.0164271h 4.53543v -0.00164271h 4.53543v -0.0443531h 4.53543v -0.566735h 4.53543v -0.827925h 4.53543v -0.995482h 4.53543v
 -1.07105h 4.53543v -0.911704h 4.53543v -1.14497h 4.53543v -1.17618h 4.53543v -7.26735h 4.53543v -11.085h 4.53543v -5.59178h 4.53543v -12.1544h 4.53543v -14.0304h 4.53543v -7.28377h 4.53543v -4.8657h 4.53543v -10.4673h 4.53543v -8.69486h 4.53543v
 -5.23367h 4.53543v -35.5137h 4.53543v -43.6254h 4.53543v -9.95646h 4.53543v -20.7195h 4.53543v -17.7725h 4.53543v -40.0295h 4.53543v -31.5647h 4.53543v -2.44599h 4.53543v 10.2916h 4.53543v 10.0238h 4.53543v -8.28254h 4.53543v -8.63737h 4.53543v
 3.25914h 4.53543v 10.0485h 4.53543v 8.84599h 4.53543v 8.60451h 4.53543v -252.341h 4.53543v 239.967h 4.53543v -85.255h 4.53543v -89.5736h 4.53543v 167.441h 4.53543v -47.7634h 4.53543v -14.4033h 4.53543v -66.1453h 4.53543v -2.46571h 4.53543v 157.656h
 4.53543v 29.9006h 4.53543v -20.0673h 4.53543v 18.0698h 4.53543v 69.0595h 4.53543v 17.825h 4.53543v -2.79425h 4.53543v 11.2476h 4.53543v 13.145h 4.53543v 28.2924h 4.53543v 34.671h 4.53543v 18.3803h 4.53543v 4.61108h 4.53543v 4.777h 4.53543v 6.63819h
 4.53543v 5.51458h 4.53543v 2.60698h 4.53543v 1.71663h 4.53543v 1.66735h 4.53543v 1.8694h 4.53543v 1.87269h 4.53543v 1.89404h 4.53543v 1.33717h 4.53543v 0.717864h 4.53543v 0.226694h 4.53543v 0.129774h 4.53543v 0.100205h 4.53543v 0.0870636h 4.53543v
 0.07885h 4.53543v 0.0279261h 4.53543v 0.0344969h 4.53543v 0.0312115h 4.53543v 0.0492813h 4.53543v 0.00657084h 4.53543v 0.0246406h 4.53543v 0.00985626h 4.53543v 0.0164271h 4.53543v 0.00985626h 9.07087v 0.00164271h 4.53543v -0.00492813h 4.53543"
 fill="none" stroke="#000099"/>
<rect x="442.705" y="43.7875" width="113.386" height="107.785" fill="white"/>
<path d="M442.705,151.572h 113.386" fill="none" stroke="black"/>
<path d="M556.091,151.572v -107.785" fill="none" stroke="black"/>
<path d="M556.091,43.7875h -113.386" fill="none" stroke="black"/>
<path d="M442.705,43.7875v 107.785" fill="none" stroke="black"/>
<text x="447.11" y="61.8592" fill="black" font-size="15.0741" font-family="Helvetica">
frag_up_weight
</text>
<path d="M442.705,70.7336h 113.386" fill="none" stroke="black"/>
<text x="447.789" y="88.3702" fill="black" font-size="12.1017" font-family="Helvetica">
Entries 
</text>
<text x="501.491" y="88.3702" fill="black" font-size="12.1017" font-family="Helvetica">
 6026220
</text>
<text x="447.789" y="115.561" fill="black" font-size="12.1017" font-family="Helvetica">
Mean  
</text>
<text x="514.407" y="115.561" fill="black" font-size="12.1017" font-family="Helvetica">
  1.004
</text>
<text x="447.789" y="142.752" fill="black" font-size="12.1017" font-family="Helvetica">
Std Dev   
</text>
<text x="513.047" y="142.752" fill="black" font-size="12.1017" font-family="Helvetica">
 0.2061
</text>
<path d="M57.1929,606.288h 453.543" fill="none" stroke="black"/>
<path d="M57.1929,590.12v 16.1677" fill="none" stroke="black"/>
<path d="M68.5315,598.204v 8.08384" fill="none" stroke="black"/>
<path d="M79.8701,598.204v 8.08384" fill="none" stroke="black"/>
<path d="M91.2087,598.204v 8.08384" fill="none" stroke="black"/>
<path d="M102.547,590.12v 16.1677" fill="none" stroke="black"/>
<path d="M113.886,598.204v 8.08384" fill="none" stroke="black"/>
<path d="M125.224,598.204v 8.08384" fill="none" stroke="black"/>
<path d="M136.563,598.204v 8.08384" fill="none" stroke="black"/>
<path d="M147.902,590.12v 16.1677" fill="none" stroke="black"/>
<path d="M159.24,598.204v 8.08384" fill="none" stroke="black"/>
<path d="M170.579,598.204v 8.08384" fill="none" stroke="black"/>
<path d="M181.917,598.204v 8.08384" fill="none" stroke="black"/>
<path d="M193.256,590.12v 16.1677" fill="none" stroke="black"/>
<path d="M204.594,598.204v 8.08384" fill="none" stroke="black"/>
<path d="M215.933,598.204v 8.08384" fill="none" stroke="black"/>
<path d="M227.272,598.204v 8.08384" fill="none" stroke="black"/>
<path d="M238.61,590.12v 16.1677" fill="none" stroke="black"/>
<path d="M249.949,598.204v 8.08384" fill="none" stroke="black"/>
<path d="M261.287,598.204v 8.08384" fill="none" stroke="black"/>
<path d="M272.626,598.204v 8.08384" fill="none" stroke="black"/>
<path d="M283.965,590.12v 16.1677" fill="none" stroke="black"/>
<path d="M295.303,598.204v 8.08384" fill="none" stroke="black"/>
<path d="M306.642,598.204v 8.08384" fill="none" stroke="black"/>
<path d="M317.98,598.204v 8.08384" fill="none" stroke="black"/>
<path d="M329.319,590.12v 16.1677" fill="none" stroke="black"/>
<path d="M340.657,598.204v 8.08384" fill="none" stroke="black"/>
<path d="M351.996,598.204v 8.08384" fill="none" stroke="black"/>
<path d="M363.335,598.204v 8.08384" fill="none" stroke="black"/>
<path d="M374.673,590.12v 16.1677" fill="none" stroke="black"/>
<path d="M386.012,598.204v 8.08384" fill="none" stroke="black"/>
<path d="M397.35,598.204v 8.08384" fill="none" stroke="black"/>
<path d="M408.689,598.204v 8.08384" fill="none" stroke="black"/>
<path d="M420.028,590.12v 16.1677" fill="none" stroke="black"/>
<path d="M431.366,598.204v 8.08384" fill="none" stroke="black"/>
<path d="M442.705,598.204v 8.08384" fill="none" stroke="black"/>
<path d="M454.043,598.204v 8.08384" fill="none" stroke="black"/>
<path d="M465.382,590.12v 16.1677" fill="none" stroke="black"/>
<path d="M476.72,598.204v 8.08384" fill="none" stroke="black"/>
<path d="M488.059,598.204v 8.08384" fill="none" stroke="black"/>
<path d="M499.398,598.204v 8.08384" fill="none" stroke="black"/>
<path d="M510.736,590.12v 16.1677" fill="none" stroke="black"/>
<text x="52.1626" y="628.109" fill="black" font-size="18.7041" font-family="Helvetica">
0
</text>
<text x="89.55" y="628.109" fill="black" font-size="18.7041" font-family="Helvetica">
0.2
</text>
<text x="134.415" y="628.109" fill="black" font-size="18.7041" font-family="Helvetica">
0.4
</text>
<text x="179.96" y="628.109" fill="black" font-size="18.7041" font-family="Helvetica">
0.6
</text>
<text x="225.504" y="628.109" fill="black" font-size="18.7041" font-family="Helvetica">
0.8
</text>
<text x="280.566" y="628.109" fill="black" font-size="18.7041" font-family="Helvetica">
1
</text>
<text x="315.914" y="628.109" fill="black" font-size="18.7041" font-family="Helvetica">
1.2
</text>
<text x="361.458" y="628.109" fill="black" font-size="18.7041" font-family="Helvetica">
1.4
</text>
<text x="407.003" y="628.109" fill="black" font-size="18.7041" font-family="Helvetica">
1.6
</text>
<text x="451.868" y="628.109" fill="black" font-size="18.7041" font-family="Helvetica">
1.8
</text>
<text x="505.57" y="628.109" fill="black" font-size="18.7041" font-family="Helvetica">
2
</text>
<path d="M57.1929,606.288v -538.923" fill="none" stroke="black"/>
<path d="M70.7992,606.288h -13.6063" fill="none" stroke="black"/>
<path d="M63.9961,589.861h -6.80315" fill="none" stroke="black"/>
<path d="M63.9961,573.434h -6.80315" fill="none" stroke="black"/>
<path d="M63.9961,557.007h -6.80315" fill="none" stroke="black"/>
<path d="M63.9961,540.58h -6.80315" fill="none" stroke="black"/>
<path d="M70.7992,524.152h -13.6063" fill="none" stroke="black"/>
<path d="M63.9961,507.725h -6.80315" fill="none" stroke="black"/>
<path d="M63.9961,491.298h -6.80315" fill="none" stroke="black"/>
<path d="M63.9961,474.871h -6.80315" fill="none" stroke="black"/>
<path d="M63.9961,458.444h -6.80315" fill="none" stroke="black"/>
<path d="M70.7992,442.017h -13.6063" fill="none" stroke="black"/>
<path d="M63.9961,425.59h -6.80315" fill="none" stroke="black"/>
<path d="M63.9961,409.163h -6.80315" fill="none" stroke="black"/>
<path d="M63.9961,392.736h -6.80315" fill="none" stroke="black"/>
<path d="M63.9961,376.309h -6.80315" fill="none" stroke="black"/>
<path d="M70.7992,359.882h -13.6063" fill="none" stroke="black"/>
<path d="M63.9961,343.454h -6.80315" fill="none" stroke="black"/>
<path d="M63.9961,327.027h -6.80315" fill="none" stroke="black"/>
<path d="M63.9961,310.6h -6.80315" fill="none" stroke="black"/>
<path d="M63.9961,294.173h -6.80315" fill="none" stroke="black"/>
<path d="M70.7992,277.746h -13.6063" fill="none" stroke="black"/>
<path d="M63.9961,261.319h -6.80315" fill="none" stroke="black"/>
<path d="M63.9961,244.892h -6.80315" fill="none" stroke="black"/>
<path d="M63.9961,228.465h -6.80315" fill="none" stroke="black"/>
<path d="M63.9961,212.038h -6.80315" fill="none" stroke="black"/>
<path d="M70.7992,195.611h -13.6063" fill="none" stroke="black"/>
<path d="M63.9961,179.183h -6.80315" fill="none" stroke="black"/>
<path d="M63.9961,162.756h -6.80315" fill="none" stroke="black"/>
<path d="M63.9961,146.329h -6.80315" fill="none" stroke="black"/>
<path d="M63.9961,129.902h -6.80315" fill="none" stroke="black"/>
<path d="M70.7992,113.475h -13.6063" fill="none" stroke="black"/>
<path d="M70.7992,113.475h -13.6063" fill="none" stroke="black"/>
<path d="M63.9961,97.048h -6.80315" fill="none" stroke="black"/>
<path d="M63.9961,80.6209h -6.80315" fill="none" stroke="black"/>
<text x="44.6851" y="612.474" fill="black" font-size="18.7041" font-family="Helvetica">
0
</text>
<text x="34.4886" y="530.901" fill="black" font-size="18.7041" font-family="Helvetica">
50
</text>
<text x="24.292" y="448.649" fill="black" font-size="18.7041" font-family="Helvetica">
100
</text>
<text x="24.292" y="366.397" fill="black" font-size="18.7041" font-family="Helvetica">
150
</text>
<text x="24.292" y="284.144" fill="black" font-size="18.7041" font-family="Helvetica">
200
</text>
<text x="24.292" y="201.892" fill="black" font-size="18.7041" font-family="Helvetica">
250
</text>
<text x="24.292" y="119.64" fill="black" font-size="18.7041" font-family="Helvetica">
300
</text>
<text x="86.8309" y="55.7412" fill="black" font-size="12.6361" font-family="Helvetica">
3
</text>
<text x="67.1176" y="64.5783" fill="black" font-size="18.7041" font-family="Helvetica">
10
</text>
<text x="56.921" y="64.5783" fill="black" font-size="18.7041" font-family="Times">
&#0215;
</text>
<rect x="442.705" y="43.7875" width="113.386" height="107.785" fill="white"/>
<path d="M442.705,151.572h 113.386" fill="none" stroke="black"/>
<path d="M556.091,151.572v -107.785" fill="none" stroke="black"/>
<path d="M556.091,43.7875h -113.386" fill="none" stroke="black"/>
<path d="M442.705,43.7875v 107.785" fill="none" stroke="black"/>
<text x="447.11" y="61.8592" fill="black" font-size="15.0741" font-family="Helvetica">
frag_up_weight
</text>
<path d="M442.705,70.7336h 113.386" fill="none" stroke="black"/>
<text x="447.789" y="88.3702" fill="black" font-size="12.1017" font-family="Helvetica">
Entries 
</text>
<text x="501.491" y="88.3702" fill="black" font-size="12.1017" font-family="Helvetica">
 6026220
</text>
<text x="447.789" y="115.561" fill="black" font-size="12.1017" font-family="Helvetica">
Mean  
</text>
<text x="514.407" y="115.561" fill="black" font-size="12.1017" font-family="Helvetica">
  1.004
</text>
<text x="447.789" y="142.752" fill="black" font-size="12.1017" font-family="Helvetica">
Std Dev   
</text>
<text x="513.047" y="142.752" fill="black" font-size="12.1017" font-family="Helvetica">
 0.2061
</text>
<text x="100.426" y="25.8313" fill="black" font-size="12.6036" font-family="Helvetica">
gen_weight_FragUp / gen_weight_centralFrag {abs(leps_ID) == 13}
</text></svg>
