<?xml version="1.0" standalone="no"?>
<svg width="567.429" height="674.153" viewBox="0 0 567.429 674.153" xmlns="http://www.w3.org/2000/svg">
<title>
/exper-sw/cmst3/cmssw/users/olek/CMSSW_8_0_26_patch1/src/UserCode/NtuplerAnalyzer/frag_weights_sel-ttmutau_central-red-up-azure-down.svg
</title>
<desc>
Creator: ROOT Version 6.06/01
CreationDate: Fri Apr  6 16:59:57 2018</desc>
<defs>
</defs>
<rect x="0.5" y="0" width="566.929" height="673.653" fill="white"/>
<rect x="57.1929" y="67.3653" width="453.543" height="538.923" fill="white"/>
<rect x="57.1929" y="67.3653" width="453.543" height="538.923" fill="none" stroke="black"/>
<rect x="57.1929" y="67.3653" width="453.543" height="538.923" fill="white"/>
<rect x="57.1929" y="67.3653" width="453.543" height="538.923" fill="none" stroke="black"/>
<path d="M57.1929,606.288h 163.276v -0.00624244h 4.53543v -0.00624244h 4.53543v -0.0124849h 4.53543v -0.181031h 4.53543v -2.20358h 4.53543v -10.35h 4.53543v -17.6349h 4.53543v -48.8408h 4.53543v -100.946h 4.53543v -74.4848h 4.53543v -106.821h
 4.53543v -151.772h 4.53543v 37.6731h 4.53543v 140.542h 4.53543v 44.9143h 4.53543v 79.254h 4.53543v 93.6179h 4.53543v 74.7158h 4.53543v 33.2847h 4.53543v 7.73438h 4.53543v 1.26722h 4.53543v 0.218485h 4.53543v 0.0312122h 4.53543v 0.00624244h 185.953"
 fill="none" stroke="#000099"/>
<rect x="442.705" y="43.7875" width="113.386" height="107.785" fill="white"/>
<path d="M442.705,151.572h 113.386" fill="none" stroke="black"/>
<path d="M556.091,151.572v -107.785" fill="none" stroke="black"/>
<path d="M556.091,43.7875h -113.386" fill="none" stroke="black"/>
<path d="M442.705,43.7875v 107.785" fill="none" stroke="black"/>
<text x="445.75" y="60.4996" fill="black" font-size="11.6471" font-family="Helvetica">
frag_central_ttmutau
</text>
<path d="M442.705,70.7336h 113.386" fill="none" stroke="black"/>
<text x="447.789" y="88.3702" fill="black" font-size="12.4564" font-family="Helvetica">
Entries 
</text>
<text x="507.609" y="88.3702" fill="black" font-size="12.4564" font-family="Helvetica">
 467311
</text>
<text x="447.789" y="115.561" fill="black" font-size="12.4564" font-family="Helvetica">
Mean  
</text>
<text x="508.969" y="115.561" fill="black" font-size="12.4564" font-family="Helvetica">
 0.9623
</text>
<text x="447.789" y="142.752" fill="black" font-size="12.4564" font-family="Helvetica">
Std Dev   
</text>
<text x="502.171" y="142.752" fill="black" font-size="12.4564" font-family="Helvetica">
 0.04842
</text>
<path d="M57.1929,606.288h 453.543" fill="none" stroke="black"/>
<path d="M57.1929,590.12v 16.1677" fill="none" stroke="black"/>
<path d="M68.5315,598.204v 8.08384" fill="none" stroke="black"/>
<path d="M79.8701,598.204v 8.08384" fill="none" stroke="black"/>
<path d="M91.2087,598.204v 8.08384" fill="none" stroke="black"/>
<path d="M102.547,590.12v 16.1677" fill="none" stroke="black"/>
<path d="M113.886,598.204v 8.08384" fill="none" stroke="black"/>
<path d="M125.224,598.204v 8.08384" fill="none" stroke="black"/>
<path d="M136.563,598.204v 8.08384" fill="none" stroke="black"/>
<path d="M147.902,590.12v 16.1677" fill="none" stroke="black"/>
<path d="M159.24,598.204v 8.08384" fill="none" stroke="black"/>
<path d="M170.579,598.204v 8.08384" fill="none" stroke="black"/>
<path d="M181.917,598.204v 8.08384" fill="none" stroke="black"/>
<path d="M193.256,590.12v 16.1677" fill="none" stroke="black"/>
<path d="M204.594,598.204v 8.08384" fill="none" stroke="black"/>
<path d="M215.933,598.204v 8.08384" fill="none" stroke="black"/>
<path d="M227.272,598.204v 8.08384" fill="none" stroke="black"/>
<path d="M238.61,590.12v 16.1677" fill="none" stroke="black"/>
<path d="M249.949,598.204v 8.08384" fill="none" stroke="black"/>
<path d="M261.287,598.204v 8.08384" fill="none" stroke="black"/>
<path d="M272.626,598.204v 8.08384" fill="none" stroke="black"/>
<path d="M283.965,590.12v 16.1677" fill="none" stroke="black"/>
<path d="M295.303,598.204v 8.08384" fill="none" stroke="black"/>
<path d="M306.642,598.204v 8.08384" fill="none" stroke="black"/>
<path d="M317.98,598.204v 8.08384" fill="none" stroke="black"/>
<path d="M329.319,590.12v 16.1677" fill="none" stroke="black"/>
<path d="M340.657,598.204v 8.08384" fill="none" stroke="black"/>
<path d="M351.996,598.204v 8.08384" fill="none" stroke="black"/>
<path d="M363.335,598.204v 8.08384" fill="none" stroke="black"/>
<path d="M374.673,590.12v 16.1677" fill="none" stroke="black"/>
<path d="M386.012,598.204v 8.08384" fill="none" stroke="black"/>
<path d="M397.35,598.204v 8.08384" fill="none" stroke="black"/>
<path d="M408.689,598.204v 8.08384" fill="none" stroke="black"/>
<path d="M420.028,590.12v 16.1677" fill="none" stroke="black"/>
<path d="M431.366,598.204v 8.08384" fill="none" stroke="black"/>
<path d="M442.705,598.204v 8.08384" fill="none" stroke="black"/>
<path d="M454.043,598.204v 8.08384" fill="none" stroke="black"/>
<path d="M465.382,590.12v 16.1677" fill="none" stroke="black"/>
<path d="M476.72,598.204v 8.08384" fill="none" stroke="black"/>
<path d="M488.059,598.204v 8.08384" fill="none" stroke="black"/>
<path d="M499.398,598.204v 8.08384" fill="none" stroke="black"/>
<path d="M510.736,590.12v 16.1677" fill="none" stroke="black"/>
<text x="52.1626" y="628.109" fill="black" font-size="18.7041" font-family="Helvetica">
0
</text>
<text x="89.55" y="628.109" fill="black" font-size="18.7041" font-family="Helvetica">
0.2
</text>
<text x="134.415" y="628.109" fill="black" font-size="18.7041" font-family="Helvetica">
0.4
</text>
<text x="179.96" y="628.109" fill="black" font-size="18.7041" font-family="Helvetica">
0.6
</text>
<text x="225.504" y="628.109" fill="black" font-size="18.7041" font-family="Helvetica">
0.8
</text>
<text x="280.566" y="628.109" fill="black" font-size="18.7041" font-family="Helvetica">
1
</text>
<text x="315.914" y="628.109" fill="black" font-size="18.7041" font-family="Helvetica">
1.2
</text>
<text x="361.458" y="628.109" fill="black" font-size="18.7041" font-family="Helvetica">
1.4
</text>
<text x="407.003" y="628.109" fill="black" font-size="18.7041" font-family="Helvetica">
1.6
</text>
<text x="451.868" y="628.109" fill="black" font-size="18.7041" font-family="Helvetica">
1.8
</text>
<text x="505.57" y="628.109" fill="black" font-size="18.7041" font-family="Helvetica">
2
</text>
<path d="M57.1929,606.288v -538.923" fill="none" stroke="black"/>
<path d="M70.7992,606.288h -13.6063" fill="none" stroke="black"/>
<path d="M63.9961,593.803h -6.80315" fill="none" stroke="black"/>
<path d="M63.9961,581.318h -6.80315" fill="none" stroke="black"/>
<path d="M63.9961,568.833h -6.80315" fill="none" stroke="black"/>
<path d="M63.9961,556.348h -6.80315" fill="none" stroke="black"/>
<path d="M70.7992,543.863h -13.6063" fill="none" stroke="black"/>
<path d="M63.9961,531.379h -6.80315" fill="none" stroke="black"/>
<path d="M63.9961,518.894h -6.80315" fill="none" stroke="black"/>
<path d="M63.9961,506.409h -6.80315" fill="none" stroke="black"/>
<path d="M63.9961,493.924h -6.80315" fill="none" stroke="black"/>
<path d="M70.7992,481.439h -13.6063" fill="none" stroke="black"/>
<path d="M63.9961,468.954h -6.80315" fill="none" stroke="black"/>
<path d="M63.9961,456.469h -6.80315" fill="none" stroke="black"/>
<path d="M63.9961,443.984h -6.80315" fill="none" stroke="black"/>
<path d="M63.9961,431.5h -6.80315" fill="none" stroke="black"/>
<path d="M70.7992,419.015h -13.6063" fill="none" stroke="black"/>
<path d="M63.9961,406.53h -6.80315" fill="none" stroke="black"/>
<path d="M63.9961,394.045h -6.80315" fill="none" stroke="black"/>
<path d="M63.9961,381.56h -6.80315" fill="none" stroke="black"/>
<path d="M63.9961,369.075h -6.80315" fill="none" stroke="black"/>
<path d="M70.7992,356.59h -13.6063" fill="none" stroke="black"/>
<path d="M63.9961,344.105h -6.80315" fill="none" stroke="black"/>
<path d="M63.9961,331.621h -6.80315" fill="none" stroke="black"/>
<path d="M63.9961,319.136h -6.80315" fill="none" stroke="black"/>
<path d="M63.9961,306.651h -6.80315" fill="none" stroke="black"/>
<path d="M70.7992,294.166h -13.6063" fill="none" stroke="black"/>
<path d="M63.9961,281.681h -6.80315" fill="none" stroke="black"/>
<path d="M63.9961,269.196h -6.80315" fill="none" stroke="black"/>
<path d="M63.9961,256.711h -6.80315" fill="none" stroke="black"/>
<path d="M63.9961,244.226h -6.80315" fill="none" stroke="black"/>
<path d="M70.7992,231.742h -13.6063" fill="none" stroke="black"/>
<path d="M63.9961,219.257h -6.80315" fill="none" stroke="black"/>
<path d="M63.9961,206.772h -6.80315" fill="none" stroke="black"/>
<path d="M63.9961,194.287h -6.80315" fill="none" stroke="black"/>
<path d="M63.9961,181.802h -6.80315" fill="none" stroke="black"/>
<path d="M70.7992,169.317h -13.6063" fill="none" stroke="black"/>
<path d="M63.9961,156.832h -6.80315" fill="none" stroke="black"/>
<path d="M63.9961,144.347h -6.80315" fill="none" stroke="black"/>
<path d="M63.9961,131.863h -6.80315" fill="none" stroke="black"/>
<path d="M63.9961,119.378h -6.80315" fill="none" stroke="black"/>
<path d="M70.7992,106.893h -13.6063" fill="none" stroke="black"/>
<path d="M70.7992,106.893h -13.6063" fill="none" stroke="black"/>
<path d="M63.9961,94.4079h -6.80315" fill="none" stroke="black"/>
<path d="M63.9961,81.923h -6.80315" fill="none" stroke="black"/>
<path d="M63.9961,69.4381h -6.80315" fill="none" stroke="black"/>
<text x="44.6851" y="612.474" fill="black" font-size="18.7041" font-family="Helvetica">
0
</text>
<text x="3.89886" y="550.615" fill="black" font-size="18.7041" font-family="Helvetica">
10000
</text>
<text x="3.89886" y="488.076" fill="black" font-size="18.7041" font-family="Helvetica">
20000
</text>
<text x="3.89886" y="425.537" fill="black" font-size="18.7041" font-family="Helvetica">
30000
</text>
<text x="3.89886" y="362.998" fill="black" font-size="18.7041" font-family="Helvetica">
40000
</text>
<text x="3.89886" y="300.459" fill="black" font-size="18.7041" font-family="Helvetica">
50000
</text>
<text x="3.89886" y="237.92" fill="black" font-size="18.7041" font-family="Helvetica">
60000
</text>
<text x="3.89886" y="176.061" fill="black" font-size="18.7041" font-family="Helvetica">
70000
</text>
<text x="3.89886" y="113.522" fill="black" font-size="18.7041" font-family="Helvetica">
80000
</text>
<rect x="442.705" y="43.7875" width="113.386" height="107.785" fill="white"/>
<path d="M442.705,151.572h 113.386" fill="none" stroke="black"/>
<path d="M556.091,151.572v -107.785" fill="none" stroke="black"/>
<path d="M556.091,43.7875h -113.386" fill="none" stroke="black"/>
<path d="M442.705,43.7875v 107.785" fill="none" stroke="black"/>
<text x="445.75" y="60.4996" fill="black" font-size="11.6471" font-family="Helvetica">
frag_central_ttmutau
</text>
<path d="M442.705,70.7336h 113.386" fill="none" stroke="black"/>
<text x="447.789" y="88.3702" fill="black" font-size="12.4564" font-family="Helvetica">
Entries 
</text>
<text x="507.609" y="88.3702" fill="black" font-size="12.4564" font-family="Helvetica">
 467311
</text>
<text x="447.789" y="115.561" fill="black" font-size="12.4564" font-family="Helvetica">
Mean  
</text>
<text x="508.969" y="115.561" fill="black" font-size="12.4564" font-family="Helvetica">
 0.9623
</text>
<text x="447.789" y="142.752" fill="black" font-size="12.4564" font-family="Helvetica">
Std Dev   
</text>
<text x="502.171" y="142.752" fill="black" font-size="12.4564" font-family="Helvetica">
 0.04842
</text>
<text x="105.865" y="25.1515" fill="black" font-size="5.29691" font-family="Helvetica">
gen_weight_centralFrag  {(abs(gen_t_w_decay_id) &gt; 15*15 &amp;&amp; abs(gen_tb_w_decay_id) == 13) || (abs(gen_tb_w_decay_id) &gt; 15*15 &amp;&amp; abs(gen_t_w_decay_id) == 13)}
</text>
<path d="M57.1929,606.288h 49.8898v -0.0811517h 4.53543v -0.00624244h 4.53543v -0.380789h 4.53543v -2.11619h 4.53543v -2.64679h 4.53543v -3.72049h 4.53543v -2.99637h 4.53543v -2.53443h 4.53543v -3.1337h 4.53543v -4.11377h 4.53543v -11.6546h 4.53543v
 -10.9804h 4.53543v -7.56584h 4.53543v -8.97663h 4.53543v -10.5997h 4.53543v -4.28856h 4.53543v 1.62303h 4.53543v -1.15485h 4.53543v -2.00382h 4.53543v -2.55316h 4.53543v 1.38582h 4.53543v -26.649h 4.53543v 9.33869h 4.53543v -12.9218h 4.53543v
 -0.923881h 4.53543v 6.2362h 4.53543v -7.8842h 4.53543v 7.02899h 4.53543v -19.595h 4.53543v 23.7962h 4.53543v 9.48226h 4.53543v 7.05396h 4.53543v 15.9557h 4.53543v 4.74425h 4.53543v 1.236h 4.53543v 7.78432h 4.53543v 1.10491h 4.53543v 9.81936h
 4.53543v 4.7505h 4.53543v -15.0505h 4.53543v 23.1719h 4.53543v -0.905154h 4.53543v -6.15505h 4.53543v -12.4474h 4.53543v 22.7287h 4.53543v -0.992548h 4.53543v -5.75553h 4.53543v -2.3971h 4.53543v 10.9118h 4.53543v -26.1496h 4.53543v 32.598h 4.53543v
 0.324607h 4.53543v -0.955093h 4.53543v 1.02376h 4.53543v -8.36487h 4.53543v 15.6311h 4.53543v 0.0124849h 4.53543v -0.149819h 4.53543v 0.174788h 4.53543v 0.811517h 4.53543v 2.26601h 4.53543v -1.35461h 4.53543v 0.842729h 4.53543v 6.36105h 4.53543v
 0.237213h 4.53543v 0.156061h 4.53543v 0.23097h 4.53543v 0.0187273h 4.53543v -0.0811517h 4.53543v 0.71788h 9.07087v 0.156061h 4.53543v -0.0811517h 4.53543v 0.249698h 4.53543v -0.056182h 4.53543v 0.0873941h 4.53543v 0.0624244h 4.53543v -0.0624244h
 4.53543v 0.324607h 49.8898" fill="none" stroke="#ff0000"/>
<path d="M57.1929,606.288h 158.74v -0.099879h 4.53543v -0.0312122h 4.53543v -0.274667h 4.53543v -2.57813h 4.53543v -2.89649h 4.53543v -3.17116h 4.53543v -15.1379h 4.53543v -36.2436h 4.53543v -0.46194h 4.53543v -15.5624h 4.53543v -32.2484h 4.53543v
 7.85923h 4.53543v 19.4202h 4.53543v -14.0705h 4.53543v 29.2271h 4.53543v -17.2853h 4.53543v 11.4237h 4.53543v -21.1431h 4.53543v -24.0022h 4.53543v 2.80286h 4.53543v -1.72291h 4.53543v -18.2654h 4.53543v -17.766h 4.53543v -18.5837h 4.53543v 40.22h
 4.53543v 24.2269h 4.53543v -12.0042h 4.53543v 34.2398h 4.53543v -26.8362h 4.53543v 53.5476h 4.53543v -0.293395h 4.53543v -1.5294h 4.53543v 9.98166h 4.53543v 7.20377h 4.53543v 1.7354h 4.53543v 1.84152h 4.53543v -1.91019h 4.53543v 3.76419h 4.53543v
 6.56705h 4.53543v 5.39971h 4.53543v 2.89649h 4.53543v 2.88401h 4.53543v 1.59182h 4.53543v 3.29601h 4.53543v 0.986305h 4.53543v 0.561819h 4.53543v 6.92911h 4.53543v 0.23097h 4.53543v 0.667941h 4.53543v 0.0624244h 4.53543v 0.917639h 4.53543v 0.749093h
 4.53543v 0.243455h 4.53543v 0.287152h 4.53543v -0.0374546h 4.53543v 0.0686668h 4.53543v 0.449456h 4.53543v 0.48691h 4.53543v 0.243455h 4.53543v 0.368304h 4.53543v -0.162303h 4.53543v 0.343334h 4.53543v -0.0873941h 4.53543v 0.206h 4.53543v 0.0624244h
 4.53543" fill="none" stroke="#0033ff"/></svg>
