<?xml version="1.0" standalone="no"?>
<svg width="567.429" height="674.153" viewBox="0 0 567.429 674.153" xmlns="http://www.w3.org/2000/svg">
<title>
/exper-sw/cmst3/cmssw/users/olek/CMSSW_8_0_26_patch1/src/UserCode/NtuplerAnalyzer/frag_weights_sel1mu_central-red-up-green-down.svg
</title>
<desc>
Creator: ROOT Version 6.06/01
CreationDate: Fri Apr  6 16:08:58 2018</desc>
<defs>
</defs>
<rect x="0.5" y="0" width="566.929" height="673.653" fill="white"/>
<rect x="57.1929" y="67.3653" width="453.543" height="538.923" fill="white"/>
<rect x="57.1929" y="67.3653" width="453.543" height="538.923" fill="none" stroke="black"/>
<rect x="57.1929" y="67.3653" width="453.543" height="538.923" fill="white"/>
<rect x="57.1929" y="67.3653" width="453.543" height="538.923" fill="none" stroke="black"/>
<path d="M57.1929,606.288h 163.276v -0.000786818h 4.53543v -0.000393409h 4.53543v -0.00157364h 4.53543v -0.0165232h 4.53543v -0.174673h 4.53543v -0.778163h 4.53543v -1.50636h 4.53543v -6.39093h 4.53543v -19.9824h 4.53543v -23.1698h 4.53543v -52.4327h
 4.53543v -102.845h 4.53543v -76.0172h 4.53543v -44.4273h 4.53543v -185.515h 4.53543v 81.1661h 4.53543v 164.76h 4.53543v 159.308h 4.53543v 80.4226h 4.53543v 22.3279h 4.53543v 4.45968h 4.53543v 0.702235h 4.53543v 0.0924511h 4.53543v 0.0200638h
 4.53543v 0.000393409h 4.53543v 0.000393409h 176.882" fill="none" stroke="#000099"/>
<rect x="442.705" y="43.7875" width="113.386" height="107.785" fill="white"/>
<path d="M442.705,151.572h 113.386" fill="none" stroke="black"/>
<path d="M556.091,151.572v -107.785" fill="none" stroke="black"/>
<path d="M556.091,43.7875h -113.386" fill="none" stroke="black"/>
<path d="M442.705,43.7875v 107.785" fill="none" stroke="black"/>
<text x="448.469" y="62.5389" fill="black" font-size="19.0485" font-family="Helvetica">
central_frag
</text>
<path d="M442.705,70.7336h 113.386" fill="none" stroke="black"/>
<text x="447.789" y="88.3702" fill="black" font-size="12.1017" font-family="Helvetica">
Entries 
</text>
<text x="501.491" y="88.3702" fill="black" font-size="12.1017" font-family="Helvetica">
 6026220
</text>
<text x="447.789" y="115.561" fill="black" font-size="12.1017" font-family="Helvetica">
Mean  
</text>
<text x="516.446" y="115.561" fill="black" font-size="12.1017" font-family="Helvetica">
  1.001
</text>
<text x="447.789" y="142.752" fill="black" font-size="12.1017" font-family="Helvetica">
Std Dev   
</text>
<text x="513.047" y="142.752" fill="black" font-size="12.1017" font-family="Helvetica">
 0.0421
</text>
<path d="M57.1929,606.288h 453.543" fill="none" stroke="black"/>
<path d="M57.1929,590.12v 16.1677" fill="none" stroke="black"/>
<path d="M68.5315,598.204v 8.08384" fill="none" stroke="black"/>
<path d="M79.8701,598.204v 8.08384" fill="none" stroke="black"/>
<path d="M91.2087,598.204v 8.08384" fill="none" stroke="black"/>
<path d="M102.547,590.12v 16.1677" fill="none" stroke="black"/>
<path d="M113.886,598.204v 8.08384" fill="none" stroke="black"/>
<path d="M125.224,598.204v 8.08384" fill="none" stroke="black"/>
<path d="M136.563,598.204v 8.08384" fill="none" stroke="black"/>
<path d="M147.902,590.12v 16.1677" fill="none" stroke="black"/>
<path d="M159.24,598.204v 8.08384" fill="none" stroke="black"/>
<path d="M170.579,598.204v 8.08384" fill="none" stroke="black"/>
<path d="M181.917,598.204v 8.08384" fill="none" stroke="black"/>
<path d="M193.256,590.12v 16.1677" fill="none" stroke="black"/>
<path d="M204.594,598.204v 8.08384" fill="none" stroke="black"/>
<path d="M215.933,598.204v 8.08384" fill="none" stroke="black"/>
<path d="M227.272,598.204v 8.08384" fill="none" stroke="black"/>
<path d="M238.61,590.12v 16.1677" fill="none" stroke="black"/>
<path d="M249.949,598.204v 8.08384" fill="none" stroke="black"/>
<path d="M261.287,598.204v 8.08384" fill="none" stroke="black"/>
<path d="M272.626,598.204v 8.08384" fill="none" stroke="black"/>
<path d="M283.965,590.12v 16.1677" fill="none" stroke="black"/>
<path d="M295.303,598.204v 8.08384" fill="none" stroke="black"/>
<path d="M306.642,598.204v 8.08384" fill="none" stroke="black"/>
<path d="M317.98,598.204v 8.08384" fill="none" stroke="black"/>
<path d="M329.319,590.12v 16.1677" fill="none" stroke="black"/>
<path d="M340.657,598.204v 8.08384" fill="none" stroke="black"/>
<path d="M351.996,598.204v 8.08384" fill="none" stroke="black"/>
<path d="M363.335,598.204v 8.08384" fill="none" stroke="black"/>
<path d="M374.673,590.12v 16.1677" fill="none" stroke="black"/>
<path d="M386.012,598.204v 8.08384" fill="none" stroke="black"/>
<path d="M397.35,598.204v 8.08384" fill="none" stroke="black"/>
<path d="M408.689,598.204v 8.08384" fill="none" stroke="black"/>
<path d="M420.028,590.12v 16.1677" fill="none" stroke="black"/>
<path d="M431.366,598.204v 8.08384" fill="none" stroke="black"/>
<path d="M442.705,598.204v 8.08384" fill="none" stroke="black"/>
<path d="M454.043,598.204v 8.08384" fill="none" stroke="black"/>
<path d="M465.382,590.12v 16.1677" fill="none" stroke="black"/>
<path d="M476.72,598.204v 8.08384" fill="none" stroke="black"/>
<path d="M488.059,598.204v 8.08384" fill="none" stroke="black"/>
<path d="M499.398,598.204v 8.08384" fill="none" stroke="black"/>
<path d="M510.736,590.12v 16.1677" fill="none" stroke="black"/>
<text x="52.1626" y="628.109" fill="black" font-size="18.7041" font-family="Helvetica">
0
</text>
<text x="89.55" y="628.109" fill="black" font-size="18.7041" font-family="Helvetica">
0.2
</text>
<text x="134.415" y="628.109" fill="black" font-size="18.7041" font-family="Helvetica">
0.4
</text>
<text x="179.96" y="628.109" fill="black" font-size="18.7041" font-family="Helvetica">
0.6
</text>
<text x="225.504" y="628.109" fill="black" font-size="18.7041" font-family="Helvetica">
0.8
</text>
<text x="280.566" y="628.109" fill="black" font-size="18.7041" font-family="Helvetica">
1
</text>
<text x="315.914" y="628.109" fill="black" font-size="18.7041" font-family="Helvetica">
1.2
</text>
<text x="361.458" y="628.109" fill="black" font-size="18.7041" font-family="Helvetica">
1.4
</text>
<text x="407.003" y="628.109" fill="black" font-size="18.7041" font-family="Helvetica">
1.6
</text>
<text x="451.868" y="628.109" fill="black" font-size="18.7041" font-family="Helvetica">
1.8
</text>
<text x="505.57" y="628.109" fill="black" font-size="18.7041" font-family="Helvetica">
2
</text>
<path d="M57.1929,606.288v -538.923" fill="none" stroke="black"/>
<path d="M70.7992,606.288h -13.6063" fill="none" stroke="black"/>
<path d="M63.9961,586.617h -6.80315" fill="none" stroke="black"/>
<path d="M63.9961,566.947h -6.80315" fill="none" stroke="black"/>
<path d="M63.9961,547.277h -6.80315" fill="none" stroke="black"/>
<path d="M70.7992,527.606h -13.6063" fill="none" stroke="black"/>
<path d="M63.9961,507.936h -6.80315" fill="none" stroke="black"/>
<path d="M63.9961,488.265h -6.80315" fill="none" stroke="black"/>
<path d="M63.9961,468.595h -6.80315" fill="none" stroke="black"/>
<path d="M70.7992,448.924h -13.6063" fill="none" stroke="black"/>
<path d="M63.9961,429.254h -6.80315" fill="none" stroke="black"/>
<path d="M63.9961,409.583h -6.80315" fill="none" stroke="black"/>
<path d="M63.9961,389.913h -6.80315" fill="none" stroke="black"/>
<path d="M70.7992,370.243h -13.6063" fill="none" stroke="black"/>
<path d="M63.9961,350.572h -6.80315" fill="none" stroke="black"/>
<path d="M63.9961,330.902h -6.80315" fill="none" stroke="black"/>
<path d="M63.9961,311.231h -6.80315" fill="none" stroke="black"/>
<path d="M70.7992,291.561h -13.6063" fill="none" stroke="black"/>
<path d="M63.9961,271.89h -6.80315" fill="none" stroke="black"/>
<path d="M63.9961,252.22h -6.80315" fill="none" stroke="black"/>
<path d="M63.9961,232.55h -6.80315" fill="none" stroke="black"/>
<path d="M70.7992,212.879h -13.6063" fill="none" stroke="black"/>
<path d="M63.9961,193.209h -6.80315" fill="none" stroke="black"/>
<path d="M63.9961,173.538h -6.80315" fill="none" stroke="black"/>
<path d="M63.9961,153.868h -6.80315" fill="none" stroke="black"/>
<path d="M70.7992,134.197h -13.6063" fill="none" stroke="black"/>
<path d="M70.7992,134.197h -13.6063" fill="none" stroke="black"/>
<path d="M63.9961,114.527h -6.80315" fill="none" stroke="black"/>
<path d="M63.9961,94.8565h -6.80315" fill="none" stroke="black"/>
<path d="M63.9961,75.186h -6.80315" fill="none" stroke="black"/>
<text x="44.6851" y="612.474" fill="black" font-size="18.7041" font-family="Helvetica">
0
</text>
<text x="24.292" y="534.3" fill="black" font-size="18.7041" font-family="Helvetica">
200
</text>
<text x="24.292" y="455.447" fill="black" font-size="18.7041" font-family="Helvetica">
400
</text>
<text x="24.292" y="376.593" fill="black" font-size="18.7041" font-family="Helvetica">
600
</text>
<text x="24.292" y="297.74" fill="black" font-size="18.7041" font-family="Helvetica">
800
</text>
<text x="14.0954" y="219.566" fill="black" font-size="18.7041" font-family="Helvetica">
1000
</text>
<text x="14.0954" y="140.713" fill="black" font-size="18.7041" font-family="Helvetica">
1200
</text>
<text x="86.8309" y="55.7412" fill="black" font-size="12.6361" font-family="Helvetica">
3
</text>
<text x="67.1176" y="64.5783" fill="black" font-size="18.7041" font-family="Helvetica">
10
</text>
<text x="56.921" y="64.5783" fill="black" font-size="18.7041" font-family="Times">
&#0215;
</text>
<rect x="442.705" y="43.7875" width="113.386" height="107.785" fill="white"/>
<path d="M442.705,151.572h 113.386" fill="none" stroke="black"/>
<path d="M556.091,151.572v -107.785" fill="none" stroke="black"/>
<path d="M556.091,43.7875h -113.386" fill="none" stroke="black"/>
<path d="M442.705,43.7875v 107.785" fill="none" stroke="black"/>
<text x="448.469" y="62.5389" fill="black" font-size="19.0485" font-family="Helvetica">
central_frag
</text>
<path d="M442.705,70.7336h 113.386" fill="none" stroke="black"/>
<text x="447.789" y="88.3702" fill="black" font-size="12.1017" font-family="Helvetica">
Entries 
</text>
<text x="501.491" y="88.3702" fill="black" font-size="12.1017" font-family="Helvetica">
 6026220
</text>
<text x="447.789" y="115.561" fill="black" font-size="12.1017" font-family="Helvetica">
Mean  
</text>
<text x="516.446" y="115.561" fill="black" font-size="12.1017" font-family="Helvetica">
  1.001
</text>
<text x="447.789" y="142.752" fill="black" font-size="12.1017" font-family="Helvetica">
Std Dev   
</text>
<text x="513.047" y="142.752" fill="black" font-size="12.1017" font-family="Helvetica">
 0.0421
</text>
<text x="99.0668" y="28.5504" fill="black" font-size="18.3248" font-family="Helvetica">
gen_weight_centralFrag {abs(leps_ID) == 13}
</text>
<path d="M57.1929,606.288h 63.4961v -0.179394h 4.53543v -0.194737h 4.53543v -0.250601h 4.53543v -0.214014h 4.53543v -0.212047h 4.53543v -0.240373h 4.53543v -0.408358h 4.53543v -1.89977h 4.53543v -1.84115h 4.53543v -1.63815h 4.53543v -2.23377h
 4.53543v -2.68305h 4.53543v -1.57167h 4.53543v -0.963458h 4.53543v -1.48945h 4.53543v -1.94777h 4.53543v -1.74437h 4.53543v -1.00634h 4.53543v -12.8432h 4.53543v -1.18062h 4.53543v -4.00884h 4.53543v -5.73983h 4.53543v -1.39581h 4.53543v -5.40858h
 4.53543v -4.53522h 4.53543v -8.18802h 4.53543v 6.00499h 4.53543v 1.21327h 4.53543v -1.12908h 4.53543v 1.69008h 4.53543v -2.09687h 4.53543v -1.29943h 4.53543v 2.15431h 4.53543v -0.333217h 4.53543v 1.92534h 4.53543v 2.77825h 4.53543v -55.8239h
 4.53543v 56.2992h 4.53543v -5.30905h 4.53543v -17.832h 4.53543v -25.6113h 4.53543v 48.0989h 4.53543v -3.85383h 4.53543v -13.669h 4.53543v -8.09911h 4.53543v 24.1199h 4.53543v -54.2574h 4.53543v 67.4448h 4.53543v 0.877302h 4.53543v -3.58789h 4.53543v
 1.85453h 4.53543v -16.8229h 4.53543v 34.0149h 4.53543v 0.483893h 4.53543v -1.15741h 4.53543v -0.437471h 4.53543v 1.6712h 4.53543v 5.54785h 4.53543v -1.65586h 4.53543v 2.22276h 4.53543v 11.4014h 4.53543v 0.948509h 4.53543v 0.0802554h 4.53543v
 0.933952h 4.53543v -0.204573h 4.53543v 0.736068h 4.53543v 2.50169h 4.53543v 0.0409145h 4.53543v 0.345806h 4.53543v -0.394196h 4.53543v 0.876515h 4.53543v -0.261617h 4.53543v 0.699874h 4.53543v 0.0739608h 4.53543v -0.231324h 4.53543v 0.871007h
 4.53543v 0.0267518h 4.53543v 0.0165232h 4.53543v 0.00708136h 4.53543v 0.0141627h 4.53543v 0.0216375h 4.53543v 0.0090484h 4.53543v 0.0794686h 18.1417" fill="none" stroke="#ff0000"/>
<path d="M57.1929,606.288h 154.205v -0.0578311h 4.53543v -0.14084h 4.53543v -0.298597h 4.53543v -0.757705h 4.53543v -6.19855h 4.53543v -9.92924h 4.53543v -11.1819h 4.53543v -34.2018h 4.53543v -66.4393h 4.53543v -4.43057h 4.53543v -34.4846h 4.53543v
 -59.3375h 4.53543v 21.4412h 4.53543v 48.6348h 4.53543v -21.176h 4.53543v 74.0679h 4.53543v -40.9692h 4.53543v 61.5217h 4.53543v -6.44876h 4.53543v 14.3897h 4.53543v 9.28405h 4.53543v 2.09687h 4.53543v -1.61888h 4.53543v 5.8551h 4.53543v 9.02165h
 4.53543v 10.7239h 4.53543v 7.81939h 4.53543v 1.88836h 4.53543v 8.0397h 4.53543v -1.98475h 4.53543v 12.8468h 4.53543v 1.12554h 4.53543v 0.758492h 4.53543v 1.93596h 4.53543v 1.38323h 4.53543v 0.529528h 4.53543v 0.502776h 4.53543v 0.139267h 4.53543v
 0.804914h 4.53543v 1.27346h 4.53543v 0.654632h 4.53543v 0.461862h 4.53543v 0.399703h 4.53543v 0.246667h 4.53543v 0.372558h 4.53543v 0.183328h 4.53543v 0.0983522h 4.53543v 0.771868h 4.53543v 0.0149495h 4.53543v 0.0413079h 4.53543v 0.0196704h 4.53543v
 0.0535036h 4.53543v 0.0456354h 4.53543v 0.0216375h 4.53543v 0.0188836h 4.53543v 0.00275386h 4.53543v 0.00550772h 4.53543v 0.0338332h 4.53543v 0.0314727h 4.53543v 0.0153429h 4.53543v 0.0216375h 4.53543v -0.00511431h 4.53543v 0.0617652h 18.1417"
 fill="none" stroke="#00ff00"/></svg>
