<?xml version="1.0" standalone="no"?>
<svg width="567.429" height="674.153" viewBox="0 0 567.429 674.153" xmlns="http://www.w3.org/2000/svg">
<title>
/exper-sw/cmst3/cmssw/users/olek/CMSSW_8_0_26_patch1/src/UserCode/NtuplerAnalyzer/frag_weights_sel1mu-1mu3j-1mu3j1b-1mu3j1b1t_fragUp_fragDown.svg
</title>
<desc>
Creator: ROOT Version 6.06/01
CreationDate: Fri Apr  6 16:35:39 2018</desc>
<defs>
</defs>
<rect x="0.5" y="0" width="566.929" height="673.653" fill="white"/>
<rect x="57.1929" y="67.3653" width="453.543" height="538.923" fill="white"/>
<rect x="57.1929" y="67.3653" width="453.543" height="538.923" fill="none" stroke="black"/>
<rect x="57.1929" y="67.3653" width="453.543" height="538.923" fill="white"/>
<rect x="57.1929" y="67.3653" width="453.543" height="538.923" fill="none" stroke="black"/>
<path d="M57.1929,606.288h 117.921v -25.9246h 4.53543v -41.0895h 4.53543v -60.195h 4.53543v -40.249h 4.53543v -36.8961h 4.53543v -39.6901h 4.53543v -28.3658h 4.53543v -27.2618h 4.53543v -48.2621h 4.53543v -43.0944h 4.53543v -20.9285h 4.53543v
 -19.325h 4.53543v -17.5756h 4.53543v -30.1749h 4.53543v -11.3869h 4.53543v 0.539392h 4.53543v -10.6733h 4.53543v 0.979714h 4.53543v -15.4466h 4.53543v 4.41511h 4.53543v 12.067h 4.53543v -8.16605h 4.53543v 16.8934h 4.53543v 6.07152h 4.53543v
 -18.2598h 4.53543v 25.7515h 4.53543v 0.9695h 4.53543v 0.778889h 4.53543v 1.79021h 4.53543v 3.55805h 4.53543v 1.76923h 4.53543v 2.22167h 4.53543v 0.9349h 4.53543v 0.627116h 4.53543v 1.98062h 4.53543v 6.78813h 4.53543v 6.41597h 4.53543v 6.82463h
 4.53543v 2.92309h 4.53543v 4.15175h 4.53543v 6.16263h 4.53543v 0.087479h 4.53543v 5.74248h 4.53543v 20.7962h 4.53543v 3.18303h 4.53543v 2.60372h 4.53543v 3.13616h 4.53543v 4.16022h 4.53543v 3.37961h 4.53543v 4.21029h 4.53543v 2.36321h 4.53543v
 2.9872h 4.53543v 3.49175h 4.53543v 2.08857h 4.53543v 2.96325h 4.53543v 3.91841h 4.53543v 6.29995h 4.53543v 6.80726h 4.53543v 4.59219h 4.53543v 7.74361h 4.53543v 3.61215h 4.53543v 4.39538h 4.53543v 2.82973h 4.53543v 5.08653h 4.53543v 3.43898h
 4.53543v 6.57969h 4.53543v 6.46994h 4.53543v 21.8184h 4.53543v 12.2505h 4.53543v 4.25345h 4.53543v 2.57619h 4.53543v 0.964832h 4.53543v 0.393012h 4.53543v 5.22069h 4.53543" fill="none" stroke="#0033ff"/>
<rect x="442.705" y="43.7875" width="113.386" height="107.785" fill="white"/>
<path d="M442.705,151.572h 113.386" fill="none" stroke="black"/>
<path d="M556.091,151.572v -107.785" fill="none" stroke="black"/>
<path d="M556.091,43.7875h -113.386" fill="none" stroke="black"/>
<path d="M442.705,43.7875v 107.785" fill="none" stroke="black"/>
<text x="446.43" y="60.4996" fill="black" font-size="12.9315" font-family="Helvetica">
frag_down_weight
</text>
<path d="M442.705,70.7336h 113.386" fill="none" stroke="black"/>
<text x="447.789" y="88.3702" fill="black" font-size="12.1017" font-family="Helvetica">
Entries 
</text>
<text x="501.491" y="88.3702" fill="black" font-size="12.1017" font-family="Helvetica">
 6026220
</text>
<text x="447.789" y="115.561" fill="black" font-size="12.1017" font-family="Helvetica">
Mean  
</text>
<text x="514.407" y="115.561" fill="black" font-size="12.1017" font-family="Helvetica">
  1.004
</text>
<text x="447.789" y="142.752" fill="black" font-size="12.1017" font-family="Helvetica">
Std Dev   
</text>
<text x="511.008" y="142.752" fill="black" font-size="12.1017" font-family="Helvetica">
 0.1804
</text>
<path d="M57.1929,606.288h 453.543" fill="none" stroke="black"/>
<path d="M57.1929,590.12v 16.1677" fill="none" stroke="black"/>
<path d="M68.5315,598.204v 8.08384" fill="none" stroke="black"/>
<path d="M79.8701,598.204v 8.08384" fill="none" stroke="black"/>
<path d="M91.2087,598.204v 8.08384" fill="none" stroke="black"/>
<path d="M102.547,590.12v 16.1677" fill="none" stroke="black"/>
<path d="M113.886,598.204v 8.08384" fill="none" stroke="black"/>
<path d="M125.224,598.204v 8.08384" fill="none" stroke="black"/>
<path d="M136.563,598.204v 8.08384" fill="none" stroke="black"/>
<path d="M147.902,590.12v 16.1677" fill="none" stroke="black"/>
<path d="M159.24,598.204v 8.08384" fill="none" stroke="black"/>
<path d="M170.579,598.204v 8.08384" fill="none" stroke="black"/>
<path d="M181.917,598.204v 8.08384" fill="none" stroke="black"/>
<path d="M193.256,590.12v 16.1677" fill="none" stroke="black"/>
<path d="M204.594,598.204v 8.08384" fill="none" stroke="black"/>
<path d="M215.933,598.204v 8.08384" fill="none" stroke="black"/>
<path d="M227.272,598.204v 8.08384" fill="none" stroke="black"/>
<path d="M238.61,590.12v 16.1677" fill="none" stroke="black"/>
<path d="M249.949,598.204v 8.08384" fill="none" stroke="black"/>
<path d="M261.287,598.204v 8.08384" fill="none" stroke="black"/>
<path d="M272.626,598.204v 8.08384" fill="none" stroke="black"/>
<path d="M283.965,590.12v 16.1677" fill="none" stroke="black"/>
<path d="M295.303,598.204v 8.08384" fill="none" stroke="black"/>
<path d="M306.642,598.204v 8.08384" fill="none" stroke="black"/>
<path d="M317.98,598.204v 8.08384" fill="none" stroke="black"/>
<path d="M329.319,590.12v 16.1677" fill="none" stroke="black"/>
<path d="M340.657,598.204v 8.08384" fill="none" stroke="black"/>
<path d="M351.996,598.204v 8.08384" fill="none" stroke="black"/>
<path d="M363.335,598.204v 8.08384" fill="none" stroke="black"/>
<path d="M374.673,590.12v 16.1677" fill="none" stroke="black"/>
<path d="M386.012,598.204v 8.08384" fill="none" stroke="black"/>
<path d="M397.35,598.204v 8.08384" fill="none" stroke="black"/>
<path d="M408.689,598.204v 8.08384" fill="none" stroke="black"/>
<path d="M420.028,590.12v 16.1677" fill="none" stroke="black"/>
<path d="M431.366,598.204v 8.08384" fill="none" stroke="black"/>
<path d="M442.705,598.204v 8.08384" fill="none" stroke="black"/>
<path d="M454.043,598.204v 8.08384" fill="none" stroke="black"/>
<path d="M465.382,590.12v 16.1677" fill="none" stroke="black"/>
<path d="M476.72,598.204v 8.08384" fill="none" stroke="black"/>
<path d="M488.059,598.204v 8.08384" fill="none" stroke="black"/>
<path d="M499.398,598.204v 8.08384" fill="none" stroke="black"/>
<path d="M510.736,590.12v 16.1677" fill="none" stroke="black"/>
<text x="52.1626" y="628.109" fill="black" font-size="18.7041" font-family="Helvetica">
0
</text>
<text x="89.55" y="628.109" fill="black" font-size="18.7041" font-family="Helvetica">
0.2
</text>
<text x="134.415" y="628.109" fill="black" font-size="18.7041" font-family="Helvetica">
0.4
</text>
<text x="179.96" y="628.109" fill="black" font-size="18.7041" font-family="Helvetica">
0.6
</text>
<text x="225.504" y="628.109" fill="black" font-size="18.7041" font-family="Helvetica">
0.8
</text>
<text x="280.566" y="628.109" fill="black" font-size="18.7041" font-family="Helvetica">
1
</text>
<text x="315.914" y="628.109" fill="black" font-size="18.7041" font-family="Helvetica">
1.2
</text>
<text x="361.458" y="628.109" fill="black" font-size="18.7041" font-family="Helvetica">
1.4
</text>
<text x="407.003" y="628.109" fill="black" font-size="18.7041" font-family="Helvetica">
1.6
</text>
<text x="451.868" y="628.109" fill="black" font-size="18.7041" font-family="Helvetica">
1.8
</text>
<text x="505.57" y="628.109" fill="black" font-size="18.7041" font-family="Helvetica">
2
</text>
<path d="M57.1929,606.288v -538.923" fill="none" stroke="black"/>
<path d="M63.9961,606.288h -6.80315" fill="none" stroke="black"/>
<path d="M63.9961,599.469h -6.80315" fill="none" stroke="black"/>
<path d="M63.9961,593.703h -6.80315" fill="none" stroke="black"/>
<path d="M63.9961,588.709h -6.80315" fill="none" stroke="black"/>
<path d="M63.9961,584.304h -6.80315" fill="none" stroke="black"/>
<path d="M70.7992,580.363h -13.6063" fill="none" stroke="black"/>
<text x="52.7709" y="589.715" text-anchor="end" fill="black" font-size="18.7041" font-family="Helvetica">
1
</text>
<path d="M63.9961,554.439h -6.80315" fill="none" stroke="black"/>
<path d="M63.9961,539.274h -6.80315" fill="none" stroke="black"/>
<path d="M63.9961,528.514h -6.80315" fill="none" stroke="black"/>
<path d="M63.9961,520.168h -6.80315" fill="none" stroke="black"/>
<path d="M63.9961,513.349h -6.80315" fill="none" stroke="black"/>
<path d="M63.9961,507.584h -6.80315" fill="none" stroke="black"/>
<path d="M63.9961,502.59h -6.80315" fill="none" stroke="black"/>
<path d="M63.9961,498.184h -6.80315" fill="none" stroke="black"/>
<path d="M70.7992,494.244h -13.6063" fill="none" stroke="black"/>
<text x="52.7709" y="503.596" text-anchor="end" fill="black" font-size="18.7041" font-family="Helvetica">
10
</text>
<path d="M63.9961,468.319h -6.80315" fill="none" stroke="black"/>
<path d="M63.9961,453.154h -6.80315" fill="none" stroke="black"/>
<path d="M63.9961,442.395h -6.80315" fill="none" stroke="black"/>
<path d="M63.9961,434.049h -6.80315" fill="none" stroke="black"/>
<path d="M63.9961,427.23h -6.80315" fill="none" stroke="black"/>
<path d="M63.9961,421.464h -6.80315" fill="none" stroke="black"/>
<path d="M63.9961,416.47h -6.80315" fill="none" stroke="black"/>
<path d="M63.9961,412.065h -6.80315" fill="none" stroke="black"/>
<path d="M70.7992,408.124h -13.6063" fill="none" stroke="black"/>
<text x="45.3649" y="408.542" fill="black" font-size="12.6361" font-family="Helvetica">
2
</text>
<text x="25.6515" y="416.7" fill="black" font-size="18.7041" font-family="Helvetica">
10
</text>
<path d="M63.9961,382.2h -6.80315" fill="none" stroke="black"/>
<path d="M63.9961,367.035h -6.80315" fill="none" stroke="black"/>
<path d="M63.9961,356.275h -6.80315" fill="none" stroke="black"/>
<path d="M63.9961,347.929h -6.80315" fill="none" stroke="black"/>
<path d="M63.9961,341.11h -6.80315" fill="none" stroke="black"/>
<path d="M63.9961,335.345h -6.80315" fill="none" stroke="black"/>
<path d="M63.9961,330.35h -6.80315" fill="none" stroke="black"/>
<path d="M63.9961,325.945h -6.80315" fill="none" stroke="black"/>
<path d="M70.7992,322.005h -13.6063" fill="none" stroke="black"/>
<text x="45.3649" y="321.532" fill="black" font-size="12.6361" font-family="Helvetica">
3
</text>
<text x="25.6515" y="330.369" fill="black" font-size="18.7041" font-family="Helvetica">
10
</text>
<path d="M63.9961,296.08h -6.80315" fill="none" stroke="black"/>
<path d="M63.9961,280.915h -6.80315" fill="none" stroke="black"/>
<path d="M63.9961,270.155h -6.80315" fill="none" stroke="black"/>
<path d="M63.9961,261.81h -6.80315" fill="none" stroke="black"/>
<path d="M63.9961,254.991h -6.80315" fill="none" stroke="black"/>
<path d="M63.9961,249.225h -6.80315" fill="none" stroke="black"/>
<path d="M63.9961,244.231h -6.80315" fill="none" stroke="black"/>
<path d="M63.9961,239.826h -6.80315" fill="none" stroke="black"/>
<path d="M70.7992,235.885h -13.6063" fill="none" stroke="black"/>
<text x="45.3649" y="236.56" fill="black" font-size="12.6361" font-family="Helvetica">
4
</text>
<text x="25.6515" y="244.718" fill="black" font-size="18.7041" font-family="Helvetica">
10
</text>
<path d="M63.9961,209.96h -6.80315" fill="none" stroke="black"/>
<path d="M63.9961,194.796h -6.80315" fill="none" stroke="black"/>
<path d="M63.9961,184.036h -6.80315" fill="none" stroke="black"/>
<path d="M63.9961,175.69h -6.80315" fill="none" stroke="black"/>
<path d="M63.9961,168.871h -6.80315" fill="none" stroke="black"/>
<path d="M63.9961,163.106h -6.80315" fill="none" stroke="black"/>
<path d="M63.9961,158.111h -6.80315" fill="none" stroke="black"/>
<path d="M63.9961,153.706h -6.80315" fill="none" stroke="black"/>
<path d="M70.7992,149.765h -13.6063" fill="none" stroke="black"/>
<text x="45.3649" y="149.55" fill="black" font-size="12.6361" font-family="Helvetica">
5
</text>
<text x="25.6515" y="158.387" fill="black" font-size="18.7041" font-family="Helvetica">
10
</text>
<path d="M63.9961,123.841h -6.80315" fill="none" stroke="black"/>
<path d="M63.9961,108.676h -6.80315" fill="none" stroke="black"/>
<path d="M63.9961,97.9164h -6.80315" fill="none" stroke="black"/>
<path d="M63.9961,89.5705h -6.80315" fill="none" stroke="black"/>
<path d="M63.9961,82.7515h -6.80315" fill="none" stroke="black"/>
<path d="M63.9961,76.986h -6.80315" fill="none" stroke="black"/>
<path d="M63.9961,71.9918h -6.80315" fill="none" stroke="black"/>
<path d="M63.9961,67.5866h -6.80315" fill="none" stroke="black"/>
<rect x="442.705" y="43.7875" width="113.386" height="107.785" fill="white"/>
<path d="M442.705,151.572h 113.386" fill="none" stroke="black"/>
<path d="M556.091,151.572v -107.785" fill="none" stroke="black"/>
<path d="M556.091,43.7875h -113.386" fill="none" stroke="black"/>
<path d="M442.705,43.7875v 107.785" fill="none" stroke="black"/>
<text x="446.43" y="60.4996" fill="black" font-size="12.9315" font-family="Helvetica">
frag_down_weight
</text>
<path d="M442.705,70.7336h 113.386" fill="none" stroke="black"/>
<text x="447.789" y="88.3702" fill="black" font-size="12.1017" font-family="Helvetica">
Entries 
</text>
<text x="501.491" y="88.3702" fill="black" font-size="12.1017" font-family="Helvetica">
 6026220
</text>
<text x="447.789" y="115.561" fill="black" font-size="12.1017" font-family="Helvetica">
Mean  
</text>
<text x="514.407" y="115.561" fill="black" font-size="12.1017" font-family="Helvetica">
  1.004
</text>
<text x="447.789" y="142.752" fill="black" font-size="12.1017" font-family="Helvetica">
Std Dev   
</text>
<text x="511.008" y="142.752" fill="black" font-size="12.1017" font-family="Helvetica">
 0.1804
</text>
<text x="103.145" y="26.5111" fill="black" font-size="11.9842" font-family="Helvetica">
gen_weight_FragDown / gen_weight_centralFrag {abs(leps_ID) == 13}
</text>
<path d="M57.1929,606.288h 117.921v -25.9246h 4.53543v -41.0895h 4.53543v -60.195h 4.53543v -40.249h 4.53543v -36.8961h 4.53543v -39.6901h 4.53543v -28.3658h 4.53543v -27.2618h 4.53543v -48.2553h 4.53543v -43.0991h 4.53543v -20.9294h 4.53543v
 -19.3189h 4.53543v -17.5572h 4.53543v -30.1174h 4.53543v -11.3836h 4.53543v 0.540497h 4.53543v -10.658h 4.53543v 1.07082h 4.53543v -14.9602h 4.53543v 4.37004h 4.53543v 11.9829h 4.53543v -7.97217h 4.53543v 16.6649h 4.53543v 6.05094h 4.53543v
 -17.0387h 4.53543v 24.441h 4.53543v 0.971997h 4.53543v 0.757158h 4.53543v 1.78822h 4.53543v 3.52314h 4.53543v 1.76653h 4.53543v 2.25447h 4.53543v 1.00677h 4.53543v 0.666482h 4.53543v 2.01584h 4.53543v 6.77353h 4.53543v 6.41601h 4.53543v 6.81095h
 4.53543v 2.96211h 4.53543v 4.16822h 4.53543v 6.58839h 4.53543v 0.16508h 4.53543v 5.67708h 4.53543v 20.0686h 4.53543v 3.18001h 4.53543v 2.59031h 4.53543v 3.16624h 4.53543v 4.12139h 4.53543v 3.39982h 4.53543v 4.2357h 4.53543v 2.39096h 4.53543v
 2.92828h 4.53543v 3.55263h 4.53543v 2.14477h 4.53543v 2.94457h 4.53543v 3.92552h 4.53543v 6.37172h 4.53543v 6.75729h 4.53543v 4.59085h 4.53543v 7.705h 4.53543v 3.71665h 4.53543v 4.2498h 4.53543v 3.08315h 4.53543v 5.15397h 4.53543v 3.4688h 4.53543v
 6.37877h 4.53543v 6.53397h 4.53543v 21.4954h 4.53543v 12.2184h 4.53543v 4.15373h 4.53543v 2.51687h 4.53543v 1.16082h 4.53543v 0.461343h 4.53543v 5.1081h 4.53543" fill="none" stroke="#3399ff"/>
<path d="M57.1929,606.288h 117.921v -25.9246h 4.53543v -41.0895h 4.53543v -60.195h 4.53543v -40.249h 4.53543v -36.2568h 4.53543v -40.3295h 4.53543v -28.3144h 4.53543v -27.1144h 4.53543v -48.1665h 4.53543v -43.0751h 4.53543v -20.8162h 4.53543v
 -19.3122h 4.53543v -17.4063h 4.53543v -29.9236h 4.53543v -11.2673h 4.53543v 0.59397h 4.53543v -10.3487h 4.53543v 1.3018h 4.53543v -14.007h 4.53543v 4.47069h 4.53543v 11.7535h 4.53543v -6.5849h 4.53543v 15.5963h 4.53543v 5.6139h 4.53543v -10.5167h
 4.53543v 17.0457h 4.53543v 0.911557h 4.53543v 0.704101h 4.53543v 1.8052h 4.53543v 3.41508h 4.53543v 1.84635h 4.53543v 2.26702h 4.53543v 1.10592h 4.53543v 0.792251h 4.53543v 2.05163h 4.53543v 6.78973h 4.53543v 6.39595h 4.53543v 6.83591h 4.53543v
 3.0288h 4.53543v 4.22721h 4.53543v 7.19199h 4.53543v 0.297964h 4.53543v 5.48246h 4.53543v 18.5485h 4.53543v 3.21893h 4.53543v 2.58687h 4.53543v 3.17976h 4.53543v 4.11721h 4.53543v 3.4627h 4.53543v 4.23037h 4.53543v 2.5082h 4.53543v 2.86842h 4.53543v
 3.59979h 4.53543v 2.07061h 4.53543v 3.00406h 4.53543v 3.90134h 4.53543v 6.29564h 4.53543v 6.96976h 4.53543v 4.56463h 4.53543v 7.67634h 4.53543v 3.85138h 4.53543v 4.33998h 4.53543v 2.89317h 4.53543v 5.32061h 4.53543v 3.40314h 4.53543v 6.32945h
 4.53543v 6.58926h 4.53543v 21.3203h 4.53543v 11.9547h 4.53543v 3.98262h 4.53543v 2.86883h 4.53543v 1.3194h 9.07087v 5.17694h 4.53543" fill="none" stroke="#0066cc"/>
<path d="M57.1929,606.288h 136.063v -25.9246h 4.53543v -41.0895h 4.53543v -25.9246h 4.53543v -19.1055h 4.53543v -50.9022h 4.53543v -51.6086h 4.53543v -16.5079h 4.53543v -15.9329h 4.53543v -15.8014h 4.53543v -30.8939h 4.53543v -10.8105h 4.53543v
 -1.32673h 4.53543v -7.63698h 4.53543v 0.327102h 4.53543v -19.9974h 4.53543v 3.96088h 4.53543v 10.801h 4.53543v -9.16658h 4.53543v 14.802h 4.53543v 0.0524684h 4.53543v -14.3212h 4.53543v 12.6107h 4.53543v -7.10497h 4.53543v -8.33202h 4.53543v
 -3.69527h 4.53543v -0.478105h 4.53543v -2.41444h 4.53543v -1.33069h 4.53543v -7.08375h 4.53543v -7.16567h 4.53543v -3.80088h 4.53543v 7.19227h 4.53543v 5.8224h 4.53543v 1.61527h 4.53543v 2.25671h 4.53543v 4.51498h 4.53543v -0.76579h 4.53543v
 1.35806h 4.53543v 2.94895h 4.53543v 17.0018h 4.53543v 1.31185h 4.53543v 0.745211h 4.53543v 3.06096h 4.53543v 2.20307h 4.53543v 2.6276h 4.53543v 0.422869h 4.53543v 3.00489h 4.53543v 0.194545h 4.53543v 2.31318h 4.53543v -1.22471h 4.53543v 2.19691h
 4.53543v 1.99557h 4.53543v 5.65795h 4.53543v 7.41833h 4.53543v 1.0912h 4.53543v 4.52847h 4.53543v 4.31277h 4.53543v 1.91843h 4.53543v 3.19473h 4.53543v 3.69h 4.53543v -2.96841h 4.53543v 8.10377h 4.53543v 9.18465h 4.53543v 15.2614h 4.53543v 8.4184h
 4.53543v 5.25452h 4.53543v 1.0596h 4.53543v 5.30258h 4.53543v -3.5422h 4.53543v 11.213h 4.53543" fill="none" stroke="#003366"/>
<path d="M57.1929,606.288h 40.8189v -51.8491h 4.53543v 51.8491h 9.07087v -51.8491h 4.53543v -51.8491h 4.53543v -30.3298h 4.53543v -2.02218h 4.53543v -33.0703h 4.53543v -80.0412h 4.53543v -30.9726h 4.53543v -19.3388h 4.53543v -13.4918h 4.53543v
 -8.57791h 4.53543v -8.56618h 4.53543v -7.13806h 4.53543v -27.2749h 4.53543v -21.7694h 4.53543v -7.51645h 4.53543v -12.4703h 4.53543v -10.5898h 4.53543v -4.50528h 4.53543v -2.73308h 4.53543v -5.27912h 4.53543v -3.88123h 4.53543v -2.15575h 4.53543v
 -12.0478h 4.53543v -10.8985h 4.53543v -2.09776h 4.53543v -4.02117h 4.53543v -3.13513h 4.53543v -6.2254h 4.53543v -4.26898h 4.53543v -0.31133h 4.53543v 1.32778h 4.53543v 1.34019h 4.53543v -1.1108h 4.53543v -1.12429h 4.53543v 0.420267h 4.53543v
 1.3263h 4.53543v 1.20783h 4.53543v 1.21351h 4.53543v -25.3048h 4.53543v 23.5717h 4.53543v -10.1551h 4.53543v -8.34057h 4.53543v 17.4981h 4.53543v -5.87758h 4.53543v -1.60522h 4.53543v -6.59804h 4.53543v -0.224806h 4.53543v 18.0705h 4.53543v 4.6882h
 4.53543v -3.21031h 4.53543v 2.87812h 4.53543v 13.6464h 4.53543v 4.51228h 4.53543v -0.744326h 4.53543v 3.09076h 4.53543v 3.96891h 4.53543v 10.3115h 4.53543v 18.4274h 4.53543v 15.402h 4.53543v 5.11537h 4.53543v 6.15937h 4.53543v 10.6983h 4.53543v
 12.0326h 4.53543v 7.3951h 4.53543v 5.81355h 4.53543v 6.67008h 4.53543v 9.23949h 4.53543v 12.3238h 4.53543v 18.7783h 4.53543v 23.0743h 4.53543v 22.9128h 4.53543v 11.6133h 4.53543v 8.74268h 4.53543v 8.50201h 4.53543v 9.37712h 4.53543v 11.164h 4.53543v
 4.91689h 4.53543v 7.12944h 4.53543v 7.88123h 4.53543v 17.3027h 4.53543v 3.05486h 4.53543v 14.3775h 4.53543v 7.76597h 4.53543v 18.1586h 4.53543v 17.5787h 9.07087v 3.94061h 4.53543v -10.7597h 4.53543" fill="none" stroke="#ff0000"/>
<path d="M57.1929,606.288h 40.8189v -51.8491h 4.53543v 51.8491h 9.07087v -51.8491h 4.53543v -51.8491h 4.53543v -30.3298h 4.53543v -2.02218h 4.53543v -33.0703h 4.53543v -79.8493h 4.53543v -30.9969h 4.53543v -19.2061h 4.53543v -13.705h 4.53543v
 -8.54036h 4.53543v -8.53659h 4.53543v -7.15577h 4.53543v -26.9887h 4.53543v -21.7293h 4.53543v -7.62736h 4.53543v -12.4764h 4.53543v -10.6155h 4.53543v -4.5533h 4.53543v -2.74245h 4.53543v -5.29278h 4.53543v -3.92684h 4.53543v -2.12815h 4.53543v
 -11.5983h 4.53543v -10.7324h 4.53543v -2.17949h 4.53543v -4.33616h 4.53543v -3.1203h 4.53543v -6.11511h 4.53543v -4.34397h 4.53543v -0.369898h 4.53543v 1.27619h 4.53543v 1.30976h 4.53543v -1.0604h 4.53543v -1.13287h 4.53543v 0.395118h 4.53543v
 1.31052h 4.53543v 1.23007h 4.53543v 1.22095h 4.53543v -23.8844h 4.53543v 22.2389h 4.53543v -9.99776h 4.53543v -8.20276h 4.53543v 17.1613h 4.53543v -5.73951h 4.53543v -1.68075h 4.53543v -6.41489h 4.53543v -0.179782h 4.53543v 17.6023h 4.53543v 4.5267h
 4.53543v -3.20363h 4.53543v 2.8714h 4.53543v 13.6341h 4.53543v 4.50893h 4.53543v -0.736804h 4.53543v 3.08755h 4.53543v 3.98529h 4.53543v 10.2837h 4.53543v 18.3953h 4.53543v 15.3688h 4.53543v 5.11271h 4.53543v 6.15812h 4.53543v 10.6937h 4.53543v
 12.0326h 4.53543v 7.3951h 4.53543v 5.81957h 4.53543v 6.67126h 4.53543v 9.2323h 4.53543v 12.3238h 4.53543v 18.7995h 4.53543v 23.0532h 4.53543v 22.9128h 4.53543v 11.6133h 4.53543v 8.74268h 4.53543v 8.50201h 4.53543v 9.37712h 4.53543v 11.164h 4.53543v
 4.91689h 4.53543v 7.12944h 4.53543v 7.88123h 4.53543v 17.3027h 4.53543v 3.05486h 4.53543v 14.3775h 4.53543v 7.76597h 4.53543v 18.1586h 4.53543v 17.5787h 9.07087v 3.94061h 4.53543v -10.7597h 4.53543" fill="none" stroke="#cc0000"/>
<path d="M57.1929,606.288h 40.8189v -51.8491h 4.53543v 51.8491h 9.07087v -51.8491h 4.53543v -51.8491h 4.53543v -30.3298h 4.53543v -2.02218h 4.53543v -33.0703h 4.53543v -79.5598h 4.53543v -30.6514h 4.53543v -19.4117h 4.53543v -13.6966h 4.53543v
 -8.49003h 4.53543v -8.51394h 4.53543v -7.24523h 4.53543v -26.5866h 4.53543v -21.5541h 4.53543v -7.71237h 4.53543v -12.5978h 4.53543v -10.6153h 4.53543v -4.5919h 4.53543v -2.84096h 4.53543v -5.31906h 4.53543v -3.88251h 4.53543v -2.15494h 4.53543v
 -10.7538h 4.53543v -10.2481h 4.53543v -2.32771h 4.53543v -4.69108h 4.53543v -3.13716h 4.53543v -6.05068h 4.53543v -4.40498h 4.53543v -0.478144h 4.53543v 1.18638h 4.53543v 1.25602h 4.53543v -0.995364h 4.53543v -1.09898h 4.53543v 0.366017h 4.53543v
 1.32225h 4.53543v 1.2842h 4.53543v 1.43936h 4.53543v -15.8297h 4.53543v 15.0407h 4.53543v -8.81745h 4.53543v -8.28105h 4.53543v 15.7875h 4.53543v -5.42961h 4.53543v -1.86244h 4.53543v -6.10293h 4.53543v -0.144149h 4.53543v 16.7344h 4.53543v 4.15068h
 4.53543v -3.25436h 4.53543v 2.79394h 4.53543v 13.3811h 4.53543v 4.52918h 4.53543v -0.825531h 4.53543v 3.0524h 4.53543v 3.97568h 4.53543v 10.2434h 4.53543v 18.2338h 4.53543v 15.219h 4.53543v 5.11193h 4.53543v 6.07876h 4.53543v 10.6859h 4.53543v
 11.9626h 4.53543v 7.47213h 4.53543v 5.73155h 4.53543v 6.70616h 4.53543v 9.28848h 4.53543v 12.3596h 4.53543v 18.6072h 4.53543v 22.8735h 4.53543v 22.94h 4.53543v 11.5672h 4.53543v 8.64387h 4.53543v 8.65883h 4.53543v 9.22031h 4.53543v 11.164h 4.53543v
 4.91689h 4.53543v 7.12944h 4.53543v 7.88123h 4.53543v 17.3027h 4.53543v 3.85922h 4.53543v 14.7606h 4.53543v 6.57853h 4.53543v 18.1586h 4.53543v 17.5787h 9.07087v 3.94061h 4.53543v -10.7597h 4.53543" fill="none" stroke="#990000"/>
<path d="M57.1929,606.288h 40.8189v -25.9246h 4.53543v 25.9246h 9.07087v -25.9246h 9.07087v -41.0895h 4.53543v -19.1055h 4.53543v -17.5787h 4.53543v -99.366h 4.53543v -34.139h 4.53543v -16.1184h 4.53543v -12.9616h 4.53543v -7.09041h 4.53543v
 -5.09424h 4.53543v -8.62444h 4.53543v -18.0142h 4.53543v -16.971h 4.53543v -0.149469h 4.53543v -8.22088h 4.53543v -6.95306h 4.53543v -1.65312h 4.53543v 1.9617h 4.53543v -1.90111h 4.53543v -0.923957h 4.53543v 1.15856h 4.53543v -6.9843h 4.53543v
 -5.22224h 4.53543v -0.654593h 4.53543v -0.375092h 4.53543v -0.594839h 4.53543v 0.0542353h 4.53543v -3.79318h 4.53543v 2.18205h 4.53543v 6.16516h 4.53543v 11.8867h 4.53543v 5.13893h 4.53543v 1.86027h 4.53543v 4.66997h 4.53543v 2.80027h 4.53543v
 6.71447h 4.53543v 7.5787h 4.53543v -12.7457h 4.53543v 22.7062h 4.53543v -7.84167h 4.53543v -7.88999h 4.53543v 16.2358h 4.53543v -3.41872h 4.53543v -0.484479h 4.53543v -6.60181h 4.53543v -0.975654h 4.53543v 24.4788h 4.53543v 5.01045h 4.53543v
 -4.32347h 4.53543v 2.71548h 4.53543v 12.3533h 4.53543v 3.75538h 4.53543v 1.76115h 4.53543v 4.91799h 9.07087v 8.4221h 4.53543v 23.8823h 4.53543v 8.25562h 4.53543v 9.43167h 4.53543v 8.4184h 4.53543v 13.392h 4.53543v 1.59178h 4.53543v 4.00089h 4.53543v
 11.164h 4.53543v 7.1457h 4.53543v 14.1934h 4.53543v 11.7312h 4.53543v 4.15998h 4.53543v 54.1166h 4.53543v 77.7737h 4.53543v -51.8491h 4.53543v 25.9246h 4.53543v -25.9246h 4.53543v 25.9246h 4.53543v 25.9246h 9.07087v -67.014h 4.53543v 67.014h
 4.53543v -51.8491h 4.53543v 25.9246h 4.53543v 25.9246h 31.748" fill="none" stroke="#660000"/></svg>
