<?xml version="1.0" standalone="no"?>
<svg width="567.429" height="674.153" viewBox="0 0 567.429 674.153" xmlns="http://www.w3.org/2000/svg">
<title>
/exper-sw/cmst3/cmssw/users/olek/CMSSW_8_0_26_patch1/src/UserCode/NtuplerAnalyzer/frag_weights_sel1mu1t_fragUp_fragDown.svg
</title>
<desc>
Creator: ROOT Version 6.06/01
CreationDate: Fri Apr  6 16:41:18 2018</desc>
<defs>
</defs>
<rect x="0.5" y="0" width="566.929" height="673.653" fill="white"/>
<rect x="57.1929" y="67.3653" width="453.543" height="538.923" fill="white"/>
<rect x="57.1929" y="67.3653" width="453.543" height="538.923" fill="none" stroke="black"/>
<rect x="57.1929" y="67.3653" width="453.543" height="538.923" fill="white"/>
<rect x="57.1929" y="67.3653" width="453.543" height="538.923" fill="none" stroke="black"/>
<path d="M57.1929,606.288h 40.8189v -0.0688016h 4.53543v 0.0688016h 9.07087v -0.0688016h 9.07087v -0.137603h 4.53543v -0.137603h 4.53543v -0.206405h 4.53543v -7.43057h 4.53543v -12.1091h 4.53543v -10.4578h 4.53543v -12.3155h 4.53543v -9.42581h
 4.53543v -8.11858h 4.53543v -14.5171h 4.53543v -50.2251h 4.53543v -76.8513h 4.53543v 1.10082h 4.53543v -47.1979h 4.53543v -52.4956h 4.53543v -12.1091h 4.53543v 17.682h 4.53543v -14.2419h 4.53543v -9.08181h 4.53543v 9.013h 4.53543v -104.991h 4.53543v
 -86.6212h 4.53543v -7.98098h 4.53543v 48.2299h 4.53543v -5.22892h 4.53543v 1.92644h 4.53543v -49.2619h 4.53543v 35.364h 4.53543v 75.2001h 4.53543v 115.724h 4.53543v 36.6712h 4.53543v 13.2787h 4.53543v 26.4886h 4.53543v 17.6132h 4.53543v 30.1351h
 4.53543v 29.1031h 4.53543v -121.297h 4.53543v 150.538h 4.53543v -27.9334h 4.53543v -33.5752h 4.53543v 63.0222h 4.53543v -11.3523h 4.53543v -0.550412h 4.53543v -25.1814h 4.53543v -5.09131h 4.53543v 72.9296h 4.53543v 9.97622h 4.53543v -6.81135h
 4.53543v 3.92169h 4.53543v 19.058h 4.53543v 4.2657h 4.53543v 2.06405h 4.53543v 4.2657h 4.53543v 0.275206h 4.53543v 7.77458h 4.53543v 12.8659h 4.53543v 3.09607h 4.53543v 2.40805h 4.53543v 1.92644h 4.53543v 1.99524h 4.53543v 0.275206h 4.53543v
 0.550412h 4.53543v 1.10082h 4.53543v 0.550412h 4.53543v 0.825619h 4.53543v 0.412809h 4.53543v 0.0688016h 4.53543v 1.03202h 4.53543v 0.275206h 4.53543v -0.137603h 4.53543v 0.0688016h 4.53543v -0.0688016h 4.53543v 0.0688016h 4.53543v 0.0688016h
 9.07087v -0.206405h 4.53543v 0.206405h 4.53543v -0.137603h 4.53543v 0.0688016h 4.53543v 0.0688016h 31.748" fill="none" stroke="#ff0000"/>
<rect x="442.705" y="43.7875" width="113.386" height="107.785" fill="white"/>
<path d="M442.705,151.572h 113.386" fill="none" stroke="black"/>
<path d="M556.091,151.572v -107.785" fill="none" stroke="black"/>
<path d="M556.091,43.7875h -113.386" fill="none" stroke="black"/>
<path d="M442.705,43.7875v 107.785" fill="none" stroke="black"/>
<text x="446.43" y="60.4996" fill="black" font-size="10.5384" font-family="Helvetica">
frag_up_weight_1mu1t
</text>
<path d="M442.705,70.7336h 113.386" fill="none" stroke="black"/>
<text x="447.789" y="88.3702" fill="black" font-size="12.5951" font-family="Helvetica">
Entries 
</text>
<text x="507.609" y="88.3702" fill="black" font-size="12.5951" font-family="Helvetica">
 151611
</text>
<text x="447.789" y="115.561" fill="black" font-size="12.5951" font-family="Helvetica">
Mean  
</text>
<text x="512.368" y="115.561" fill="black" font-size="12.5951" font-family="Helvetica">
  0.803
</text>
<text x="447.789" y="142.752" fill="black" font-size="12.5951" font-family="Helvetica">
Std Dev   
</text>
<text x="508.969" y="142.752" fill="black" font-size="12.5951" font-family="Helvetica">
 0.2057
</text>
<path d="M57.1929,606.288h 453.543" fill="none" stroke="black"/>
<path d="M57.1929,590.12v 16.1677" fill="none" stroke="black"/>
<path d="M68.5315,598.204v 8.08384" fill="none" stroke="black"/>
<path d="M79.8701,598.204v 8.08384" fill="none" stroke="black"/>
<path d="M91.2087,598.204v 8.08384" fill="none" stroke="black"/>
<path d="M102.547,590.12v 16.1677" fill="none" stroke="black"/>
<path d="M113.886,598.204v 8.08384" fill="none" stroke="black"/>
<path d="M125.224,598.204v 8.08384" fill="none" stroke="black"/>
<path d="M136.563,598.204v 8.08384" fill="none" stroke="black"/>
<path d="M147.902,590.12v 16.1677" fill="none" stroke="black"/>
<path d="M159.24,598.204v 8.08384" fill="none" stroke="black"/>
<path d="M170.579,598.204v 8.08384" fill="none" stroke="black"/>
<path d="M181.917,598.204v 8.08384" fill="none" stroke="black"/>
<path d="M193.256,590.12v 16.1677" fill="none" stroke="black"/>
<path d="M204.594,598.204v 8.08384" fill="none" stroke="black"/>
<path d="M215.933,598.204v 8.08384" fill="none" stroke="black"/>
<path d="M227.272,598.204v 8.08384" fill="none" stroke="black"/>
<path d="M238.61,590.12v 16.1677" fill="none" stroke="black"/>
<path d="M249.949,598.204v 8.08384" fill="none" stroke="black"/>
<path d="M261.287,598.204v 8.08384" fill="none" stroke="black"/>
<path d="M272.626,598.204v 8.08384" fill="none" stroke="black"/>
<path d="M283.965,590.12v 16.1677" fill="none" stroke="black"/>
<path d="M295.303,598.204v 8.08384" fill="none" stroke="black"/>
<path d="M306.642,598.204v 8.08384" fill="none" stroke="black"/>
<path d="M317.98,598.204v 8.08384" fill="none" stroke="black"/>
<path d="M329.319,590.12v 16.1677" fill="none" stroke="black"/>
<path d="M340.657,598.204v 8.08384" fill="none" stroke="black"/>
<path d="M351.996,598.204v 8.08384" fill="none" stroke="black"/>
<path d="M363.335,598.204v 8.08384" fill="none" stroke="black"/>
<path d="M374.673,590.12v 16.1677" fill="none" stroke="black"/>
<path d="M386.012,598.204v 8.08384" fill="none" stroke="black"/>
<path d="M397.35,598.204v 8.08384" fill="none" stroke="black"/>
<path d="M408.689,598.204v 8.08384" fill="none" stroke="black"/>
<path d="M420.028,590.12v 16.1677" fill="none" stroke="black"/>
<path d="M431.366,598.204v 8.08384" fill="none" stroke="black"/>
<path d="M442.705,598.204v 8.08384" fill="none" stroke="black"/>
<path d="M454.043,598.204v 8.08384" fill="none" stroke="black"/>
<path d="M465.382,590.12v 16.1677" fill="none" stroke="black"/>
<path d="M476.72,598.204v 8.08384" fill="none" stroke="black"/>
<path d="M488.059,598.204v 8.08384" fill="none" stroke="black"/>
<path d="M499.398,598.204v 8.08384" fill="none" stroke="black"/>
<path d="M510.736,590.12v 16.1677" fill="none" stroke="black"/>
<text x="52.1626" y="628.109" fill="black" font-size="18.7041" font-family="Helvetica">
0
</text>
<text x="89.55" y="628.109" fill="black" font-size="18.7041" font-family="Helvetica">
0.2
</text>
<text x="134.415" y="628.109" fill="black" font-size="18.7041" font-family="Helvetica">
0.4
</text>
<text x="179.96" y="628.109" fill="black" font-size="18.7041" font-family="Helvetica">
0.6
</text>
<text x="225.504" y="628.109" fill="black" font-size="18.7041" font-family="Helvetica">
0.8
</text>
<text x="280.566" y="628.109" fill="black" font-size="18.7041" font-family="Helvetica">
1
</text>
<text x="315.914" y="628.109" fill="black" font-size="18.7041" font-family="Helvetica">
1.2
</text>
<text x="361.458" y="628.109" fill="black" font-size="18.7041" font-family="Helvetica">
1.4
</text>
<text x="407.003" y="628.109" fill="black" font-size="18.7041" font-family="Helvetica">
1.6
</text>
<text x="451.868" y="628.109" fill="black" font-size="18.7041" font-family="Helvetica">
1.8
</text>
<text x="505.57" y="628.109" fill="black" font-size="18.7041" font-family="Helvetica">
2
</text>
<path d="M57.1929,606.288v -538.923" fill="none" stroke="black"/>
<path d="M70.7992,606.288h -13.6063" fill="none" stroke="black"/>
<path d="M63.9961,592.528h -6.80315" fill="none" stroke="black"/>
<path d="M63.9961,578.767h -6.80315" fill="none" stroke="black"/>
<path d="M63.9961,565.007h -6.80315" fill="none" stroke="black"/>
<path d="M63.9961,551.247h -6.80315" fill="none" stroke="black"/>
<path d="M70.7992,537.486h -13.6063" fill="none" stroke="black"/>
<path d="M63.9961,523.726h -6.80315" fill="none" stroke="black"/>
<path d="M63.9961,509.966h -6.80315" fill="none" stroke="black"/>
<path d="M63.9961,496.205h -6.80315" fill="none" stroke="black"/>
<path d="M63.9961,482.445h -6.80315" fill="none" stroke="black"/>
<path d="M70.7992,468.685h -13.6063" fill="none" stroke="black"/>
<path d="M63.9961,454.924h -6.80315" fill="none" stroke="black"/>
<path d="M63.9961,441.164h -6.80315" fill="none" stroke="black"/>
<path d="M63.9961,427.404h -6.80315" fill="none" stroke="black"/>
<path d="M63.9961,413.644h -6.80315" fill="none" stroke="black"/>
<path d="M70.7992,399.883h -13.6063" fill="none" stroke="black"/>
<path d="M63.9961,386.123h -6.80315" fill="none" stroke="black"/>
<path d="M63.9961,372.363h -6.80315" fill="none" stroke="black"/>
<path d="M63.9961,358.602h -6.80315" fill="none" stroke="black"/>
<path d="M63.9961,344.842h -6.80315" fill="none" stroke="black"/>
<path d="M70.7992,331.082h -13.6063" fill="none" stroke="black"/>
<path d="M63.9961,317.321h -6.80315" fill="none" stroke="black"/>
<path d="M63.9961,303.561h -6.80315" fill="none" stroke="black"/>
<path d="M63.9961,289.801h -6.80315" fill="none" stroke="black"/>
<path d="M63.9961,276.04h -6.80315" fill="none" stroke="black"/>
<path d="M70.7992,262.28h -13.6063" fill="none" stroke="black"/>
<path d="M63.9961,248.52h -6.80315" fill="none" stroke="black"/>
<path d="M63.9961,234.76h -6.80315" fill="none" stroke="black"/>
<path d="M63.9961,220.999h -6.80315" fill="none" stroke="black"/>
<path d="M63.9961,207.239h -6.80315" fill="none" stroke="black"/>
<path d="M70.7992,193.479h -13.6063" fill="none" stroke="black"/>
<path d="M63.9961,179.718h -6.80315" fill="none" stroke="black"/>
<path d="M63.9961,165.958h -6.80315" fill="none" stroke="black"/>
<path d="M63.9961,152.198h -6.80315" fill="none" stroke="black"/>
<path d="M63.9961,138.437h -6.80315" fill="none" stroke="black"/>
<path d="M70.7992,124.677h -13.6063" fill="none" stroke="black"/>
<path d="M70.7992,124.677h -13.6063" fill="none" stroke="black"/>
<path d="M63.9961,110.917h -6.80315" fill="none" stroke="black"/>
<path d="M63.9961,97.1564h -6.80315" fill="none" stroke="black"/>
<path d="M63.9961,83.3961h -6.80315" fill="none" stroke="black"/>
<path d="M63.9961,69.6358h -6.80315" fill="none" stroke="black"/>
<text x="44.6851" y="612.474" fill="black" font-size="18.7041" font-family="Helvetica">
0
</text>
<text x="14.0954" y="543.817" fill="black" font-size="18.7041" font-family="Helvetica">
1000
</text>
<text x="14.0954" y="475.16" fill="black" font-size="18.7041" font-family="Helvetica">
2000
</text>
<text x="14.0954" y="406.503" fill="black" font-size="18.7041" font-family="Helvetica">
3000
</text>
<text x="14.0954" y="337.846" fill="black" font-size="18.7041" font-family="Helvetica">
4000
</text>
<text x="14.0954" y="268.51" fill="black" font-size="18.7041" font-family="Helvetica">
5000
</text>
<text x="14.0954" y="199.853" fill="black" font-size="18.7041" font-family="Helvetica">
6000
</text>
<text x="14.0954" y="131.196" fill="black" font-size="18.7041" font-family="Helvetica">
7000
</text>
<rect x="442.705" y="43.7875" width="113.386" height="107.785" fill="white"/>
<path d="M442.705,151.572h 113.386" fill="none" stroke="black"/>
<path d="M556.091,151.572v -107.785" fill="none" stroke="black"/>
<path d="M556.091,43.7875h -113.386" fill="none" stroke="black"/>
<path d="M442.705,43.7875v 107.785" fill="none" stroke="black"/>
<text x="446.43" y="60.4996" fill="black" font-size="10.5384" font-family="Helvetica">
frag_up_weight_1mu1t
</text>
<path d="M442.705,70.7336h 113.386" fill="none" stroke="black"/>
<text x="447.789" y="88.3702" fill="black" font-size="12.5951" font-family="Helvetica">
Entries 
</text>
<text x="507.609" y="88.3702" fill="black" font-size="12.5951" font-family="Helvetica">
 151611
</text>
<text x="447.789" y="115.561" fill="black" font-size="12.5951" font-family="Helvetica">
Mean  
</text>
<text x="512.368" y="115.561" fill="black" font-size="12.5951" font-family="Helvetica">
  0.803
</text>
<text x="447.789" y="142.752" fill="black" font-size="12.5951" font-family="Helvetica">
Std Dev   
</text>
<text x="508.969" y="142.752" fill="black" font-size="12.5951" font-family="Helvetica">
 0.2057
</text>
<text x="92.2691" y="25.8313" fill="black" font-size="7.53563" font-family="Helvetica">
gen_weight_FragUp / gen_weight_centralFrag {abs(leps_ID) == 13 &amp;&amp; tau_IDlev[0] &gt; 2 &amp;&amp; tau_id[0] * lep_id[0] &lt; 0}
</text>
<path d="M57.1929,606.288h 136.063v -0.0688016h 4.53543v -0.137603h 4.53543v -0.206405h 4.53543v -0.275206h 4.53543v -1.99524h 4.53543v -8.04978h 4.53543v -6.19214h 4.53543v -8.60019h 4.53543v -13.9667h 4.53543v -51.1884h 4.53543v -31.7863h 4.53543v
 -3.85289h 4.53543v -30.9607h 4.53543v 2.06405h 4.53543v -122.811h 4.53543v 28.9655h 4.53543v 66.3247h 4.53543v -61.715h 4.53543v 85.3139h 4.53543v 1.99524h 4.53543v -135.126h 4.53543v 131.617h 4.53543v -34.4008h 4.53543v -46.3722h 4.53543v -26.7638h
 4.53543v -1.92644h 4.53543v -19.1268h 4.53543v -11.1459h 4.53543v -67.5631h 4.53543v -84.5571h 4.53543v -56.3485h 4.53543v 92.1253h 4.53543v 58.3437h 4.53543v 14.9299h 4.53543v 17.8884h 4.53543v 35.8456h 4.53543v -54.9724h 4.53543v 15.1363h 4.53543v
 37.428h 4.53543v 133.2h 4.53543v 5.02251h 4.53543v 3.99049h 4.53543v 11.0082h 4.53543v 8.39379h 4.53543v 9.08181h 4.53543v 1.51363h 4.53543v 7.56817h 4.53543v 0.963222h 4.53543v 6.67375h 4.53543v -2.06405h 4.53543v 5.22892h 4.53543v 5.64173h
 4.53543v 13.3475h 4.53543v 14.1043h 4.53543v 2.06405h 4.53543v 8.11858h 4.53543v 5.64173h 4.53543v 3.09607h 4.53543v 3.64648h 4.53543v 3.50888h 4.53543v -2.33925h 4.53543v 8.7378h 4.53543v 8.25619h 4.53543v 9.56342h 4.53543v 3.78409h 4.53543v
 1.78884h 4.53543v 0.275206h 4.53543v 1.30723h 4.53543v -0.550412h 4.53543v 3.02727h 4.53543" fill="none" stroke="#0033ff"/></svg>
