<?xml version="1.0" standalone="no"?>
<svg width="567.429" height="674.153" viewBox="0 0 567.429 674.153" xmlns="http://www.w3.org/2000/svg">
<title>
/exper-sw/cmst3/cmssw/users/olek/CMSSW_8_0_26_patch1/src/UserCode/NtuplerAnalyzer/frag_weights_sel1mu-1mu3j_fragUp_fragDown.svg
</title>
<desc>
Creator: ROOT Version 6.06/01
CreationDate: Fri Apr  6 16:16:08 2018</desc>
<defs>
</defs>
<rect x="0.5" y="0" width="566.929" height="673.653" fill="white"/>
<rect x="57.1929" y="67.3653" width="453.543" height="538.923" fill="white"/>
<rect x="57.1929" y="67.3653" width="453.543" height="538.923" fill="none" stroke="black"/>
<rect x="57.1929" y="67.3653" width="453.543" height="538.923" fill="white"/>
<rect x="57.1929" y="67.3653" width="453.543" height="538.923" fill="none" stroke="black"/>
<path d="M57.1929,606.288h 40.8189v -0.00328542h 4.53543v 0.00328542h 9.07087v -0.00328542h 4.53543v -0.00985626h 4.53543v -0.0164271h 4.53543v -0.00164271h 4.53543v -0.0443531h 4.53543v -0.566735h 4.53543v -0.827925h 4.53543v -0.995482h 4.53543v
 -1.07105h 4.53543v -0.911704h 4.53543v -1.14497h 4.53543v -1.17618h 4.53543v -7.26735h 4.53543v -11.085h 4.53543v -5.59178h 4.53543v -12.1544h 4.53543v -14.0304h 4.53543v -7.28377h 4.53543v -4.8657h 4.53543v -10.4673h 4.53543v -8.69486h 4.53543v
 -5.23367h 4.53543v -35.5137h 4.53543v -43.6254h 4.53543v -9.95646h 4.53543v -20.7195h 4.53543v -17.7725h 4.53543v -40.0295h 4.53543v -31.5647h 4.53543v -2.44599h 4.53543v 10.2916h 4.53543v 10.0238h 4.53543v -8.28254h 4.53543v -8.63737h 4.53543v
 3.25914h 4.53543v 10.0485h 4.53543v 8.84599h 4.53543v 8.60451h 4.53543v -252.341h 4.53543v 239.967h 4.53543v -85.255h 4.53543v -89.5736h 4.53543v 167.441h 4.53543v -47.7634h 4.53543v -14.4033h 4.53543v -66.1453h 4.53543v -2.46571h 4.53543v 157.656h
 4.53543v 29.9006h 4.53543v -20.0673h 4.53543v 18.0698h 4.53543v 69.0595h 4.53543v 17.825h 4.53543v -2.79425h 4.53543v 11.2476h 4.53543v 13.145h 4.53543v 28.2924h 4.53543v 34.671h 4.53543v 18.3803h 4.53543v 4.61108h 4.53543v 4.777h 4.53543v 6.63819h
 4.53543v 5.51458h 4.53543v 2.60698h 4.53543v 1.71663h 4.53543v 1.66735h 4.53543v 1.8694h 4.53543v 1.87269h 4.53543v 1.89404h 4.53543v 1.33717h 4.53543v 0.717864h 4.53543v 0.226694h 4.53543v 0.129774h 4.53543v 0.100205h 4.53543v 0.0870636h 4.53543v
 0.07885h 4.53543v 0.0279261h 4.53543v 0.0344969h 4.53543v 0.0312115h 4.53543v 0.0492813h 4.53543v 0.00657084h 4.53543v 0.0246406h 4.53543v 0.00985626h 4.53543v 0.0164271h 4.53543v 0.00985626h 9.07087v 0.00164271h 4.53543v -0.00492813h 4.53543"
 fill="none" stroke="#ff0000"/>
<rect x="442.705" y="43.7875" width="113.386" height="107.785" fill="white"/>
<path d="M442.705,151.572h 113.386" fill="none" stroke="black"/>
<path d="M556.091,151.572v -107.785" fill="none" stroke="black"/>
<path d="M556.091,43.7875h -113.386" fill="none" stroke="black"/>
<path d="M442.705,43.7875v 107.785" fill="none" stroke="black"/>
<text x="447.11" y="61.8592" fill="black" font-size="15.0741" font-family="Helvetica">
frag_up_weight
</text>
<path d="M442.705,70.7336h 113.386" fill="none" stroke="black"/>
<text x="447.789" y="88.3702" fill="black" font-size="12.1017" font-family="Helvetica">
Entries 
</text>
<text x="501.491" y="88.3702" fill="black" font-size="12.1017" font-family="Helvetica">
 6026220
</text>
<text x="447.789" y="115.561" fill="black" font-size="12.1017" font-family="Helvetica">
Mean  
</text>
<text x="514.407" y="115.561" fill="black" font-size="12.1017" font-family="Helvetica">
  1.004
</text>
<text x="447.789" y="142.752" fill="black" font-size="12.1017" font-family="Helvetica">
Std Dev   
</text>
<text x="513.047" y="142.752" fill="black" font-size="12.1017" font-family="Helvetica">
 0.2061
</text>
<path d="M57.1929,606.288h 453.543" fill="none" stroke="black"/>
<path d="M57.1929,590.12v 16.1677" fill="none" stroke="black"/>
<path d="M68.5315,598.204v 8.08384" fill="none" stroke="black"/>
<path d="M79.8701,598.204v 8.08384" fill="none" stroke="black"/>
<path d="M91.2087,598.204v 8.08384" fill="none" stroke="black"/>
<path d="M102.547,590.12v 16.1677" fill="none" stroke="black"/>
<path d="M113.886,598.204v 8.08384" fill="none" stroke="black"/>
<path d="M125.224,598.204v 8.08384" fill="none" stroke="black"/>
<path d="M136.563,598.204v 8.08384" fill="none" stroke="black"/>
<path d="M147.902,590.12v 16.1677" fill="none" stroke="black"/>
<path d="M159.24,598.204v 8.08384" fill="none" stroke="black"/>
<path d="M170.579,598.204v 8.08384" fill="none" stroke="black"/>
<path d="M181.917,598.204v 8.08384" fill="none" stroke="black"/>
<path d="M193.256,590.12v 16.1677" fill="none" stroke="black"/>
<path d="M204.594,598.204v 8.08384" fill="none" stroke="black"/>
<path d="M215.933,598.204v 8.08384" fill="none" stroke="black"/>
<path d="M227.272,598.204v 8.08384" fill="none" stroke="black"/>
<path d="M238.61,590.12v 16.1677" fill="none" stroke="black"/>
<path d="M249.949,598.204v 8.08384" fill="none" stroke="black"/>
<path d="M261.287,598.204v 8.08384" fill="none" stroke="black"/>
<path d="M272.626,598.204v 8.08384" fill="none" stroke="black"/>
<path d="M283.965,590.12v 16.1677" fill="none" stroke="black"/>
<path d="M295.303,598.204v 8.08384" fill="none" stroke="black"/>
<path d="M306.642,598.204v 8.08384" fill="none" stroke="black"/>
<path d="M317.98,598.204v 8.08384" fill="none" stroke="black"/>
<path d="M329.319,590.12v 16.1677" fill="none" stroke="black"/>
<path d="M340.657,598.204v 8.08384" fill="none" stroke="black"/>
<path d="M351.996,598.204v 8.08384" fill="none" stroke="black"/>
<path d="M363.335,598.204v 8.08384" fill="none" stroke="black"/>
<path d="M374.673,590.12v 16.1677" fill="none" stroke="black"/>
<path d="M386.012,598.204v 8.08384" fill="none" stroke="black"/>
<path d="M397.35,598.204v 8.08384" fill="none" stroke="black"/>
<path d="M408.689,598.204v 8.08384" fill="none" stroke="black"/>
<path d="M420.028,590.12v 16.1677" fill="none" stroke="black"/>
<path d="M431.366,598.204v 8.08384" fill="none" stroke="black"/>
<path d="M442.705,598.204v 8.08384" fill="none" stroke="black"/>
<path d="M454.043,598.204v 8.08384" fill="none" stroke="black"/>
<path d="M465.382,590.12v 16.1677" fill="none" stroke="black"/>
<path d="M476.72,598.204v 8.08384" fill="none" stroke="black"/>
<path d="M488.059,598.204v 8.08384" fill="none" stroke="black"/>
<path d="M499.398,598.204v 8.08384" fill="none" stroke="black"/>
<path d="M510.736,590.12v 16.1677" fill="none" stroke="black"/>
<text x="52.1626" y="628.109" fill="black" font-size="18.7041" font-family="Helvetica">
0
</text>
<text x="89.55" y="628.109" fill="black" font-size="18.7041" font-family="Helvetica">
0.2
</text>
<text x="134.415" y="628.109" fill="black" font-size="18.7041" font-family="Helvetica">
0.4
</text>
<text x="179.96" y="628.109" fill="black" font-size="18.7041" font-family="Helvetica">
0.6
</text>
<text x="225.504" y="628.109" fill="black" font-size="18.7041" font-family="Helvetica">
0.8
</text>
<text x="280.566" y="628.109" fill="black" font-size="18.7041" font-family="Helvetica">
1
</text>
<text x="315.914" y="628.109" fill="black" font-size="18.7041" font-family="Helvetica">
1.2
</text>
<text x="361.458" y="628.109" fill="black" font-size="18.7041" font-family="Helvetica">
1.4
</text>
<text x="407.003" y="628.109" fill="black" font-size="18.7041" font-family="Helvetica">
1.6
</text>
<text x="451.868" y="628.109" fill="black" font-size="18.7041" font-family="Helvetica">
1.8
</text>
<text x="505.57" y="628.109" fill="black" font-size="18.7041" font-family="Helvetica">
2
</text>
<path d="M57.1929,606.288v -538.923" fill="none" stroke="black"/>
<path d="M70.7992,606.288h -13.6063" fill="none" stroke="black"/>
<path d="M63.9961,589.861h -6.80315" fill="none" stroke="black"/>
<path d="M63.9961,573.434h -6.80315" fill="none" stroke="black"/>
<path d="M63.9961,557.007h -6.80315" fill="none" stroke="black"/>
<path d="M63.9961,540.58h -6.80315" fill="none" stroke="black"/>
<path d="M70.7992,524.152h -13.6063" fill="none" stroke="black"/>
<path d="M63.9961,507.725h -6.80315" fill="none" stroke="black"/>
<path d="M63.9961,491.298h -6.80315" fill="none" stroke="black"/>
<path d="M63.9961,474.871h -6.80315" fill="none" stroke="black"/>
<path d="M63.9961,458.444h -6.80315" fill="none" stroke="black"/>
<path d="M70.7992,442.017h -13.6063" fill="none" stroke="black"/>
<path d="M63.9961,425.59h -6.80315" fill="none" stroke="black"/>
<path d="M63.9961,409.163h -6.80315" fill="none" stroke="black"/>
<path d="M63.9961,392.736h -6.80315" fill="none" stroke="black"/>
<path d="M63.9961,376.309h -6.80315" fill="none" stroke="black"/>
<path d="M70.7992,359.882h -13.6063" fill="none" stroke="black"/>
<path d="M63.9961,343.454h -6.80315" fill="none" stroke="black"/>
<path d="M63.9961,327.027h -6.80315" fill="none" stroke="black"/>
<path d="M63.9961,310.6h -6.80315" fill="none" stroke="black"/>
<path d="M63.9961,294.173h -6.80315" fill="none" stroke="black"/>
<path d="M70.7992,277.746h -13.6063" fill="none" stroke="black"/>
<path d="M63.9961,261.319h -6.80315" fill="none" stroke="black"/>
<path d="M63.9961,244.892h -6.80315" fill="none" stroke="black"/>
<path d="M63.9961,228.465h -6.80315" fill="none" stroke="black"/>
<path d="M63.9961,212.038h -6.80315" fill="none" stroke="black"/>
<path d="M70.7992,195.611h -13.6063" fill="none" stroke="black"/>
<path d="M63.9961,179.183h -6.80315" fill="none" stroke="black"/>
<path d="M63.9961,162.756h -6.80315" fill="none" stroke="black"/>
<path d="M63.9961,146.329h -6.80315" fill="none" stroke="black"/>
<path d="M63.9961,129.902h -6.80315" fill="none" stroke="black"/>
<path d="M70.7992,113.475h -13.6063" fill="none" stroke="black"/>
<path d="M70.7992,113.475h -13.6063" fill="none" stroke="black"/>
<path d="M63.9961,97.048h -6.80315" fill="none" stroke="black"/>
<path d="M63.9961,80.6209h -6.80315" fill="none" stroke="black"/>
<text x="44.6851" y="612.474" fill="black" font-size="18.7041" font-family="Helvetica">
0
</text>
<text x="34.4886" y="530.901" fill="black" font-size="18.7041" font-family="Helvetica">
50
</text>
<text x="24.292" y="448.649" fill="black" font-size="18.7041" font-family="Helvetica">
100
</text>
<text x="24.292" y="366.397" fill="black" font-size="18.7041" font-family="Helvetica">
150
</text>
<text x="24.292" y="284.144" fill="black" font-size="18.7041" font-family="Helvetica">
200
</text>
<text x="24.292" y="201.892" fill="black" font-size="18.7041" font-family="Helvetica">
250
</text>
<text x="24.292" y="119.64" fill="black" font-size="18.7041" font-family="Helvetica">
300
</text>
<text x="86.8309" y="55.7412" fill="black" font-size="12.6361" font-family="Helvetica">
3
</text>
<text x="67.1176" y="64.5783" fill="black" font-size="18.7041" font-family="Helvetica">
10
</text>
<text x="56.921" y="64.5783" fill="black" font-size="18.7041" font-family="Times">
&#0215;
</text>
<rect x="442.705" y="43.7875" width="113.386" height="107.785" fill="white"/>
<path d="M442.705,151.572h 113.386" fill="none" stroke="black"/>
<path d="M556.091,151.572v -107.785" fill="none" stroke="black"/>
<path d="M556.091,43.7875h -113.386" fill="none" stroke="black"/>
<path d="M442.705,43.7875v 107.785" fill="none" stroke="black"/>
<text x="447.11" y="61.8592" fill="black" font-size="15.0741" font-family="Helvetica">
frag_up_weight
</text>
<path d="M442.705,70.7336h 113.386" fill="none" stroke="black"/>
<text x="447.789" y="88.3702" fill="black" font-size="12.1017" font-family="Helvetica">
Entries 
</text>
<text x="501.491" y="88.3702" fill="black" font-size="12.1017" font-family="Helvetica">
 6026220
</text>
<text x="447.789" y="115.561" fill="black" font-size="12.1017" font-family="Helvetica">
Mean  
</text>
<text x="514.407" y="115.561" fill="black" font-size="12.1017" font-family="Helvetica">
  1.004
</text>
<text x="447.789" y="142.752" fill="black" font-size="12.1017" font-family="Helvetica">
Std Dev   
</text>
<text x="513.047" y="142.752" fill="black" font-size="12.1017" font-family="Helvetica">
 0.2061
</text>
<text x="100.426" y="27.1908" fill="black" font-size="12.4723" font-family="Helvetica">
gen_weight_FragUp / gen_weight_centralFrag {abs(leps_ID) == 13}
</text>
<path d="M57.1929,606.288h 72.5669v -0.0755646h 4.53543v -0.563449h 4.53543v -0.82464h 4.53543v -0.98234h 4.53543v -1.08255h 4.53543v -0.905133h 4.53543v -1.13675h 4.53543v -1.17454h 4.53543v -7.13429h 4.53543v -10.9339h 4.53543v -5.61314h 4.53543v
 -12.0476h 4.53543v -13.94h 4.53543v -7.30349h 4.53543v -4.84763h 4.53543v -10.423h 4.53543v -8.74414h 4.53543v -5.13675h 4.53543v -33.7642h 4.53543v -42.0879h 4.53543v -10.124h 4.53543v -21.9844h 4.53543v -17.4735h 4.53543v -38.7761h 4.53543v
 -31.6616h 4.53543v -2.86981h 4.53543v 9.78233h 4.53543v 9.69855h 4.53543v -7.82587h 4.53543v -8.60944h 4.53543v 3.03244h 4.53543v 9.83161h 4.53543v 8.91991h 4.53543v 8.56837h 4.53543v -230.797h 4.53543v 219.183h 4.53543v -82.6874h 4.53543v -86.4459h
 4.53543v 161.531h 4.53543v -46.0139h 4.53543v -14.8665h 4.53543v -63.2985h 4.53543v -1.93511h 4.53543v 151.487h 4.53543v 28.7326h 4.53543v -19.9721h 4.53543v 17.9795h 4.53543v 68.8295h 4.53543v 17.7725h 4.53543v -2.75975h 4.53543v 11.2098h 4.53543v
 13.1663h 4.53543v 28.1495h 4.53543v 34.556h 4.53543v 18.3277h 4.53543v 4.6078h 4.53543v 4.77536h 4.53543v 6.6349h 4.53543v 5.51458h 4.53543v 2.60698h 4.53543v 1.71827h 4.53543v 1.66735h 4.53543v 1.86776h 4.53543v 1.87269h 4.53543v 1.89569h 4.53543v
 1.33552h 4.53543v 0.717864h 4.53543v 0.226694h 4.53543v 0.129774h 4.53543v 0.100205h 4.53543v 0.0870636h 4.53543v 0.07885h 4.53543v 0.0279261h 4.53543v 0.0344969h 4.53543v 0.0312115h 4.53543v 0.0492813h 4.53543v 0.00657084h 4.53543v 0.0772073h
 31.748" fill="none" stroke="#cc0000"/>
<path d="M57.1929,606.288h 131.528v -0.0722792h 4.53543v -0.12156h 4.53543v -0.366324h 4.53543v -0.635728h 4.53543v -1.28296h 4.53543v -6.52977h 4.53543v -19.5055h 4.53543v -21.3831h 4.53543v -33.7544h 4.53543v -50.1798h 4.53543v -166.045h 4.53543v
 -106.72h 4.53543v 5.82176h 4.53543v -132.36h 4.53543v 13.784h 4.53543v -19.5718" fill="none" stroke="#00ff00"/>
<path d="M265.823,67.3653v 33.7533" fill="none" stroke="#00ff00"/>
<path d="M265.823,101.119h 4.53543v -33.7533" fill="none" stroke="#00ff00"/>
<path d="M274.894,67.3653v 138.888" fill="none" stroke="#00ff00"/>
<path d="M274.894,206.254h 4.53543v 59.9425h 4.53543v -198.831" fill="none" stroke="#00ff00"/>
<path d="M288.5,67.3653v 260.564" fill="none" stroke="#00ff00"/>
<path d="M288.5,327.929h 4.53543v 7.12279h 4.53543v 5.59014h 4.53543v 12.4156h 4.53543v 22.9799h 4.53543v 10.6382h 4.53543v 12.6653h 4.53543v 5.10883h 4.53543v 3.35606h 4.53543v 10.2374h 4.53543v 31.2443h 4.53543v 24.7491h 4.53543v 22.0583h 4.53543v
 8.28418h 4.53543v 10.7072h 4.53543v 13.8546h 4.53543v 0.180698h 4.53543v 10.9832h 4.53543v 28.2283h 4.53543v 3.09651h 4.53543v 2.34415h 4.53543v 2.61519h 4.53543v 3.14743h 4.53543v 2.31129h 4.53543v 2.60205h 4.53543v 1.33717h 4.53543v 1.57372h
 4.53543v 1.68706h 4.53543v 0.936344h 4.53543v 1.24189h 4.53543v 1.49815h 4.53543v 2.10267h 4.53543v 1.90719h 4.53543v 1.1039h 4.53543v 1.58029h 4.53543v 0.632443h 4.53543v 0.691581h 4.53543v 0.404106h 4.53543v 0.653798h 4.53543v 0.39425h 4.53543v
 0.660369h 4.53543v 0.545379h 4.53543v 1.27639h 4.53543v 0.450102h 4.53543v 0.124846h 4.53543v 0.0689938h 4.53543v 0.0246406h 4.53543v 0.00985626h 4.53543v 0.12156h 4.53543" fill="none" stroke="#00ff00"/>
<path d="M57.1929,606.288h 131.528v -0.0722792h 4.53543v -0.12156h 4.53543v -0.366324h 4.53543v -0.635728h 4.53543v -1.28296h 4.53543v -6.52813h 4.53543v -19.5055h 4.53543v -21.3831h 4.53543v -33.7396h 4.53543v -50.1043h 4.53543v -165.47h 4.53543v
 -106.448h 4.53543v 5.82012h 4.53543v -131.832h 4.53543v 15.0061h 4.53543v -22.2593" fill="none" stroke="#00cc00"/>
<path d="M265.823,67.3653v 41.1455" fill="none" stroke="#00cc00"/>
<path d="M265.823,108.511h 4.53543v -41.1455" fill="none" stroke="#00cc00"/>
<path d="M274.894,67.3653v 144.377" fill="none" stroke="#00cc00"/>
<path d="M274.894,211.742h 4.53543v 58.9355h 4.53543v -193.669h 4.53543v 253.932h 4.53543v 7.06365h 4.53543v 5.37659h 4.53543v 12.2743h 4.53543v 22.5314h 4.53543v 10.5232h 4.53543v 12.7277h 4.53543v 5.44065h 4.53543v 3.52197h 4.53543v 10.2784h
 4.53543v 30.7466h 4.53543v 24.4123h 4.53543v 21.7183h 4.53543v 8.27925h 4.53543v 10.5938h 4.53543v 14.5133h 4.53543v 0.331827h 4.53543v 10.5643h 4.53543v 26.763h 4.53543v 3.07187h 4.53543v 2.31622h 4.53543v 2.62176h 4.53543v 3.09651h 4.53543v
 2.30965h 4.53543v 2.59877h 4.53543v 1.34209h 4.53543v 1.53101h 4.53543v 1.70349h 4.53543v 0.952771h 4.53543v 1.22218h 4.53543v 1.48665h 4.53543v 2.10431h 4.53543v 1.87269h 4.53543v 1.0924h 4.53543v 1.55729h 4.53543v 0.643942h 4.53543v 0.662012h
 4.53543v 0.435318h 4.53543v 0.652156h 4.53543v 0.390965h 4.53543v 0.6308h 4.53543v 0.543737h 4.53543v 1.24517h 4.53543v 0.446817h 4.53543v 0.12156h 4.53543v 0.0673511h 4.53543v 0.0295688h 4.53543v 0.011499h 4.53543v 0.118275h 4.53543" fill="none"
 stroke="#00cc00"/></svg>
