<?xml version="1.0" standalone="no"?>
<svg width="567.429" height="674.153" viewBox="0 0 567.429 674.153" xmlns="http://www.w3.org/2000/svg">
<title>
/exper-sw/cmst3/cmssw/users/olek/CMSSW_8_0_26_patch1/src/UserCode/NtuplerAnalyzer/frag_weights_sel1mu-1mu3j-1mu3j1b_fragUp_fragDown.svg
</title>
<desc>
Creator: ROOT Version 6.06/01
CreationDate: Fri Apr  6 16:21:27 2018</desc>
<defs>
</defs>
<rect x="0.5" y="0" width="566.929" height="673.653" fill="white"/>
<rect x="57.1929" y="67.3653" width="453.543" height="538.923" fill="white"/>
<rect x="57.1929" y="67.3653" width="453.543" height="538.923" fill="none" stroke="black"/>
<rect x="57.1929" y="67.3653" width="453.543" height="538.923" fill="white"/>
<rect x="57.1929" y="67.3653" width="453.543" height="538.923" fill="none" stroke="black"/>
<path d="M57.1929,606.288h 117.921v -0.00107417h 4.53543v -0.00214835h 4.53543v -0.0128901h 4.53543v -0.031151h 4.53543v -0.0794889h 4.53543v -0.239541h 4.53543v -0.415705h 4.53543v -0.83893h 4.53543v -4.26984h 4.53543v -12.7547h 4.53543v -13.9825h
 4.53543v -22.0721h 4.53543v -32.8128h 4.53543v -108.577h 4.53543v -69.7848h 4.53543v 3.80687h 4.53543v -86.5505h 4.53543v 9.01339h 4.53543v -173.654h 4.53543v 57.1493h 4.53543v 125.778h 4.53543v -80.6028h 4.53543v 149.351h 4.53543v 39.1966h 4.53543v
 -139.971h 4.53543v 180.339h 4.53543v 4.65762h 4.53543v 3.65541h 4.53543v 8.11861h 4.53543v 15.0266h 4.53543v 6.95635h 4.53543v 8.28188h 4.53543v 3.34068h 4.53543v 2.19454h 4.53543v 6.69425h 4.53543v 20.4308h 4.53543v 16.1835h 4.53543v 14.424h
 4.53543v 5.41706h 4.53543v 7.00146h 4.53543v 9.05958h 4.53543v 0.118159h 4.53543v 7.18193h 4.53543v 18.4586h 4.53543v 2.02482h 4.53543v 1.53285h 4.53543v 1.71008h 4.53543v 2.05812h 4.53543v 1.51136h 4.53543v 1.70149h 4.53543v 0.874377h 4.53543v
 1.02906h 4.53543v 1.10318h 4.53543v 0.612279h 4.53543v 0.812075h 4.53543v 0.979647h 4.53543v 1.37494h 4.53543v 1.24712h 4.53543v 0.721845h 4.53543v 1.03336h 4.53543v 0.413557h 4.53543v 0.452227h 4.53543v 0.264247h 4.53543v 0.427521h 4.53543v
 0.257802h 4.53543v 0.431818h 4.53543v 0.356626h 4.53543v 0.834633h 4.53543v 0.294324h 4.53543v 0.0816372h 4.53543v 0.0451153h 4.53543v 0.0161126h 4.53543v 0.00644504h 4.53543v 0.0794889h 4.53543" fill="none" stroke="#0033ff"/>
<rect x="442.705" y="43.7875" width="113.386" height="107.785" fill="white"/>
<path d="M442.705,151.572h 113.386" fill="none" stroke="black"/>
<path d="M556.091,151.572v -107.785" fill="none" stroke="black"/>
<path d="M556.091,43.7875h -113.386" fill="none" stroke="black"/>
<path d="M442.705,43.7875v 107.785" fill="none" stroke="black"/>
<text x="446.43" y="60.4996" fill="black" font-size="12.9315" font-family="Helvetica">
frag_down_weight
</text>
<path d="M442.705,70.7336h 113.386" fill="none" stroke="black"/>
<text x="447.789" y="88.3702" fill="black" font-size="12.1017" font-family="Helvetica">
Entries 
</text>
<text x="501.491" y="88.3702" fill="black" font-size="12.1017" font-family="Helvetica">
 6026220
</text>
<text x="447.789" y="115.561" fill="black" font-size="12.1017" font-family="Helvetica">
Mean  
</text>
<text x="514.407" y="115.561" fill="black" font-size="12.1017" font-family="Helvetica">
  1.004
</text>
<text x="447.789" y="142.752" fill="black" font-size="12.1017" font-family="Helvetica">
Std Dev   
</text>
<text x="511.008" y="142.752" fill="black" font-size="12.1017" font-family="Helvetica">
 0.1804
</text>
<path d="M57.1929,606.288h 453.543" fill="none" stroke="black"/>
<path d="M57.1929,590.12v 16.1677" fill="none" stroke="black"/>
<path d="M68.5315,598.204v 8.08384" fill="none" stroke="black"/>
<path d="M79.8701,598.204v 8.08384" fill="none" stroke="black"/>
<path d="M91.2087,598.204v 8.08384" fill="none" stroke="black"/>
<path d="M102.547,590.12v 16.1677" fill="none" stroke="black"/>
<path d="M113.886,598.204v 8.08384" fill="none" stroke="black"/>
<path d="M125.224,598.204v 8.08384" fill="none" stroke="black"/>
<path d="M136.563,598.204v 8.08384" fill="none" stroke="black"/>
<path d="M147.902,590.12v 16.1677" fill="none" stroke="black"/>
<path d="M159.24,598.204v 8.08384" fill="none" stroke="black"/>
<path d="M170.579,598.204v 8.08384" fill="none" stroke="black"/>
<path d="M181.917,598.204v 8.08384" fill="none" stroke="black"/>
<path d="M193.256,590.12v 16.1677" fill="none" stroke="black"/>
<path d="M204.594,598.204v 8.08384" fill="none" stroke="black"/>
<path d="M215.933,598.204v 8.08384" fill="none" stroke="black"/>
<path d="M227.272,598.204v 8.08384" fill="none" stroke="black"/>
<path d="M238.61,590.12v 16.1677" fill="none" stroke="black"/>
<path d="M249.949,598.204v 8.08384" fill="none" stroke="black"/>
<path d="M261.287,598.204v 8.08384" fill="none" stroke="black"/>
<path d="M272.626,598.204v 8.08384" fill="none" stroke="black"/>
<path d="M283.965,590.12v 16.1677" fill="none" stroke="black"/>
<path d="M295.303,598.204v 8.08384" fill="none" stroke="black"/>
<path d="M306.642,598.204v 8.08384" fill="none" stroke="black"/>
<path d="M317.98,598.204v 8.08384" fill="none" stroke="black"/>
<path d="M329.319,590.12v 16.1677" fill="none" stroke="black"/>
<path d="M340.657,598.204v 8.08384" fill="none" stroke="black"/>
<path d="M351.996,598.204v 8.08384" fill="none" stroke="black"/>
<path d="M363.335,598.204v 8.08384" fill="none" stroke="black"/>
<path d="M374.673,590.12v 16.1677" fill="none" stroke="black"/>
<path d="M386.012,598.204v 8.08384" fill="none" stroke="black"/>
<path d="M397.35,598.204v 8.08384" fill="none" stroke="black"/>
<path d="M408.689,598.204v 8.08384" fill="none" stroke="black"/>
<path d="M420.028,590.12v 16.1677" fill="none" stroke="black"/>
<path d="M431.366,598.204v 8.08384" fill="none" stroke="black"/>
<path d="M442.705,598.204v 8.08384" fill="none" stroke="black"/>
<path d="M454.043,598.204v 8.08384" fill="none" stroke="black"/>
<path d="M465.382,590.12v 16.1677" fill="none" stroke="black"/>
<path d="M476.72,598.204v 8.08384" fill="none" stroke="black"/>
<path d="M488.059,598.204v 8.08384" fill="none" stroke="black"/>
<path d="M499.398,598.204v 8.08384" fill="none" stroke="black"/>
<path d="M510.736,590.12v 16.1677" fill="none" stroke="black"/>
<text x="52.1626" y="628.109" fill="black" font-size="18.7041" font-family="Helvetica">
0
</text>
<text x="89.55" y="628.109" fill="black" font-size="18.7041" font-family="Helvetica">
0.2
</text>
<text x="134.415" y="628.109" fill="black" font-size="18.7041" font-family="Helvetica">
0.4
</text>
<text x="179.96" y="628.109" fill="black" font-size="18.7041" font-family="Helvetica">
0.6
</text>
<text x="225.504" y="628.109" fill="black" font-size="18.7041" font-family="Helvetica">
0.8
</text>
<text x="280.566" y="628.109" fill="black" font-size="18.7041" font-family="Helvetica">
1
</text>
<text x="315.914" y="628.109" fill="black" font-size="18.7041" font-family="Helvetica">
1.2
</text>
<text x="361.458" y="628.109" fill="black" font-size="18.7041" font-family="Helvetica">
1.4
</text>
<text x="407.003" y="628.109" fill="black" font-size="18.7041" font-family="Helvetica">
1.6
</text>
<text x="451.868" y="628.109" fill="black" font-size="18.7041" font-family="Helvetica">
1.8
</text>
<text x="505.57" y="628.109" fill="black" font-size="18.7041" font-family="Helvetica">
2
</text>
<path d="M57.1929,606.288v -538.923" fill="none" stroke="black"/>
<path d="M70.7992,606.288h -13.6063" fill="none" stroke="black"/>
<path d="M63.9961,584.804h -6.80315" fill="none" stroke="black"/>
<path d="M63.9961,563.321h -6.80315" fill="none" stroke="black"/>
<path d="M63.9961,541.837h -6.80315" fill="none" stroke="black"/>
<path d="M63.9961,520.354h -6.80315" fill="none" stroke="black"/>
<path d="M70.7992,498.87h -13.6063" fill="none" stroke="black"/>
<path d="M63.9961,477.387h -6.80315" fill="none" stroke="black"/>
<path d="M63.9961,455.904h -6.80315" fill="none" stroke="black"/>
<path d="M63.9961,434.42h -6.80315" fill="none" stroke="black"/>
<path d="M63.9961,412.937h -6.80315" fill="none" stroke="black"/>
<path d="M70.7992,391.453h -13.6063" fill="none" stroke="black"/>
<path d="M63.9961,369.97h -6.80315" fill="none" stroke="black"/>
<path d="M63.9961,348.486h -6.80315" fill="none" stroke="black"/>
<path d="M63.9961,327.003h -6.80315" fill="none" stroke="black"/>
<path d="M63.9961,305.519h -6.80315" fill="none" stroke="black"/>
<path d="M70.7992,284.036h -13.6063" fill="none" stroke="black"/>
<path d="M63.9961,262.552h -6.80315" fill="none" stroke="black"/>
<path d="M63.9961,241.069h -6.80315" fill="none" stroke="black"/>
<path d="M63.9961,219.585h -6.80315" fill="none" stroke="black"/>
<path d="M63.9961,198.102h -6.80315" fill="none" stroke="black"/>
<path d="M70.7992,176.618h -13.6063" fill="none" stroke="black"/>
<path d="M63.9961,155.135h -6.80315" fill="none" stroke="black"/>
<path d="M63.9961,133.651h -6.80315" fill="none" stroke="black"/>
<path d="M63.9961,112.168h -6.80315" fill="none" stroke="black"/>
<path d="M63.9961,90.6845h -6.80315" fill="none" stroke="black"/>
<path d="M70.7992,69.201h -13.6063" fill="none" stroke="black"/>
<path d="M70.7992,69.201h -13.6063" fill="none" stroke="black"/>
<text x="44.6851" y="612.474" fill="black" font-size="18.7041" font-family="Helvetica">
0
</text>
<text x="24.292" y="505.07" fill="black" font-size="18.7041" font-family="Helvetica">
100
</text>
<text x="24.292" y="397.666" fill="black" font-size="18.7041" font-family="Helvetica">
200
</text>
<text x="24.292" y="290.262" fill="black" font-size="18.7041" font-family="Helvetica">
300
</text>
<text x="24.292" y="182.858" fill="black" font-size="18.7041" font-family="Helvetica">
400
</text>
<text x="24.292" y="75.4546" fill="black" font-size="18.7041" font-family="Helvetica">
500
</text>
<text x="86.8309" y="55.7412" fill="black" font-size="12.6361" font-family="Helvetica">
3
</text>
<text x="67.1176" y="64.5783" fill="black" font-size="18.7041" font-family="Helvetica">
10
</text>
<text x="56.921" y="64.5783" fill="black" font-size="18.7041" font-family="Times">
&#0215;
</text>
<rect x="442.705" y="43.7875" width="113.386" height="107.785" fill="white"/>
<path d="M442.705,151.572h 113.386" fill="none" stroke="black"/>
<path d="M556.091,151.572v -107.785" fill="none" stroke="black"/>
<path d="M556.091,43.7875h -113.386" fill="none" stroke="black"/>
<path d="M442.705,43.7875v 107.785" fill="none" stroke="black"/>
<text x="446.43" y="60.4996" fill="black" font-size="12.9315" font-family="Helvetica">
frag_down_weight
</text>
<path d="M442.705,70.7336h 113.386" fill="none" stroke="black"/>
<text x="447.789" y="88.3702" fill="black" font-size="12.1017" font-family="Helvetica">
Entries 
</text>
<text x="501.491" y="88.3702" fill="black" font-size="12.1017" font-family="Helvetica">
 6026220
</text>
<text x="447.789" y="115.561" fill="black" font-size="12.1017" font-family="Helvetica">
Mean  
</text>
<text x="514.407" y="115.561" fill="black" font-size="12.1017" font-family="Helvetica">
  1.004
</text>
<text x="447.789" y="142.752" fill="black" font-size="12.1017" font-family="Helvetica">
Std Dev   
</text>
<text x="511.008" y="142.752" fill="black" font-size="12.1017" font-family="Helvetica">
 0.1804
</text>
<text x="103.145" y="26.5111" fill="black" font-size="11.9842" font-family="Helvetica">
gen_weight_FragDown / gen_weight_centralFrag {abs(leps_ID) == 13}
</text>
<path d="M57.1929,606.288h 136.063v -0.126753h 4.53543v -0.239541h 4.53543v -0.415705h 4.53543v -0.83893h 4.53543v -4.26877h 4.53543v -12.7547h 4.53543v -13.9825h 4.53543v -22.0625h 4.53543v -32.7634h 4.53543v -108.202h 4.53543v -69.6065h 4.53543v
 3.8058h 4.53543v -86.2057h 4.53543v 9.81258h 4.53543v -166.158h 4.53543v 55.5788h 4.53543v 122.928h 4.53543v -77.3298h 4.53543v 144.833h 4.53543v 38.5381h 4.53543v -126.641h 4.53543v 166.047h 4.53543v 4.61895h 4.53543v 3.51577h 4.53543v 8.02623h
 4.53543v 14.7334h 4.53543v 6.88116h 4.53543v 8.3227h 4.53543v 3.55766h 4.53543v 2.30303h 4.53543v 6.72111h 4.53543v 20.1053h 4.53543v 15.9633h 4.53543v 14.2017h 4.53543v 5.41384h 4.53543v 6.92735h 4.53543v 9.49033h 4.53543v 0.216983h 4.53543v
 6.90801h 4.53543v 17.5004h 4.53543v 2.0087h 4.53543v 1.51459h 4.53543v 1.71438h 4.53543v 2.02482h 4.53543v 1.51029h 4.53543v 1.69934h 4.53543v 0.8776h 4.53543v 1.00113h 4.53543v 1.11392h 4.53543v 0.623021h 4.53543v 0.799185h 4.53543v 0.972127h
 4.53543v 1.37602h 4.53543v 1.22456h 4.53543v 0.714326h 4.53543v 1.01832h 4.53543v 0.421076h 4.53543v 0.432892h 4.53543v 0.284656h 4.53543v 0.426447h 4.53543v 0.255653h 4.53543v 0.412483h 4.53543v 0.355552h 4.53543v 0.814224h 4.53543v 0.292175h
 4.53543v 0.0794889h 4.53543v 0.0440411h 4.53543v 0.0193351h 4.53543v 0.00751922h 4.53543v 0.0773405h 4.53543" fill="none" stroke="#3399ff"/>
<path d="M57.1929,606.288h 136.063v -0.124604h 4.53543v -0.241689h 4.53543v -0.414631h 4.53543v -0.831411h 4.53543v -4.23224h 4.53543v -12.6452h 4.53543v -13.7688h 4.53543v -21.8036h 4.53543v -32.0394h 4.53543v -105.534h 4.53543v -67.37h 4.53543v
 4.08079h 4.53543v -81.2602h 4.53543v 11.5001h 4.53543v -147.496h 4.53543v 53.1985h 4.53543v 112.986h 4.53543v -58.9077h 4.53543v 124.425h 4.53543v 33.5174h 4.53543v -67.2003h 4.53543v 100.351h 4.53543v 4.18498h 4.53543v 3.16344h 4.53543v 7.84362h
 4.53543v 13.8418h 4.53543v 6.97354h 4.53543v 8.10464h 4.53543v 3.77894h 4.53543v 2.63925h 4.53543v 6.58039h 4.53543v 19.3738h 4.53543v 15.2984h 4.53543v 13.7022h 4.53543v 5.31501h 4.53543v 6.734h 4.53543v 9.8448h 4.53543v 0.368442h 4.53543v 6.28069h
 4.53543v 15.5551h 4.53543v 1.99796h 4.53543v 1.48558h 4.53543v 1.69075h 4.53543v 1.98615h 4.53543v 1.50921h 4.53543v 1.6639h 4.53543v 0.901232h 4.53543v 0.959237h 4.53543v 1.10425h 4.53543v 0.588647h 4.53543v 0.798111h 4.53543v 0.945273h 4.53543v
 1.33198h 4.53543v 1.2353h 4.53543v 0.692842h 4.53543v 0.990388h 4.53543v 0.425373h 4.53543v 0.42967h 4.53543v 0.25995h 4.53543v 0.428595h 4.53543v 0.243837h 4.53543v 0.398518h 4.53543v 0.349106h 4.53543v 0.787369h 4.53543v 0.280359h 4.53543v
 0.0751922h 4.53543v 0.049412h 4.53543v 0.0214835h 9.07087v 0.0773405h 4.53543" fill="none" stroke="#0066cc"/>
<path d="M57.1929,606.288h 77.1024v -0.420002h 4.53543v -0.541384h 4.53543v -0.650949h 4.53543v -0.700361h 4.53543v -0.596166h 4.53543v -0.748699h 4.53543v -0.769108h 4.53543v -4.75214h 4.53543v -7.24852h 4.53543v -3.65649h 4.53543v -7.94781h
 4.53543v -9.17452h 4.53543v -4.76289h 4.53543v -3.1817h 4.53543v -6.84464h 4.53543v -5.6856h 4.53543v -3.42232h 4.53543v -23.2226h 4.53543v -28.5268h 4.53543v -6.51057h 4.53543v -13.5486h 4.53543v -11.6215h 4.53543v -26.1755h 4.53543v -20.6402h
 4.53543v -1.59944h 4.53543v 6.7297h 4.53543v 6.55461h 4.53543v -5.41598h 4.53543v -5.64801h 4.53543v 2.13116h 4.53543v 6.57072h 4.53543v 5.78443h 4.53543v 5.62652h 4.53543v -165.007h 4.53543v 156.915h 4.53543v -55.7485h 4.53543v -58.5725h 4.53543v
 109.491h 4.53543v -31.2327h 4.53543v -9.41836h 4.53543v -43.2527h 4.53543v -1.61233h 4.53543v 103.092h 4.53543v 19.5521h 4.53543v -13.1221h 4.53543v 11.8159h 4.53543v 45.1583h 4.53543v 11.6559h 4.53543v -1.82717h 4.53543v 7.35487h 4.53543v 8.59554h
 4.53543v 18.5005h 4.53543v 22.6715h 4.53543v 12.0189h 4.53543v 3.01521h 4.53543v 3.1237h 4.53543v 4.34074h 4.53543v 3.606h 4.53543v 1.70471h 4.53543v 1.12251h 4.53543v 1.09029h 4.53543v 1.22241h 4.53543v 1.22456h 4.53543v 1.23852h 4.53543v 0.874377h
 4.53543v 0.469414h 4.53543v 0.148236h 4.53543v 0.0848597h 4.53543v 0.0655246h 4.53543v 0.0569312h 4.53543v 0.0515603h 4.53543v 0.018261h 4.53543v 0.0225576h 4.53543v 0.0204093h 4.53543v 0.0322252h 4.53543v 0.0547829h 36.2835" fill="none"
 stroke="#ff0000"/>
<path d="M57.1929,606.288h 77.1024v -0.417854h 4.53543v -0.539235h 4.53543v -0.642356h 4.53543v -0.707881h 4.53543v -0.59187h 4.53543v -0.743328h 4.53543v -0.768034h 4.53543v -4.66514h 4.53543v -7.1497h 4.53543v -3.67045h 4.53543v -7.87799h 4.53543v
 -9.11544h 4.53543v -4.77578h 4.53543v -3.16989h 4.53543v -6.81563h 4.53543v -5.71783h 4.53543v -3.35894h 4.53543v -22.0786h 4.53543v -27.5214h 4.53543v -6.62013h 4.53543v -14.3757h 4.53543v -11.426h 4.53543v -25.3559h 4.53543v -20.7036h 4.53543v
 -1.87658h 4.53543v 6.39671h 4.53543v 6.34192h 4.53543v -5.11736h 4.53543v -5.62975h 4.53543v 1.98292h 4.53543v 6.42893h 4.53543v 5.83276h 4.53543v 5.60289h 4.53543v -150.919h 4.53543v 143.325h 4.53543v -54.0696h 4.53543v -56.5273h 4.53543v 105.626h
 4.53543v -30.0887h 4.53543v -9.72127h 4.53543v -41.3911h 4.53543v -1.26538h 4.53543v 99.0582h 4.53543v 18.7884h 4.53543v -13.0598h 4.53543v 11.7568h 4.53543v 45.0079h 4.53543v 11.6215h 4.53543v -1.80461h 4.53543v 7.33016h 4.53543v 8.6095h 4.53543v
 18.407h 4.53543v 22.5963h 4.53543v 11.9846h 4.53543v 3.01306h 4.53543v 3.12262h 4.53543v 4.33859h 4.53543v 3.606h 4.53543v 1.70471h 4.53543v 1.12359h 4.53543v 1.09029h 4.53543v 1.22134h 4.53543v 1.22456h 4.53543v 1.2396h 4.53543v 0.873303h 4.53543v
 0.469414h 4.53543v 0.148236h 4.53543v 0.0848597h 4.53543v 0.0655246h 4.53543v 0.0569312h 4.53543v 0.0515603h 4.53543v 0.018261h 4.53543v 0.0225576h 4.53543v 0.0204093h 4.53543v 0.0322252h 4.53543v 0.0547829h 36.2835" fill="none" stroke="#cc0000"/>
<path d="M57.1929,606.288h 77.1024v -0.414631h 4.53543v -0.526345h 4.53543v -0.640208h 4.53543v -0.699287h 4.53543v -0.581128h 4.53543v -0.731512h 4.53543v -0.768034h 4.53543v -4.5169h 4.53543v -6.91983h 4.53543v -3.61782h 4.53543v -7.77594h 4.53543v
 -8.92424h 4.53543v -4.71777h 4.53543v -3.22252h 4.53543v -6.73292h 4.53543v -5.55563h 4.53543v -3.34175h 4.53543v -19.883h 4.53543v -25.082h 4.53543v -6.72003h 4.53543v -14.8827h 4.53543v -11.0468h 4.53543v -24.1098h 4.53543v -20.1751h 4.53543v
 -2.33633h 4.53543v 5.74253h 4.53543v 5.88432h 4.53543v -4.64688h 4.53543v -5.27634h 4.53543v 1.77454h 4.53543v 6.2678h 4.53543v 5.87895h 4.53543v 6.35374h 4.53543v -85.3281h 4.53543v 81.8757h 4.53543v -43.9724h 4.53543v -51.889h 4.53543v 89.961h
 4.53543v -26.763h 4.53543v -10.1123h 4.53543v -36.8968h 4.53543v -0.946347h 4.53543v 88.745h 4.53543v 16.5197h 4.53543v -12.7956h 4.53543v 11.0522h 4.53543v 42.8574h 4.53543v 11.3637h 4.53543v -1.97003h 4.53543v 7.07236h 4.53543v 8.38715h 4.53543v
 17.9161h 4.53543v 21.9421h 4.53543v 11.6752h 4.53543v 2.97009h 4.53543v 3.04206h 4.53543v 4.2838h 4.53543v 3.54585h 4.53543v 1.70364h 4.53543v 1.09458h 4.53543v 1.08492h 4.53543v 1.21489h 4.53543v 1.21274h 4.53543v 1.21382h 4.53543v 0.861487h
 4.53543v 0.46834h 4.53543v 0.147162h 4.53543v 0.0837856h 4.53543v 0.0665988h 4.53543v 0.055857h 4.53543v 0.0515603h 4.53543v 0.018261h 4.53543v 0.0225576h 4.53543v 0.0204093h 4.53543v 0.0322252h 4.53543v 0.0547829h 36.2835" fill="none"
 stroke="#990000"/></svg>
