<?xml version="1.0" standalone="no"?>
<svg width="567.429" height="674.153" viewBox="0 0 567.429 674.153" xmlns="http://www.w3.org/2000/svg">
<title>
/exper-sw/cmst3/cmssw/users/olek/CMSSW_8_0_26_patch1/src/UserCode/NtuplerAnalyzer/frag_weights_sel-tt-mutau-tt-muj_fragUp_fragDown.svg
</title>
<desc>
Creator: ROOT Version 6.06/01
CreationDate: Fri Apr  6 16:53:12 2018</desc>
<defs>
</defs>
<rect x="0.5" y="0" width="566.929" height="673.653" fill="white"/>
<rect x="57.1929" y="67.3653" width="453.543" height="538.923" fill="white"/>
<rect x="57.1929" y="67.3653" width="453.543" height="538.923" fill="none" stroke="black"/>
<rect x="57.1929" y="67.3653" width="453.543" height="538.923" fill="white"/>
<rect x="57.1929" y="67.3653" width="453.543" height="538.923" fill="none" stroke="black"/>
<path d="M57.1929,606.288h 40.8189v -0.00193623h 4.53543v 0.00193623h 13.6063v -0.00193623h 4.53543v -0.00387246h 9.07087v -0.0154898h 4.53543v -0.0348521h 4.53543v -0.0580869h 4.53543v -0.11811h 4.53543v -0.158771h 4.53543v -0.180069h 4.53543v
 -0.238156h 4.53543v -0.276881h 4.53543v -4.04672h 4.53543v -6.59673h 4.53543v -4.50948h 4.53543v -8.89504h 4.53543v -10.4363h 4.53543v -6.0604h 4.53543v -6.26177h 4.53543v -9.54755h 4.53543v -8.44971h 4.53543v -6.02942h 4.53543v -30.4995h 4.53543v
 -39.2745h 4.53543v -10.9378h 4.53543v -22.2724h 4.53543v -18.1889h 4.53543v -39.6579h 4.53543v -28.5361h 4.53543v -6.38568h 4.53543v 2.63908h 4.53543v 2.73783h 4.53543v -10.6222h 4.53543v -10.6163h 4.53543v 0.393055h 4.53543v 8.18444h 4.53543v
 5.87258h 4.53543v 6.7555h 4.53543v -250.931h 4.53543v 233.821h 4.53543v -87.8796h 4.53543v -88.9368h 4.53543v 167.211h 4.53543v -48.185h 4.53543v -19.0041h 4.53543v -61.2565h 4.53543v 0.431779h 4.53543v 147.312h 4.53543v 28.0443h 4.53543v -20.8706h
 4.53543v 19.2229h 4.53543v 73.6251h 4.53543v 18.7563h 4.53543v -3.09409h 4.53543v 12.4074h 4.53543v 14.7637h 4.53543v 29.4868h 4.53543v 34.7185h 4.53543v 19.1454h 4.53543v 5.29365h 4.53543v 6.01586h 4.53543v 7.86109h 4.53543v 6.80004h 4.53543v
 3.15605h 4.53543v 2.09306h 4.53543v 1.90331h 4.53543v 2.33316h 4.53543v 2.2983h 4.53543v 2.23828h 4.53543v 1.6729h 4.53543v 0.791918h 4.53543v 0.280753h 4.53543v 0.211049h 4.53543v 0.0968115h 4.53543v 0.143281h 4.53543v 0.0755129h 4.53543v
 0.0348521h 4.53543v 0.0271072h 4.53543v 0.042597h 4.53543v 0.0716405h 4.53543v -0.00774492h 4.53543v 0.0329159h 4.53543v 0.0193623h 4.53543v 0.0232348h 4.53543v 0.00968115h 4.53543v -0.00193623h 4.53543v 0.00193623h 4.53543v -0.00387246h 4.53543"
 fill="none" stroke="#cc0000"/>
<rect x="442.705" y="43.7875" width="113.386" height="107.785" fill="white"/>
<path d="M442.705,151.572h 113.386" fill="none" stroke="black"/>
<path d="M556.091,151.572v -107.785" fill="none" stroke="black"/>
<path d="M556.091,43.7875h -113.386" fill="none" stroke="black"/>
<path d="M442.705,43.7875v 107.785" fill="none" stroke="black"/>
<text x="446.43" y="60.4996" fill="black" font-size="11.19" font-family="Helvetica">
frag_up_weight_ttmuj
</text>
<path d="M442.705,70.7336h 113.386" fill="none" stroke="black"/>
<text x="447.789" y="88.3702" fill="black" font-size="12.1017" font-family="Helvetica">
Entries 
</text>
<text x="501.491" y="88.3702" fill="black" font-size="12.1017" font-family="Helvetica">
 4985363
</text>
<text x="447.789" y="115.561" fill="black" font-size="12.1017" font-family="Helvetica">
Mean  
</text>
<text x="514.407" y="115.561" fill="black" font-size="12.1017" font-family="Helvetica">
  1.026
</text>
<text x="447.789" y="142.752" fill="black" font-size="12.1017" font-family="Helvetica">
Std Dev   
</text>
<text x="514.407" y="142.752" fill="black" font-size="12.1017" font-family="Helvetica">
  0.199
</text>
<path d="M57.1929,606.288h 453.543" fill="none" stroke="black"/>
<path d="M57.1929,590.12v 16.1677" fill="none" stroke="black"/>
<path d="M68.5315,598.204v 8.08384" fill="none" stroke="black"/>
<path d="M79.8701,598.204v 8.08384" fill="none" stroke="black"/>
<path d="M91.2087,598.204v 8.08384" fill="none" stroke="black"/>
<path d="M102.547,590.12v 16.1677" fill="none" stroke="black"/>
<path d="M113.886,598.204v 8.08384" fill="none" stroke="black"/>
<path d="M125.224,598.204v 8.08384" fill="none" stroke="black"/>
<path d="M136.563,598.204v 8.08384" fill="none" stroke="black"/>
<path d="M147.902,590.12v 16.1677" fill="none" stroke="black"/>
<path d="M159.24,598.204v 8.08384" fill="none" stroke="black"/>
<path d="M170.579,598.204v 8.08384" fill="none" stroke="black"/>
<path d="M181.917,598.204v 8.08384" fill="none" stroke="black"/>
<path d="M193.256,590.12v 16.1677" fill="none" stroke="black"/>
<path d="M204.594,598.204v 8.08384" fill="none" stroke="black"/>
<path d="M215.933,598.204v 8.08384" fill="none" stroke="black"/>
<path d="M227.272,598.204v 8.08384" fill="none" stroke="black"/>
<path d="M238.61,590.12v 16.1677" fill="none" stroke="black"/>
<path d="M249.949,598.204v 8.08384" fill="none" stroke="black"/>
<path d="M261.287,598.204v 8.08384" fill="none" stroke="black"/>
<path d="M272.626,598.204v 8.08384" fill="none" stroke="black"/>
<path d="M283.965,590.12v 16.1677" fill="none" stroke="black"/>
<path d="M295.303,598.204v 8.08384" fill="none" stroke="black"/>
<path d="M306.642,598.204v 8.08384" fill="none" stroke="black"/>
<path d="M317.98,598.204v 8.08384" fill="none" stroke="black"/>
<path d="M329.319,590.12v 16.1677" fill="none" stroke="black"/>
<path d="M340.657,598.204v 8.08384" fill="none" stroke="black"/>
<path d="M351.996,598.204v 8.08384" fill="none" stroke="black"/>
<path d="M363.335,598.204v 8.08384" fill="none" stroke="black"/>
<path d="M374.673,590.12v 16.1677" fill="none" stroke="black"/>
<path d="M386.012,598.204v 8.08384" fill="none" stroke="black"/>
<path d="M397.35,598.204v 8.08384" fill="none" stroke="black"/>
<path d="M408.689,598.204v 8.08384" fill="none" stroke="black"/>
<path d="M420.028,590.12v 16.1677" fill="none" stroke="black"/>
<path d="M431.366,598.204v 8.08384" fill="none" stroke="black"/>
<path d="M442.705,598.204v 8.08384" fill="none" stroke="black"/>
<path d="M454.043,598.204v 8.08384" fill="none" stroke="black"/>
<path d="M465.382,590.12v 16.1677" fill="none" stroke="black"/>
<path d="M476.72,598.204v 8.08384" fill="none" stroke="black"/>
<path d="M488.059,598.204v 8.08384" fill="none" stroke="black"/>
<path d="M499.398,598.204v 8.08384" fill="none" stroke="black"/>
<path d="M510.736,590.12v 16.1677" fill="none" stroke="black"/>
<text x="52.1626" y="628.109" fill="black" font-size="18.7041" font-family="Helvetica">
0
</text>
<text x="89.55" y="628.109" fill="black" font-size="18.7041" font-family="Helvetica">
0.2
</text>
<text x="134.415" y="628.109" fill="black" font-size="18.7041" font-family="Helvetica">
0.4
</text>
<text x="179.96" y="628.109" fill="black" font-size="18.7041" font-family="Helvetica">
0.6
</text>
<text x="225.504" y="628.109" fill="black" font-size="18.7041" font-family="Helvetica">
0.8
</text>
<text x="280.566" y="628.109" fill="black" font-size="18.7041" font-family="Helvetica">
1
</text>
<text x="315.914" y="628.109" fill="black" font-size="18.7041" font-family="Helvetica">
1.2
</text>
<text x="361.458" y="628.109" fill="black" font-size="18.7041" font-family="Helvetica">
1.4
</text>
<text x="407.003" y="628.109" fill="black" font-size="18.7041" font-family="Helvetica">
1.6
</text>
<text x="451.868" y="628.109" fill="black" font-size="18.7041" font-family="Helvetica">
1.8
</text>
<text x="505.57" y="628.109" fill="black" font-size="18.7041" font-family="Helvetica">
2
</text>
<path d="M57.1929,606.288v -538.923" fill="none" stroke="black"/>
<path d="M70.7992,606.288h -13.6063" fill="none" stroke="black"/>
<path d="M63.9961,586.926h -6.80315" fill="none" stroke="black"/>
<path d="M63.9961,567.563h -6.80315" fill="none" stroke="black"/>
<path d="M63.9961,548.201h -6.80315" fill="none" stroke="black"/>
<path d="M63.9961,528.839h -6.80315" fill="none" stroke="black"/>
<path d="M70.7992,509.476h -13.6063" fill="none" stroke="black"/>
<path d="M63.9961,490.114h -6.80315" fill="none" stroke="black"/>
<path d="M63.9961,470.752h -6.80315" fill="none" stroke="black"/>
<path d="M63.9961,451.39h -6.80315" fill="none" stroke="black"/>
<path d="M63.9961,432.027h -6.80315" fill="none" stroke="black"/>
<path d="M70.7992,412.665h -13.6063" fill="none" stroke="black"/>
<path d="M63.9961,393.303h -6.80315" fill="none" stroke="black"/>
<path d="M63.9961,373.94h -6.80315" fill="none" stroke="black"/>
<path d="M63.9961,354.578h -6.80315" fill="none" stroke="black"/>
<path d="M63.9961,335.216h -6.80315" fill="none" stroke="black"/>
<path d="M70.7992,315.853h -13.6063" fill="none" stroke="black"/>
<path d="M63.9961,296.491h -6.80315" fill="none" stroke="black"/>
<path d="M63.9961,277.129h -6.80315" fill="none" stroke="black"/>
<path d="M63.9961,257.767h -6.80315" fill="none" stroke="black"/>
<path d="M63.9961,238.404h -6.80315" fill="none" stroke="black"/>
<path d="M70.7992,219.042h -13.6063" fill="none" stroke="black"/>
<path d="M63.9961,199.68h -6.80315" fill="none" stroke="black"/>
<path d="M63.9961,180.317h -6.80315" fill="none" stroke="black"/>
<path d="M63.9961,160.955h -6.80315" fill="none" stroke="black"/>
<path d="M63.9961,141.593h -6.80315" fill="none" stroke="black"/>
<path d="M70.7992,122.231h -13.6063" fill="none" stroke="black"/>
<path d="M70.7992,122.231h -13.6063" fill="none" stroke="black"/>
<path d="M63.9961,102.868h -6.80315" fill="none" stroke="black"/>
<path d="M63.9961,83.5059h -6.80315" fill="none" stroke="black"/>
<text x="44.6851" y="612.474" fill="black" font-size="18.7041" font-family="Helvetica">
0
</text>
<text x="34.4886" y="515.946" fill="black" font-size="18.7041" font-family="Helvetica">
50
</text>
<text x="24.292" y="419.419" fill="black" font-size="18.7041" font-family="Helvetica">
100
</text>
<text x="24.292" y="322.212" fill="black" font-size="18.7041" font-family="Helvetica">
150
</text>
<text x="24.292" y="225.684" fill="black" font-size="18.7041" font-family="Helvetica">
200
</text>
<text x="24.292" y="128.477" fill="black" font-size="18.7041" font-family="Helvetica">
250
</text>
<text x="86.8309" y="55.7412" fill="black" font-size="12.6361" font-family="Helvetica">
3
</text>
<text x="67.1176" y="64.5783" fill="black" font-size="18.7041" font-family="Helvetica">
10
</text>
<text x="56.921" y="64.5783" fill="black" font-size="18.7041" font-family="Times">
&#0215;
</text>
<rect x="442.705" y="43.7875" width="113.386" height="107.785" fill="white"/>
<path d="M442.705,151.572h 113.386" fill="none" stroke="black"/>
<path d="M556.091,151.572v -107.785" fill="none" stroke="black"/>
<path d="M556.091,43.7875h -113.386" fill="none" stroke="black"/>
<path d="M442.705,43.7875v 107.785" fill="none" stroke="black"/>
<text x="446.43" y="60.4996" fill="black" font-size="11.19" font-family="Helvetica">
frag_up_weight_ttmuj
</text>
<path d="M442.705,70.7336h 113.386" fill="none" stroke="black"/>
<text x="447.789" y="88.3702" fill="black" font-size="12.1017" font-family="Helvetica">
Entries 
</text>
<text x="501.491" y="88.3702" fill="black" font-size="12.1017" font-family="Helvetica">
 4985363
</text>
<text x="447.789" y="115.561" fill="black" font-size="12.1017" font-family="Helvetica">
Mean  
</text>
<text x="514.407" y="115.561" fill="black" font-size="12.1017" font-family="Helvetica">
  1.026
</text>
<text x="447.789" y="142.752" fill="black" font-size="12.1017" font-family="Helvetica">
Std Dev   
</text>
<text x="514.407" y="142.752" fill="black" font-size="12.1017" font-family="Helvetica">
  0.199
</text>
<text x="89.55" y="23.792" fill="black" font-size="4.9527" font-family="Helvetica">
gen_weight_FragUp / gen_weight_centralFrag {(abs(gen_t_w_decay_id) == 1 &amp;&amp; abs(gen_tb_w_decay_id) == 13) || (abs(gen_tb_w_decay_id) == 1 &amp;&amp; abs(gen_t_w_decay_id) == 13)}
</text>
<path d="M57.1929,606.288h 77.1024v -0.660254h 4.53543v -0.908092h 4.53543v -1.04169h 4.53543v -1.09591h 4.53543v -0.931326h 4.53543v -1.02233h 4.53543v -1.11333h 4.53543v -3.40583h 4.53543v -5.00515h 4.53543v -1.77746h 4.53543v -3.44262h 4.53543v
 -4.50561h 4.53543v -1.33406h 4.53543v 1.01071h 4.53543v -1.05137h 4.53543v -1.01071h 4.53543v 0.667999h 4.53543v -5.08841h 4.53543v -4.08157h 4.53543v -1.27404h 4.53543v -0.505356h 4.53543v 0.187814h 4.53543v -0.147153h 4.53543v -4.55788h 4.53543v
 1.97302h 4.53543v 5.8416h 4.53543v 7.07305h 4.53543v 2.53065h 4.53543v 1.88589h 4.53543v 1.86072h 4.53543v 1.53156h 4.53543v 3.04763h 4.53543v 2.672h 4.53543v -4.11642h 4.53543v 6.49992h 4.53543v -1.84716h 4.53543v -3.10184h 4.53543v 5.90356h
 4.53543v -1.3844h 4.53543v -0.0793854h 4.53543v -2.27507h 4.53543v -0.00580869h 4.53543v 5.58409h 4.53543v 1.27985h 4.53543v -0.722214h 4.53543v 0.613785h 4.53543v 2.24796h 4.53543v 0.569251h 4.53543v 0.1336h 4.53543v 0.271072h 4.53543v 0.367884h
 4.53543v 0.989413h 4.53543v 1.34374h 4.53543v 0.646701h 4.53543v 0.166516h 4.53543v 0.0716405h 4.53543v 0.0948752h 4.53543v 0.108429h 4.53543v 0.0638956h 4.53543v 0.050342h 4.53543v 0.050342h 4.53543v -0.00387246h 4.53543v 0.0387246h 4.53543v
 0.0387246h 4.53543v 0.0793854h 86.1732" fill="none" stroke="#ff0000"/>
<rect x="442.705" y="43.7875" width="113.386" height="107.785" fill="white"/>
<path d="M442.705,151.572h 113.386" fill="none" stroke="black"/>
<path d="M556.091,151.572v -107.785" fill="none" stroke="black"/>
<path d="M556.091,43.7875h -113.386" fill="none" stroke="black"/>
<path d="M442.705,43.7875v 107.785" fill="none" stroke="black"/>
<text x="447.789" y="59.8199" fill="black" font-size="10.0774" font-family="Helvetica">
frag_up_weight_ttmutau
</text>
<path d="M442.705,70.7336h 113.386" fill="none" stroke="black"/>
<text x="447.789" y="88.3702" fill="black" font-size="12.5951" font-family="Helvetica">
Entries 
</text>
<text x="507.609" y="88.3702" fill="black" font-size="12.5951" font-family="Helvetica">
 467311
</text>
<text x="447.789" y="115.561" fill="black" font-size="12.5951" font-family="Helvetica">
Mean  
</text>
<text x="512.368" y="115.561" fill="black" font-size="12.5951" font-family="Helvetica">
  0.819
</text>
<text x="447.789" y="142.752" fill="black" font-size="12.5951" font-family="Helvetica">
Std Dev   
</text>
<text x="508.969" y="142.752" fill="black" font-size="12.5951" font-family="Helvetica">
 0.2132
</text>
<path d="M57.1929,606.288h 149.669v -0.0561507h 4.53543v -0.180069h 4.53543v -0.511165h 4.53543v -0.520846h 4.53543v -0.611849h 4.53543v -1.33793h 4.53543v -6.64127h 4.53543v -3.68271h 4.53543v -0.0716405h 4.53543v -4.30424h 4.53543v 0.137472h
 4.53543v -9.99482h 4.53543v 2.7417h 4.53543v 5.65573h 4.53543v -4.43397h 4.53543v 6.7284h 4.53543v 0.952625h 4.53543v -5.8842h 4.53543v 4.96643h 4.53543v -2.89273h 4.53543v -4.32554h 4.53543v -2.01368h 4.53543v 0.294307h 4.53543v -1.37085h 4.53543v
 -1.63224h 4.53543v -2.77655h 4.53543v -4.28681h 4.53543v -2.87143h 4.53543v 5.58021h 4.53543v 4.73408h 4.53543v 1.81618h 4.53543v 1.54317h 4.53543v 2.05821h 4.53543v 0.0135536h 4.53543v 1.03395h 4.53543v 2.26152h 4.53543v 6.33728h 4.53543v 0.72415h
 4.53543v -0.025171h 4.53543v 0.9139h 4.53543v 0.607976h 4.53543v 0.921645h 4.53543v 0.455014h 4.53543v 0.396927h 4.53543v 0.443397h 4.53543v 0.509228h 4.53543v -0.0580869h 4.53543v 0.511165h 4.53543v 0.57506h 4.53543v 1.03588h 4.53543v 0.89841h
 4.53543v 0.381437h 4.53543v 0.766747h 4.53543v 0.364011h 4.53543v 0.362075h 4.53543v 0.156835h 4.53543v 0.340776h 4.53543v 0.123919h 4.53543v 0.59055h 4.53543v 0.358202h 4.53543v 0.714469h 4.53543v 0.259455h 4.53543v 0.135536h 4.53543v 0.0561507h
 4.53543v -0.00387246h 4.53543v 0.067768h 4.53543v 0.0948752h 4.53543" fill="none" stroke="#0033ff"/>
<path d="M57.1929,606.288h 131.528v -0.092939h 4.53543v -0.168452h 4.53543v -0.404672h 4.53543v -0.791918h 4.53543v -1.61094h 4.53543v -7.81462h 4.53543v -23.3045h 4.53543v -25.6628h 4.53543v -41.2823h 4.53543v -55.9357h 4.53543v -166.316h 4.53543v
 -110.954h 4.53543v 5.35948h 4.53543v -109.943" fill="none" stroke="#3399ff"/>
<path d="M265.823,67.3653v 24.6484" fill="none" stroke="#3399ff"/>
<path d="M265.823,92.0137h 4.53543v -24.6484" fill="none" stroke="#3399ff"/>
<path d="M274.894,67.3653v 133.691" fill="none" stroke="#3399ff"/>
<path d="M274.894,201.056h 4.53543v 63.9885h 4.53543v -197.68" fill="none" stroke="#3399ff"/>
<path d="M288.5,67.3653v 262.944" fill="none" stroke="#3399ff"/>
<path d="M288.5,330.309h 4.53543v 11.0501h 4.53543v 10.6861h 4.53543v 14.9186h 4.53543v 22.9056h 4.53543v 13.4781h 4.53543v 14.6185h 4.53543v 9.26292h 4.53543v 8.78274h 4.53543v 12.9553h 4.53543v 26.3579h 4.53543v 20.8513h 4.53543v 21.1804h 4.53543v
 7.17954h 4.53543v 9.60176h 4.53543v 14.5391h 4.53543v 0.0174261h 4.53543v 8.97636h 4.53543v 21.8407h 4.53543v 2.74364h 4.53543v 2.25958h 4.53543v 1.76971h 4.53543v 2.88885h 4.53543v 1.68258h 4.53543v 1.81812h 4.53543v 1.16948h 4.53543v 1.21402h
 4.53543v 1.32244h 4.53543v 0.952625h 4.53543v 0.840324h 4.53543v 1.17529h 4.53543v 1.11527h 4.53543v 1.07461h 4.53543v 0.79579h 4.53543v 0.993286h 4.53543v 0.35433h 4.53543v 0.311733h 4.53543v 0.311733h 4.53543v 0.325287h 4.53543v 0.36982h 4.53543v
 0.135536h 4.53543v 0.214921h 4.53543v 0.578933h 4.53543v 0.218794h 4.53543v 0.00387246h 4.53543v 0.0290434h 4.53543v 0.00580869h 4.53543v 0.00774492h 4.53543v 0.00774492h 4.53543" fill="none" stroke="#3399ff"/></svg>
