<?xml version="1.0" standalone="no"?>
<svg width="567.429" height="674.153" viewBox="0 0 567.429 674.153" xmlns="http://www.w3.org/2000/svg">
<title>
/exper-sw/cmst3/cmssw/users/olek/CMSSW_8_0_26_patch1/src/UserCode/NtuplerAnalyzer/studies/effect-pu-on-mt_difference-mutau-lj-red_sel.svg
</title>
<desc>
Creator: ROOT Version 6.06/01
CreationDate: Mon Apr  9 13:14:49 2018</desc>
<defs>
</defs>
<rect x="0.5" y="0" width="566.929" height="673.653" fill="white"/>
<rect x="57.1929" y="67.3653" width="453.543" height="538.923" fill="white"/>
<rect x="57.1929" y="67.3653" width="453.543" height="538.923" fill="none" stroke="black"/>
<rect x="57.1929" y="67.3653" width="453.543" height="538.923" fill="white"/>
<rect x="57.1929" y="67.3653" width="453.543" height="538.923" fill="none" stroke="black"/>
<path d="M68.5315,381.702v -71.69" fill="none" stroke="#000099"/>
<path d="M68.5315,310.012v -71.69" fill="none" stroke="#000099"/>
<path d="M57.1929,310.012h 11.3386" fill="none" stroke="#000099"/>
<path d="M68.5315,310.012h 11.3386" fill="none" stroke="#000099"/>
<g stroke="black" stroke-width="1" fill="none">
<line x1="67.5315" y1="310.012" x2="68.5315" y2="310.012"/>
</g>
<path d="M91.2087,392.013v -70.4216" fill="none" stroke="#000099"/>
<path d="M91.2087,321.592v -70.4216" fill="none" stroke="#000099"/>
<path d="M79.8701,321.592h 11.3386" fill="none" stroke="#000099"/>
<path d="M91.2087,321.592h 11.3386" fill="none" stroke="#000099"/>
<g stroke="black" stroke-width="1" fill="none">
<line x1="90.2087" y1="321.592" x2="91.2087" y2="321.592"/>
</g>
<path d="M113.886,373.092v -66.1577" fill="none" stroke="#000099"/>
<path d="M113.886,306.935v -66.1577" fill="none" stroke="#000099"/>
<path d="M102.547,306.935h 11.3386" fill="none" stroke="#000099"/>
<path d="M113.886,306.935h 11.3386" fill="none" stroke="#000099"/>
<g stroke="black" stroke-width="1" fill="none">
<line x1="112.886" y1="306.935" x2="113.886" y2="306.935"/>
</g>
<path d="M136.563,374.083v -60.3954" fill="none" stroke="#000099"/>
<path d="M136.563,313.688v -60.3954" fill="none" stroke="#000099"/>
<path d="M125.224,313.688h 11.3386" fill="none" stroke="#000099"/>
<path d="M136.563,313.688h 11.3386" fill="none" stroke="#000099"/>
<g stroke="black" stroke-width="1" fill="none">
<line x1="135.563" y1="313.688" x2="136.563" y2="313.688"/>
</g>
<path d="M159.24,367.314v -56.9049" fill="none" stroke="#000099"/>
<path d="M159.24,310.409v -56.9049" fill="none" stroke="#000099"/>
<path d="M147.902,310.409h 11.3386" fill="none" stroke="#000099"/>
<path d="M159.24,310.409h 11.3386" fill="none" stroke="#000099"/>
<g stroke="black" stroke-width="1" fill="none">
<line x1="158.24" y1="310.409" x2="159.24" y2="310.409"/>
</g>
<path d="M181.917,382.467v -53.2949" fill="none" stroke="#000099"/>
<path d="M181.917,329.172v -53.2949" fill="none" stroke="#000099"/>
<path d="M170.579,329.172h 11.3386" fill="none" stroke="#000099"/>
<path d="M181.917,329.172h 11.3386" fill="none" stroke="#000099"/>
<g stroke="black" stroke-width="1" fill="none">
<line x1="180.917" y1="329.172" x2="181.917" y2="329.172"/>
</g>
<path d="M204.594,355.215v -53.1242" fill="none" stroke="#000099"/>
<path d="M204.594,302.091v -53.1242" fill="none" stroke="#000099"/>
<path d="M193.256,302.091h 11.3386" fill="none" stroke="#000099"/>
<path d="M204.594,302.091h 11.3386" fill="none" stroke="#000099"/>
<g stroke="black" stroke-width="1" fill="none">
<line x1="203.594" y1="302.091" x2="204.594" y2="302.091"/>
</g>
<path d="M227.272,370.559v -53.6164" fill="none" stroke="#000099"/>
<path d="M227.272,316.943v -53.6164" fill="none" stroke="#000099"/>
<path d="M215.933,316.943h 11.3386" fill="none" stroke="#000099"/>
<path d="M227.272,316.943h 11.3386" fill="none" stroke="#000099"/>
<g stroke="black" stroke-width="1" fill="none">
<line x1="226.272" y1="316.943" x2="227.272" y2="316.943"/>
</g>
<path d="M249.949,376.177v -57.4715" fill="none" stroke="#000099"/>
<path d="M249.949,318.706v -57.4715" fill="none" stroke="#000099"/>
<path d="M238.61,318.706h 11.3386" fill="none" stroke="#000099"/>
<path d="M249.949,318.706h 11.3386" fill="none" stroke="#000099"/>
<g stroke="black" stroke-width="1" fill="none">
<line x1="248.949" y1="318.706" x2="249.949" y2="318.706"/>
</g>
<path d="M272.626,410.977v -62.637" fill="none" stroke="#000099"/>
<path d="M272.626,348.34v -62.637" fill="none" stroke="#000099"/>
<path d="M261.287,348.34h 11.3386" fill="none" stroke="#000099"/>
<path d="M272.626,348.34h 11.3386" fill="none" stroke="#000099"/>
<g stroke="black" stroke-width="1" fill="none">
<line x1="271.626" y1="348.34" x2="272.626" y2="348.34"/>
</g>
<path d="M295.303,415.995v -70.9333" fill="none" stroke="#000099"/>
<path d="M295.303,345.062v -70.9333" fill="none" stroke="#000099"/>
<path d="M283.965,345.062h 11.3386" fill="none" stroke="#000099"/>
<path d="M295.303,345.062h 11.3386" fill="none" stroke="#000099"/>
<g stroke="black" stroke-width="1" fill="none">
<line x1="294.303" y1="345.062" x2="295.303" y2="345.062"/>
</g>
<path d="M317.98,406.017v -81.2556" fill="none" stroke="#000099"/>
<path d="M317.98,324.762v -81.2556" fill="none" stroke="#000099"/>
<path d="M306.642,324.762h 11.3386" fill="none" stroke="#000099"/>
<path d="M317.98,324.762h 11.3386" fill="none" stroke="#000099"/>
<g stroke="black" stroke-width="1" fill="none">
<line x1="316.98" y1="324.762" x2="317.98" y2="324.762"/>
</g>
<path d="M340.657,458.823v -89.7734" fill="none" stroke="#000099"/>
<path d="M340.657,369.05v -89.7734" fill="none" stroke="#000099"/>
<path d="M329.319,369.05h 11.3386" fill="none" stroke="#000099"/>
<path d="M340.657,369.05h 11.3386" fill="none" stroke="#000099"/>
<g stroke="black" stroke-width="1" fill="none">
<line x1="339.657" y1="369.05" x2="340.657" y2="369.05"/>
</g>
<path d="M363.335,448.678v -105.235" fill="none" stroke="#000099"/>
<path d="M363.335,343.443v -105.235" fill="none" stroke="#000099"/>
<path d="M351.996,343.443h 11.3386" fill="none" stroke="#000099"/>
<path d="M363.335,343.443h 11.3386" fill="none" stroke="#000099"/>
<g stroke="black" stroke-width="1" fill="none">
<line x1="362.335" y1="343.443" x2="363.335" y2="343.443"/>
</g>
<path d="M386.012,456.179v -118.193" fill="none" stroke="#000099"/>
<path d="M386.012,337.986v -118.193" fill="none" stroke="#000099"/>
<path d="M374.673,337.986h 11.3386" fill="none" stroke="#000099"/>
<path d="M386.012,337.986h 11.3386" fill="none" stroke="#000099"/>
<g stroke="black" stroke-width="1" fill="none">
<line x1="385.012" y1="337.986" x2="386.012" y2="337.986"/>
</g>
<path d="M408.689,477.372v -135.189" fill="none" stroke="#000099"/>
<path d="M408.689,342.182v -135.189" fill="none" stroke="#000099"/>
<path d="M397.35,342.182h 11.3386" fill="none" stroke="#000099"/>
<path d="M408.689,342.182h 11.3386" fill="none" stroke="#000099"/>
<g stroke="black" stroke-width="1" fill="none">
<line x1="407.689" y1="342.182" x2="408.689" y2="342.182"/>
</g>
<path d="M431.366,493.095v -151.572" fill="none" stroke="#000099"/>
<path d="M431.366,341.523v -151.572" fill="none" stroke="#000099"/>
<path d="M420.028,341.523h 11.3386" fill="none" stroke="#000099"/>
<path d="M431.366,341.523h 11.3386" fill="none" stroke="#000099"/>
<g stroke="black" stroke-width="1" fill="none">
<line x1="430.366" y1="341.523" x2="431.366" y2="341.523"/>
</g>
<path d="M454.043,572.458v -164.277" fill="none" stroke="#000099"/>
<path d="M454.043,408.18v -164.277" fill="none" stroke="#000099"/>
<path d="M442.705,408.18h 11.3386" fill="none" stroke="#000099"/>
<path d="M454.043,408.18h 11.3386" fill="none" stroke="#000099"/>
<g stroke="black" stroke-width="1" fill="none">
<line x1="453.043" y1="408.18" x2="454.043" y2="408.18"/>
</g>
<path d="M476.72,499.394v -203.183" fill="none" stroke="#000099"/>
<path d="M476.72,296.211v -203.183" fill="none" stroke="#000099"/>
<path d="M465.382,296.211h 11.3386" fill="none" stroke="#000099"/>
<path d="M476.72,296.211h 11.3386" fill="none" stroke="#000099"/>
<g stroke="black" stroke-width="1" fill="none">
<line x1="475.72" y1="296.211" x2="476.72" y2="296.211"/>
</g>
<path d="M499.398,581.847v -215.077" fill="none" stroke="#000099"/>
<path d="M499.398,366.77v -215.077" fill="none" stroke="#000099"/>
<path d="M488.059,366.77h 11.3386" fill="none" stroke="#000099"/>
<path d="M499.398,366.77h 11.3386" fill="none" stroke="#000099"/>
<g stroke="black" stroke-width="1" fill="none">
<line x1="498.398" y1="366.77" x2="499.398" y2="366.77"/>
</g>
<rect x="442.705" y="43.7875" width="113.386" height="107.785" fill="white"/>
<path d="M442.705,151.572h 113.386" fill="none" stroke="black"/>
<path d="M556.091,151.572v -107.785" fill="none" stroke="black"/>
<path d="M556.091,43.7875h -113.386" fill="none" stroke="black"/>
<path d="M442.705,43.7875v 107.785" fill="none" stroke="black"/>
<text x="445.07" y="58.4603" fill="black" font-size="4.58092" font-family="Helvetica">
ctr_old_mu_sel_tt_mutau_NOMINAL_Mt_lep_met_f_w_pu
</text>
<path d="M442.705,70.7336h 113.386" fill="none" stroke="black"/>
<text x="447.789" y="88.3702" fill="black" font-size="12.642" font-family="Helvetica">
Entries 
</text>
<text x="512.368" y="88.3702" fill="black" font-size="12.642" font-family="Helvetica">
 11518
</text>
<text x="447.789" y="115.561" fill="black" font-size="12.642" font-family="Helvetica">
Mean  
</text>
<text x="512.368" y="115.561" fill="black" font-size="12.642" font-family="Helvetica">
  124.6
</text>
<text x="447.789" y="142.752" fill="black" font-size="12.642" font-family="Helvetica">
Std Dev   
</text>
<text x="512.368" y="142.752" fill="black" font-size="12.642" font-family="Helvetica">
  72.09
</text>
<path d="M57.1929,606.288h 453.543" fill="none" stroke="black"/>
<path d="M57.1929,590.12v 16.1677" fill="none" stroke="black"/>
<path d="M75.3346,598.204v 8.08384" fill="none" stroke="black"/>
<path d="M93.4764,598.204v 8.08384" fill="none" stroke="black"/>
<path d="M111.618,598.204v 8.08384" fill="none" stroke="black"/>
<path d="M129.76,598.204v 8.08384" fill="none" stroke="black"/>
<path d="M147.902,590.12v 16.1677" fill="none" stroke="black"/>
<path d="M166.043,598.204v 8.08384" fill="none" stroke="black"/>
<path d="M184.185,598.204v 8.08384" fill="none" stroke="black"/>
<path d="M202.327,598.204v 8.08384" fill="none" stroke="black"/>
<path d="M220.469,598.204v 8.08384" fill="none" stroke="black"/>
<path d="M238.61,590.12v 16.1677" fill="none" stroke="black"/>
<path d="M256.752,598.204v 8.08384" fill="none" stroke="black"/>
<path d="M274.894,598.204v 8.08384" fill="none" stroke="black"/>
<path d="M293.035,598.204v 8.08384" fill="none" stroke="black"/>
<path d="M311.177,598.204v 8.08384" fill="none" stroke="black"/>
<path d="M329.319,590.12v 16.1677" fill="none" stroke="black"/>
<path d="M347.461,598.204v 8.08384" fill="none" stroke="black"/>
<path d="M365.602,598.204v 8.08384" fill="none" stroke="black"/>
<path d="M383.744,598.204v 8.08384" fill="none" stroke="black"/>
<path d="M401.886,598.204v 8.08384" fill="none" stroke="black"/>
<path d="M420.028,590.12v 16.1677" fill="none" stroke="black"/>
<path d="M438.169,598.204v 8.08384" fill="none" stroke="black"/>
<path d="M456.311,598.204v 8.08384" fill="none" stroke="black"/>
<path d="M474.453,598.204v 8.08384" fill="none" stroke="black"/>
<path d="M492.594,598.204v 8.08384" fill="none" stroke="black"/>
<path d="M510.736,590.12v 16.1677" fill="none" stroke="black"/>
<text x="52.1626" y="628.109" fill="black" font-size="18.7041" font-family="Helvetica">
0
</text>
<text x="137.134" y="628.109" fill="black" font-size="18.7041" font-family="Helvetica">
50
</text>
<text x="223.465" y="628.109" fill="black" font-size="18.7041" font-family="Helvetica">
100
</text>
<text x="313.875" y="628.109" fill="black" font-size="18.7041" font-family="Helvetica">
150
</text>
<text x="404.964" y="628.109" fill="black" font-size="18.7041" font-family="Helvetica">
200
</text>
<text x="495.373" y="628.109" fill="black" font-size="18.7041" font-family="Helvetica">
250
</text>
<path d="M57.1929,606.288v -538.923" fill="none" stroke="black"/>
<path d="M70.7992,595.316h -13.6063" fill="none" stroke="black"/>
<path d="M63.9961,582.527h -6.80315" fill="none" stroke="black"/>
<path d="M63.9961,569.738h -6.80315" fill="none" stroke="black"/>
<path d="M63.9961,556.949h -6.80315" fill="none" stroke="black"/>
<path d="M70.7992,544.159h -13.6063" fill="none" stroke="black"/>
<path d="M63.9961,531.37h -6.80315" fill="none" stroke="black"/>
<path d="M63.9961,518.581h -6.80315" fill="none" stroke="black"/>
<path d="M63.9961,505.792h -6.80315" fill="none" stroke="black"/>
<path d="M70.7992,493.003h -13.6063" fill="none" stroke="black"/>
<path d="M63.9961,480.213h -6.80315" fill="none" stroke="black"/>
<path d="M63.9961,467.424h -6.80315" fill="none" stroke="black"/>
<path d="M63.9961,454.635h -6.80315" fill="none" stroke="black"/>
<path d="M70.7992,441.846h -13.6063" fill="none" stroke="black"/>
<path d="M63.9961,429.057h -6.80315" fill="none" stroke="black"/>
<path d="M63.9961,416.267h -6.80315" fill="none" stroke="black"/>
<path d="M63.9961,403.478h -6.80315" fill="none" stroke="black"/>
<path d="M70.7992,390.689h -13.6063" fill="none" stroke="black"/>
<path d="M63.9961,377.9h -6.80315" fill="none" stroke="black"/>
<path d="M63.9961,365.111h -6.80315" fill="none" stroke="black"/>
<path d="M63.9961,352.321h -6.80315" fill="none" stroke="black"/>
<path d="M70.7992,339.532h -13.6063" fill="none" stroke="black"/>
<path d="M63.9961,326.743h -6.80315" fill="none" stroke="black"/>
<path d="M63.9961,313.954h -6.80315" fill="none" stroke="black"/>
<path d="M63.9961,301.164h -6.80315" fill="none" stroke="black"/>
<path d="M70.7992,288.375h -13.6063" fill="none" stroke="black"/>
<path d="M63.9961,275.586h -6.80315" fill="none" stroke="black"/>
<path d="M63.9961,262.797h -6.80315" fill="none" stroke="black"/>
<path d="M63.9961,250.008h -6.80315" fill="none" stroke="black"/>
<path d="M70.7992,237.218h -13.6063" fill="none" stroke="black"/>
<path d="M63.9961,224.429h -6.80315" fill="none" stroke="black"/>
<path d="M63.9961,211.64h -6.80315" fill="none" stroke="black"/>
<path d="M63.9961,198.851h -6.80315" fill="none" stroke="black"/>
<path d="M70.7992,186.062h -13.6063" fill="none" stroke="black"/>
<path d="M63.9961,173.272h -6.80315" fill="none" stroke="black"/>
<path d="M63.9961,160.483h -6.80315" fill="none" stroke="black"/>
<path d="M63.9961,147.694h -6.80315" fill="none" stroke="black"/>
<path d="M70.7992,134.905h -13.6063" fill="none" stroke="black"/>
<path d="M63.9961,122.116h -6.80315" fill="none" stroke="black"/>
<path d="M63.9961,109.326h -6.80315" fill="none" stroke="black"/>
<path d="M63.9961,96.5371h -6.80315" fill="none" stroke="black"/>
<path d="M70.7992,83.7479h -13.6063" fill="none" stroke="black"/>
<path d="M70.7992,595.316h -13.6063" fill="none" stroke="black"/>
<path d="M70.7992,83.7479h -13.6063" fill="none" stroke="black"/>
<path d="M63.9961,70.9587h -6.80315" fill="none" stroke="black"/>
<text x="18.8538" y="601.597" fill="black" font-size="18.7041" font-family="Helvetica">
0.92
</text>
<text x="18.8538" y="550.615" fill="black" font-size="18.7041" font-family="Helvetica">
0.94
</text>
<text x="18.8538" y="499.632" fill="black" font-size="18.7041" font-family="Helvetica">
0.96
</text>
<text x="18.8538" y="447.969" fill="black" font-size="18.7041" font-family="Helvetica">
0.98
</text>
<text x="47.4042" y="397.666" fill="black" font-size="18.7041" font-family="Helvetica">
1
</text>
<text x="18.8538" y="346.004" fill="black" font-size="18.7041" font-family="Helvetica">
1.02
</text>
<text x="18.8538" y="295.021" fill="black" font-size="18.7041" font-family="Helvetica">
1.04
</text>
<text x="18.8538" y="243.358" fill="black" font-size="18.7041" font-family="Helvetica">
1.06
</text>
<text x="18.8538" y="192.375" fill="black" font-size="18.7041" font-family="Helvetica">
1.08
</text>
<text x="32.4492" y="142.072" fill="black" font-size="18.7041" font-family="Helvetica">
1.1
</text>
<text x="18.8538" y="91.0893" fill="black" font-size="18.7041" font-family="Helvetica">
1.12
</text>
<rect x="442.705" y="43.7875" width="113.386" height="107.785" fill="white"/>
<path d="M442.705,151.572h 113.386" fill="none" stroke="black"/>
<path d="M556.091,151.572v -107.785" fill="none" stroke="black"/>
<path d="M556.091,43.7875h -113.386" fill="none" stroke="black"/>
<path d="M442.705,43.7875v 107.785" fill="none" stroke="black"/>
<text x="445.07" y="58.4603" fill="black" font-size="4.58092" font-family="Helvetica">
ctr_old_mu_sel_tt_mutau_NOMINAL_Mt_lep_met_f_w_pu
</text>
<path d="M442.705,70.7336h 113.386" fill="none" stroke="black"/>
<text x="447.789" y="88.3702" fill="black" font-size="12.642" font-family="Helvetica">
Entries 
</text>
<text x="512.368" y="88.3702" fill="black" font-size="12.642" font-family="Helvetica">
 11518
</text>
<text x="447.789" y="115.561" fill="black" font-size="12.642" font-family="Helvetica">
Mean  
</text>
<text x="512.368" y="115.561" fill="black" font-size="12.642" font-family="Helvetica">
  124.6
</text>
<text x="447.789" y="142.752" fill="black" font-size="12.642" font-family="Helvetica">
Std Dev   
</text>
<text x="512.368" y="142.752" fill="black" font-size="12.642" font-family="Helvetica">
  72.09
</text>
<path d="M68.5315,452.407v -103.311" fill="none" stroke="#ff0000"/>
<path d="M68.5315,349.096v -103.311" fill="none" stroke="#ff0000"/>
<path d="M57.1929,349.096h 11.3386" fill="none" stroke="#ff0000"/>
<path d="M68.5315,349.096h 11.3386" fill="none" stroke="#ff0000"/>
<g stroke="black" stroke-width="1" fill="none">
<line x1="67.5315" y1="349.096" x2="68.5315" y2="349.096"/>
</g>
<path d="M91.2087,413.682v -98.3748" fill="none" stroke="#ff0000"/>
<path d="M91.2087,315.307v -98.3748" fill="none" stroke="#ff0000"/>
<path d="M79.8701,315.307h 11.3386" fill="none" stroke="#ff0000"/>
<path d="M91.2087,315.307h 11.3386" fill="none" stroke="#ff0000"/>
<g stroke="black" stroke-width="1" fill="none">
<line x1="90.2087" y1="315.307" x2="91.2087" y2="315.307"/>
</g>
<path d="M113.886,438.995v -90.6476" fill="none" stroke="#ff0000"/>
<path d="M113.886,348.347v -90.6476" fill="none" stroke="#ff0000"/>
<path d="M102.547,348.347h 11.3386" fill="none" stroke="#ff0000"/>
<path d="M113.886,348.347h 11.3386" fill="none" stroke="#ff0000"/>
<g stroke="black" stroke-width="1" fill="none">
<line x1="112.886" y1="348.347" x2="113.886" y2="348.347"/>
</g>
<path d="M136.563,405.957v -79.2951" fill="none" stroke="#ff0000"/>
<path d="M136.563,326.662v -79.2951" fill="none" stroke="#ff0000"/>
<path d="M125.224,326.662h 11.3386" fill="none" stroke="#ff0000"/>
<path d="M136.563,326.662h 11.3386" fill="none" stroke="#ff0000"/>
<g stroke="black" stroke-width="1" fill="none">
<line x1="135.563" y1="326.662" x2="136.563" y2="326.662"/>
</g>
<path d="M159.24,399.747v -71.9596" fill="none" stroke="#ff0000"/>
<path d="M159.24,327.787v -71.9596" fill="none" stroke="#ff0000"/>
<path d="M147.902,327.787h 11.3386" fill="none" stroke="#ff0000"/>
<path d="M159.24,327.787h 11.3386" fill="none" stroke="#ff0000"/>
<g stroke="black" stroke-width="1" fill="none">
<line x1="158.24" y1="327.787" x2="159.24" y2="327.787"/>
</g>
<path d="M181.917,374.167v -68.089" fill="none" stroke="#ff0000"/>
<path d="M181.917,306.078v -68.089" fill="none" stroke="#ff0000"/>
<path d="M170.579,306.078h 11.3386" fill="none" stroke="#ff0000"/>
<path d="M181.917,306.078h 11.3386" fill="none" stroke="#ff0000"/>
<g stroke="black" stroke-width="1" fill="none">
<line x1="180.917" y1="306.078" x2="181.917" y2="306.078"/>
</g>
<path d="M204.594,376.4v -67.779" fill="none" stroke="#ff0000"/>
<path d="M204.594,308.621v -67.779" fill="none" stroke="#ff0000"/>
<path d="M193.256,308.621h 11.3386" fill="none" stroke="#ff0000"/>
<path d="M204.594,308.621h 11.3386" fill="none" stroke="#ff0000"/>
<g stroke="black" stroke-width="1" fill="none">
<line x1="203.594" y1="308.621" x2="204.594" y2="308.621"/>
</g>
<path d="M227.272,403.101v -75.4268" fill="none" stroke="#ff0000"/>
<path d="M227.272,327.674v -75.4268" fill="none" stroke="#ff0000"/>
<path d="M215.933,327.674h 11.3386" fill="none" stroke="#ff0000"/>
<path d="M227.272,327.674h 11.3386" fill="none" stroke="#ff0000"/>
<g stroke="black" stroke-width="1" fill="none">
<line x1="226.272" y1="327.674" x2="227.272" y2="327.674"/>
</g>
<path d="M249.949,462.197v -95.0704" fill="none" stroke="#ff0000"/>
<path d="M249.949,367.127v -95.0704" fill="none" stroke="#ff0000"/>
<path d="M238.61,367.127h 11.3386" fill="none" stroke="#ff0000"/>
<path d="M249.949,367.127h 11.3386" fill="none" stroke="#ff0000"/>
<g stroke="black" stroke-width="1" fill="none">
<line x1="248.949" y1="367.127" x2="249.949" y2="367.127"/>
</g>
<path d="M272.626,541.329v -128.651" fill="none" stroke="#ff0000"/>
<path d="M272.626,412.678v -128.651" fill="none" stroke="#ff0000"/>
<path d="M261.287,412.678h 11.3386" fill="none" stroke="#ff0000"/>
<path d="M272.626,412.678h 11.3386" fill="none" stroke="#ff0000"/>
<g stroke="black" stroke-width="1" fill="none">
<line x1="271.626" y1="412.678" x2="272.626" y2="412.678"/>
</g>
<path d="M295.303,606.288v -129.272" fill="none" stroke="#ff0000"/>
<path d="M295.303,477.016v -166.988" fill="none" stroke="#ff0000"/>
<path d="M283.965,477.016h 11.3386" fill="none" stroke="#ff0000"/>
<path d="M295.303,477.016h 11.3386" fill="none" stroke="#ff0000"/>
<g stroke="black" stroke-width="1" fill="none">
<line x1="294.303" y1="477.016" x2="295.303" y2="477.016"/>
</g>
<path d="M317.98,606.288v -59.2238" fill="none" stroke="#ff0000"/>
<path d="M317.98,547.064v -222.391" fill="none" stroke="#ff0000"/>
<path d="M306.642,547.064h 11.3386" fill="none" stroke="#ff0000"/>
<path d="M317.98,547.064h 11.3386" fill="none" stroke="#ff0000"/>
<g stroke="black" stroke-width="1" fill="none">
<line x1="316.98" y1="547.064" x2="317.98" y2="547.064"/>
</g>
<path d="M340.657,606.288v -137.712" fill="none" stroke="#ff0000"/>
<path d="M340.657,468.576v -314.05" fill="none" stroke="#ff0000"/>
<path d="M329.319,468.576h 11.3386" fill="none" stroke="#ff0000"/>
<path d="M340.657,468.576h 11.3386" fill="none" stroke="#ff0000"/>
<g stroke="black" stroke-width="1" fill="none">
<line x1="339.657" y1="468.576" x2="340.657" y2="468.576"/>
</g>
<path d="M363.335,606.288v -53.8814" fill="none" stroke="#ff0000"/>
<path d="M363.335,552.406v -423.144" fill="none" stroke="#ff0000"/>
<path d="M351.996,552.406h 11.3386" fill="none" stroke="#ff0000"/>
<path d="M363.335,552.406h 11.3386" fill="none" stroke="#ff0000"/>
<g stroke="black" stroke-width="1" fill="none">
<line x1="362.335" y1="552.406" x2="363.335" y2="552.406"/>
</g>
<path d="M386.012,606.288v -268.997" fill="none" stroke="#ff0000"/>
<path d="M386.012,337.291v -269.925" fill="none" stroke="#ff0000"/>
<path d="M374.673,337.291h 11.3386" fill="none" stroke="#ff0000"/>
<path d="M386.012,337.291h 11.3386" fill="none" stroke="#ff0000"/>
<g stroke="black" stroke-width="1" fill="none">
<line x1="385.012" y1="337.291" x2="386.012" y2="337.291"/>
</g>
<path d="M408.689,606.288v -316.83" fill="none" stroke="#ff0000"/>
<path d="M408.689,289.458v -222.092" fill="none" stroke="#ff0000"/>
<path d="M397.35,289.458h 11.3386" fill="none" stroke="#ff0000"/>
<path d="M408.689,289.458h 11.3386" fill="none" stroke="#ff0000"/>
<g stroke="black" stroke-width="1" fill="none">
<line x1="407.689" y1="289.458" x2="408.689" y2="289.458"/>
</g>
<path d="M431.366,606.288v -246.577" fill="none" stroke="#ff0000"/>
<path d="M431.366,359.711v -292.346" fill="none" stroke="#ff0000"/>
<path d="M420.028,359.711h 11.3386" fill="none" stroke="#ff0000"/>
<path d="M431.366,359.711h 11.3386" fill="none" stroke="#ff0000"/>
<g stroke="black" stroke-width="1" fill="none">
<line x1="430.366" y1="359.711" x2="431.366" y2="359.711"/>
</g>
<path d="M454.043,606.288v -11.061" fill="none" stroke="#ff0000"/>
<path d="M454.043,595.227v -527.862" fill="none" stroke="#ff0000"/>
<path d="M442.705,595.227h 11.3386" fill="none" stroke="#ff0000"/>
<path d="M454.043,595.227h 11.3386" fill="none" stroke="#ff0000"/>
<g stroke="black" stroke-width="1" fill="none">
<line x1="453.043" y1="595.227" x2="454.043" y2="595.227"/>
</g>
<path d="M499.398,606.288v -470.941" fill="none" stroke="#ff0000"/>
<path d="M499.398,135.346v -67.9811" fill="none" stroke="#ff0000"/>
<path d="M488.059,135.346h 11.3386" fill="none" stroke="#ff0000"/>
<path d="M499.398,135.346h 11.3386" fill="none" stroke="#ff0000"/>
<g stroke="black" stroke-width="1" fill="none">
<line x1="498.398" y1="135.346" x2="499.398" y2="135.346"/>
</g></svg>
