<?xml version="1.0" standalone="no"?>
<svg width="567.429" height="674.153" viewBox="0 0 567.429 674.153" xmlns="http://www.w3.org/2000/svg">
<title>
/exper-sw/cmst3/cmssw/users/olek/CMSSW_8_0_26_patch1/src/UserCode/NtuplerAnalyzer/studies/effect-pu-on-mt_difference-mutau-lj-red_presel.svg
</title>
<desc>
Creator: ROOT Version 6.06/01
CreationDate: Mon Apr  9 13:11:56 2018</desc>
<defs>
</defs>
<rect x="0.5" y="0" width="566.929" height="673.653" fill="white"/>
<rect x="57.1929" y="67.3653" width="453.543" height="538.923" fill="white"/>
<rect x="57.1929" y="67.3653" width="453.543" height="538.923" fill="none" stroke="black"/>
<rect x="57.1929" y="67.3653" width="453.543" height="538.923" fill="white"/>
<rect x="57.1929" y="67.3653" width="453.543" height="538.923" fill="none" stroke="black"/>
<path d="M68.5315,382.151v -83.7412" fill="none" stroke="#000099"/>
<path d="M68.5315,298.41v -83.7412" fill="none" stroke="#000099"/>
<path d="M57.1929,298.41h 11.3386" fill="none" stroke="#000099"/>
<path d="M68.5315,298.41h 11.3386" fill="none" stroke="#000099"/>
<g stroke="black" stroke-width="1" fill="none">
<line x1="67.5315" y1="298.41" x2="68.5315" y2="298.41"/>
</g>
<path d="M91.2087,395.93v -81.3325" fill="none" stroke="#000099"/>
<path d="M91.2087,314.597v -81.3325" fill="none" stroke="#000099"/>
<path d="M79.8701,314.597h 11.3386" fill="none" stroke="#000099"/>
<path d="M91.2087,314.597h 11.3386" fill="none" stroke="#000099"/>
<g stroke="black" stroke-width="1" fill="none">
<line x1="90.2087" y1="314.597" x2="91.2087" y2="314.597"/>
</g>
<path d="M113.886,390.034v -76.9849" fill="none" stroke="#000099"/>
<path d="M113.886,313.049v -76.9849" fill="none" stroke="#000099"/>
<path d="M102.547,313.049h 11.3386" fill="none" stroke="#000099"/>
<path d="M113.886,313.049h 11.3386" fill="none" stroke="#000099"/>
<g stroke="black" stroke-width="1" fill="none">
<line x1="112.886" y1="313.049" x2="113.886" y2="313.049"/>
</g>
<path d="M136.563,369.85v -71.1278" fill="none" stroke="#000099"/>
<path d="M136.563,298.722v -71.1278" fill="none" stroke="#000099"/>
<path d="M125.224,298.722h 11.3386" fill="none" stroke="#000099"/>
<path d="M136.563,298.722h 11.3386" fill="none" stroke="#000099"/>
<g stroke="black" stroke-width="1" fill="none">
<line x1="135.563" y1="298.722" x2="136.563" y2="298.722"/>
</g>
<path d="M159.24,358.69v -67.6188" fill="none" stroke="#000099"/>
<path d="M159.24,291.071v -67.6188" fill="none" stroke="#000099"/>
<path d="M147.902,291.071h 11.3386" fill="none" stroke="#000099"/>
<path d="M159.24,291.071h 11.3386" fill="none" stroke="#000099"/>
<g stroke="black" stroke-width="1" fill="none">
<line x1="158.24" y1="291.071" x2="159.24" y2="291.071"/>
</g>
<path d="M181.917,365.516v -63.8608" fill="none" stroke="#000099"/>
<path d="M181.917,301.655v -63.8608" fill="none" stroke="#000099"/>
<path d="M170.579,301.655h 11.3386" fill="none" stroke="#000099"/>
<path d="M181.917,301.655h 11.3386" fill="none" stroke="#000099"/>
<g stroke="black" stroke-width="1" fill="none">
<line x1="180.917" y1="301.655" x2="181.917" y2="301.655"/>
</g>
<path d="M204.594,344.78v -62.5119" fill="none" stroke="#000099"/>
<path d="M204.594,282.269v -62.5119" fill="none" stroke="#000099"/>
<path d="M193.256,282.269h 11.3386" fill="none" stroke="#000099"/>
<path d="M204.594,282.269h 11.3386" fill="none" stroke="#000099"/>
<g stroke="black" stroke-width="1" fill="none">
<line x1="203.594" y1="282.269" x2="204.594" y2="282.269"/>
</g>
<path d="M227.272,347.909v -63.0889" fill="none" stroke="#000099"/>
<path d="M227.272,284.82v -63.0889" fill="none" stroke="#000099"/>
<path d="M215.933,284.82h 11.3386" fill="none" stroke="#000099"/>
<path d="M227.272,284.82h 11.3386" fill="none" stroke="#000099"/>
<g stroke="black" stroke-width="1" fill="none">
<line x1="226.272" y1="284.82" x2="227.272" y2="284.82"/>
</g>
<path d="M249.949,365.687v -66.4926" fill="none" stroke="#000099"/>
<path d="M249.949,299.194v -66.4926" fill="none" stroke="#000099"/>
<path d="M238.61,299.194h 11.3386" fill="none" stroke="#000099"/>
<path d="M249.949,299.194h 11.3386" fill="none" stroke="#000099"/>
<g stroke="black" stroke-width="1" fill="none">
<line x1="248.949" y1="299.194" x2="249.949" y2="299.194"/>
</g>
<path d="M272.626,396.022v -72.0569" fill="none" stroke="#000099"/>
<path d="M272.626,323.965v -72.0569" fill="none" stroke="#000099"/>
<path d="M261.287,323.965h 11.3386" fill="none" stroke="#000099"/>
<path d="M272.626,323.965h 11.3386" fill="none" stroke="#000099"/>
<g stroke="black" stroke-width="1" fill="none">
<line x1="271.626" y1="323.965" x2="272.626" y2="323.965"/>
</g>
<path d="M295.303,418.246v -80.4918" fill="none" stroke="#000099"/>
<path d="M295.303,337.754v -80.4918" fill="none" stroke="#000099"/>
<path d="M283.965,337.754h 11.3386" fill="none" stroke="#000099"/>
<path d="M295.303,337.754h 11.3386" fill="none" stroke="#000099"/>
<g stroke="black" stroke-width="1" fill="none">
<line x1="294.303" y1="337.754" x2="295.303" y2="337.754"/>
</g>
<path d="M317.98,430.301v -90.81" fill="none" stroke="#000099"/>
<path d="M317.98,339.491v -90.81" fill="none" stroke="#000099"/>
<path d="M306.642,339.491h 11.3386" fill="none" stroke="#000099"/>
<path d="M317.98,339.491h 11.3386" fill="none" stroke="#000099"/>
<g stroke="black" stroke-width="1" fill="none">
<line x1="316.98" y1="339.491" x2="317.98" y2="339.491"/>
</g>
<path d="M340.657,470.875v -102.21" fill="none" stroke="#000099"/>
<path d="M340.657,368.665v -102.21" fill="none" stroke="#000099"/>
<path d="M329.319,368.665h 11.3386" fill="none" stroke="#000099"/>
<path d="M340.657,368.665h 11.3386" fill="none" stroke="#000099"/>
<g stroke="black" stroke-width="1" fill="none">
<line x1="339.657" y1="368.665" x2="340.657" y2="368.665"/>
</g>
<path d="M363.335,497.072v -117.491" fill="none" stroke="#000099"/>
<path d="M363.335,379.581v -117.491" fill="none" stroke="#000099"/>
<path d="M351.996,379.581h 11.3386" fill="none" stroke="#000099"/>
<path d="M363.335,379.581h 11.3386" fill="none" stroke="#000099"/>
<g stroke="black" stroke-width="1" fill="none">
<line x1="362.335" y1="379.581" x2="363.335" y2="379.581"/>
</g>
<path d="M386.012,480.134v -132.531" fill="none" stroke="#000099"/>
<path d="M386.012,347.602v -132.531" fill="none" stroke="#000099"/>
<path d="M374.673,347.602h 11.3386" fill="none" stroke="#000099"/>
<path d="M386.012,347.602h 11.3386" fill="none" stroke="#000099"/>
<g stroke="black" stroke-width="1" fill="none">
<line x1="385.012" y1="347.602" x2="386.012" y2="347.602"/>
</g>
<path d="M408.689,506.224v -149.039" fill="none" stroke="#000099"/>
<path d="M408.689,357.185v -149.039" fill="none" stroke="#000099"/>
<path d="M397.35,357.185h 11.3386" fill="none" stroke="#000099"/>
<path d="M408.689,357.185h 11.3386" fill="none" stroke="#000099"/>
<g stroke="black" stroke-width="1" fill="none">
<line x1="407.689" y1="357.185" x2="408.689" y2="357.185"/>
</g>
<path d="M431.366,496.274v -171.877" fill="none" stroke="#000099"/>
<path d="M431.366,324.397v -171.877" fill="none" stroke="#000099"/>
<path d="M420.028,324.397h 11.3386" fill="none" stroke="#000099"/>
<path d="M431.366,324.397h 11.3386" fill="none" stroke="#000099"/>
<g stroke="black" stroke-width="1" fill="none">
<line x1="430.366" y1="324.397" x2="431.366" y2="324.397"/>
</g>
<path d="M454.043,571.985v -196.687" fill="none" stroke="#000099"/>
<path d="M454.043,375.299v -196.687" fill="none" stroke="#000099"/>
<path d="M442.705,375.299h 11.3386" fill="none" stroke="#000099"/>
<path d="M454.043,375.299h 11.3386" fill="none" stroke="#000099"/>
<g stroke="black" stroke-width="1" fill="none">
<line x1="453.043" y1="375.299" x2="454.043" y2="375.299"/>
</g>
<path d="M476.72,567.845v -223.706" fill="none" stroke="#000099"/>
<path d="M476.72,344.139v -223.706" fill="none" stroke="#000099"/>
<path d="M465.382,344.139h 11.3386" fill="none" stroke="#000099"/>
<path d="M476.72,344.139h 11.3386" fill="none" stroke="#000099"/>
<g stroke="black" stroke-width="1" fill="none">
<line x1="475.72" y1="344.139" x2="476.72" y2="344.139"/>
</g>
<path d="M499.398,581.847v -244.409" fill="none" stroke="#000099"/>
<path d="M499.398,337.438v -244.409" fill="none" stroke="#000099"/>
<path d="M488.059,337.438h 11.3386" fill="none" stroke="#000099"/>
<path d="M499.398,337.438h 11.3386" fill="none" stroke="#000099"/>
<g stroke="black" stroke-width="1" fill="none">
<line x1="498.398" y1="337.438" x2="499.398" y2="337.438"/>
</g>
<rect x="442.705" y="43.7875" width="113.386" height="107.785" fill="white"/>
<path d="M442.705,151.572h 113.386" fill="none" stroke="black"/>
<path d="M556.091,151.572v -107.785" fill="none" stroke="black"/>
<path d="M556.091,43.7875h -113.386" fill="none" stroke="black"/>
<path d="M442.705,43.7875v 107.785" fill="none" stroke="black"/>
<text x="442.351" y="58.4603" fill="black" font-size="4.37376" font-family="Helvetica">
ctr_old_mu_presel_tt_mutau_NOMINAL_Mt_lep_met_f_w_pu
</text>
<path d="M442.705,70.7336h 113.386" fill="none" stroke="black"/>
<text x="447.789" y="88.3702" fill="black" font-size="12.642" font-family="Helvetica">
Entries 
</text>
<text x="512.368" y="88.3702" fill="black" font-size="12.642" font-family="Helvetica">
 42403
</text>
<text x="447.789" y="115.561" fill="black" font-size="12.642" font-family="Helvetica">
Mean  
</text>
<text x="512.368" y="115.561" fill="black" font-size="12.642" font-family="Helvetica">
  124.7
</text>
<text x="447.789" y="142.752" fill="black" font-size="12.642" font-family="Helvetica">
Std Dev   
</text>
<text x="512.368" y="142.752" fill="black" font-size="12.642" font-family="Helvetica">
  72.08
</text>
<path d="M57.1929,606.288h 453.543" fill="none" stroke="black"/>
<path d="M57.1929,590.12v 16.1677" fill="none" stroke="black"/>
<path d="M75.3346,598.204v 8.08384" fill="none" stroke="black"/>
<path d="M93.4764,598.204v 8.08384" fill="none" stroke="black"/>
<path d="M111.618,598.204v 8.08384" fill="none" stroke="black"/>
<path d="M129.76,598.204v 8.08384" fill="none" stroke="black"/>
<path d="M147.902,590.12v 16.1677" fill="none" stroke="black"/>
<path d="M166.043,598.204v 8.08384" fill="none" stroke="black"/>
<path d="M184.185,598.204v 8.08384" fill="none" stroke="black"/>
<path d="M202.327,598.204v 8.08384" fill="none" stroke="black"/>
<path d="M220.469,598.204v 8.08384" fill="none" stroke="black"/>
<path d="M238.61,590.12v 16.1677" fill="none" stroke="black"/>
<path d="M256.752,598.204v 8.08384" fill="none" stroke="black"/>
<path d="M274.894,598.204v 8.08384" fill="none" stroke="black"/>
<path d="M293.035,598.204v 8.08384" fill="none" stroke="black"/>
<path d="M311.177,598.204v 8.08384" fill="none" stroke="black"/>
<path d="M329.319,590.12v 16.1677" fill="none" stroke="black"/>
<path d="M347.461,598.204v 8.08384" fill="none" stroke="black"/>
<path d="M365.602,598.204v 8.08384" fill="none" stroke="black"/>
<path d="M383.744,598.204v 8.08384" fill="none" stroke="black"/>
<path d="M401.886,598.204v 8.08384" fill="none" stroke="black"/>
<path d="M420.028,590.12v 16.1677" fill="none" stroke="black"/>
<path d="M438.169,598.204v 8.08384" fill="none" stroke="black"/>
<path d="M456.311,598.204v 8.08384" fill="none" stroke="black"/>
<path d="M474.453,598.204v 8.08384" fill="none" stroke="black"/>
<path d="M492.594,598.204v 8.08384" fill="none" stroke="black"/>
<path d="M510.736,590.12v 16.1677" fill="none" stroke="black"/>
<text x="52.1626" y="628.109" fill="black" font-size="18.7041" font-family="Helvetica">
0
</text>
<text x="137.134" y="628.109" fill="black" font-size="18.7041" font-family="Helvetica">
50
</text>
<text x="223.465" y="628.109" fill="black" font-size="18.7041" font-family="Helvetica">
100
</text>
<text x="313.875" y="628.109" fill="black" font-size="18.7041" font-family="Helvetica">
150
</text>
<text x="404.964" y="628.109" fill="black" font-size="18.7041" font-family="Helvetica">
200
</text>
<text x="495.373" y="628.109" fill="black" font-size="18.7041" font-family="Helvetica">
250
</text>
<path d="M57.1929,606.288v -538.923" fill="none" stroke="black"/>
<path d="M70.7992,591.324h -13.6063" fill="none" stroke="black"/>
<path d="M63.9961,580.099h -6.80315" fill="none" stroke="black"/>
<path d="M63.9961,568.873h -6.80315" fill="none" stroke="black"/>
<path d="M63.9961,557.648h -6.80315" fill="none" stroke="black"/>
<path d="M63.9961,546.423h -6.80315" fill="none" stroke="black"/>
<path d="M70.7992,535.197h -13.6063" fill="none" stroke="black"/>
<path d="M63.9961,523.972h -6.80315" fill="none" stroke="black"/>
<path d="M63.9961,512.747h -6.80315" fill="none" stroke="black"/>
<path d="M63.9961,501.521h -6.80315" fill="none" stroke="black"/>
<path d="M63.9961,490.296h -6.80315" fill="none" stroke="black"/>
<path d="M70.7992,479.071h -13.6063" fill="none" stroke="black"/>
<path d="M63.9961,467.845h -6.80315" fill="none" stroke="black"/>
<path d="M63.9961,456.62h -6.80315" fill="none" stroke="black"/>
<path d="M63.9961,445.395h -6.80315" fill="none" stroke="black"/>
<path d="M63.9961,434.169h -6.80315" fill="none" stroke="black"/>
<path d="M70.7992,422.944h -13.6063" fill="none" stroke="black"/>
<path d="M63.9961,411.719h -6.80315" fill="none" stroke="black"/>
<path d="M63.9961,400.493h -6.80315" fill="none" stroke="black"/>
<path d="M63.9961,389.268h -6.80315" fill="none" stroke="black"/>
<path d="M63.9961,378.043h -6.80315" fill="none" stroke="black"/>
<path d="M70.7992,366.818h -13.6063" fill="none" stroke="black"/>
<path d="M63.9961,355.592h -6.80315" fill="none" stroke="black"/>
<path d="M63.9961,344.367h -6.80315" fill="none" stroke="black"/>
<path d="M63.9961,333.142h -6.80315" fill="none" stroke="black"/>
<path d="M63.9961,321.916h -6.80315" fill="none" stroke="black"/>
<path d="M70.7992,310.691h -13.6063" fill="none" stroke="black"/>
<path d="M63.9961,299.466h -6.80315" fill="none" stroke="black"/>
<path d="M63.9961,288.24h -6.80315" fill="none" stroke="black"/>
<path d="M63.9961,277.015h -6.80315" fill="none" stroke="black"/>
<path d="M63.9961,265.79h -6.80315" fill="none" stroke="black"/>
<path d="M70.7992,254.564h -13.6063" fill="none" stroke="black"/>
<path d="M63.9961,243.339h -6.80315" fill="none" stroke="black"/>
<path d="M63.9961,232.114h -6.80315" fill="none" stroke="black"/>
<path d="M63.9961,220.888h -6.80315" fill="none" stroke="black"/>
<path d="M63.9961,209.663h -6.80315" fill="none" stroke="black"/>
<path d="M70.7992,198.438h -13.6063" fill="none" stroke="black"/>
<path d="M63.9961,187.212h -6.80315" fill="none" stroke="black"/>
<path d="M63.9961,175.987h -6.80315" fill="none" stroke="black"/>
<path d="M63.9961,164.762h -6.80315" fill="none" stroke="black"/>
<path d="M63.9961,153.536h -6.80315" fill="none" stroke="black"/>
<path d="M70.7992,142.311h -13.6063" fill="none" stroke="black"/>
<path d="M63.9961,131.086h -6.80315" fill="none" stroke="black"/>
<path d="M63.9961,119.86h -6.80315" fill="none" stroke="black"/>
<path d="M63.9961,108.635h -6.80315" fill="none" stroke="black"/>
<path d="M63.9961,97.4096h -6.80315" fill="none" stroke="black"/>
<path d="M70.7992,86.1843h -13.6063" fill="none" stroke="black"/>
<path d="M70.7992,591.324h -13.6063" fill="none" stroke="black"/>
<path d="M63.9961,602.549h -6.80315" fill="none" stroke="black"/>
<path d="M70.7992,86.1843h -13.6063" fill="none" stroke="black"/>
<path d="M63.9961,74.959h -6.80315" fill="none" stroke="black"/>
<text x="18.8538" y="597.519" fill="black" font-size="18.7041" font-family="Helvetica">
0.97
</text>
<text x="18.8538" y="541.778" fill="black" font-size="18.7041" font-family="Helvetica">
0.98
</text>
<text x="18.8538" y="485.357" fill="black" font-size="18.7041" font-family="Helvetica">
0.99
</text>
<text x="47.4042" y="430.295" fill="black" font-size="18.7041" font-family="Helvetica">
1
</text>
<text x="22.2527" y="373.194" fill="black" font-size="18.7041" font-family="Helvetica">
1.01
</text>
<text x="18.8538" y="317.453" fill="black" font-size="18.7041" font-family="Helvetica">
1.02
</text>
<text x="18.8538" y="261.032" fill="black" font-size="18.7041" font-family="Helvetica">
1.03
</text>
<text x="18.8538" y="204.611" fill="black" font-size="18.7041" font-family="Helvetica">
1.04
</text>
<text x="18.8538" y="148.87" fill="black" font-size="18.7041" font-family="Helvetica">
1.05
</text>
<text x="18.8538" y="92.4489" fill="black" font-size="18.7041" font-family="Helvetica">
1.06
</text>
<rect x="442.705" y="43.7875" width="113.386" height="107.785" fill="white"/>
<path d="M442.705,151.572h 113.386" fill="none" stroke="black"/>
<path d="M556.091,151.572v -107.785" fill="none" stroke="black"/>
<path d="M556.091,43.7875h -113.386" fill="none" stroke="black"/>
<path d="M442.705,43.7875v 107.785" fill="none" stroke="black"/>
<text x="442.351" y="58.4603" fill="black" font-size="4.37376" font-family="Helvetica">
ctr_old_mu_presel_tt_mutau_NOMINAL_Mt_lep_met_f_w_pu
</text>
<path d="M442.705,70.7336h 113.386" fill="none" stroke="black"/>
<text x="447.789" y="88.3702" fill="black" font-size="12.642" font-family="Helvetica">
Entries 
</text>
<text x="512.368" y="88.3702" fill="black" font-size="12.642" font-family="Helvetica">
 42403
</text>
<text x="447.789" y="115.561" fill="black" font-size="12.642" font-family="Helvetica">
Mean  
</text>
<text x="512.368" y="115.561" fill="black" font-size="12.642" font-family="Helvetica">
  124.7
</text>
<text x="447.789" y="142.752" fill="black" font-size="12.642" font-family="Helvetica">
Std Dev   
</text>
<text x="512.368" y="142.752" fill="black" font-size="12.642" font-family="Helvetica">
  72.08
</text>
<path d="M68.5315,353.718v -24.0028" fill="none" stroke="#ff0000"/>
<path d="M68.5315,329.716v -24.0028" fill="none" stroke="#ff0000"/>
<path d="M57.1929,329.716h 11.3386" fill="none" stroke="#ff0000"/>
<path d="M68.5315,329.716h 11.3386" fill="none" stroke="#ff0000"/>
<g stroke="black" stroke-width="1" fill="none">
<line x1="67.5315" y1="329.716" x2="68.5315" y2="329.716"/>
</g>
<path d="M91.2087,350.131v -23.0331" fill="none" stroke="#ff0000"/>
<path d="M91.2087,327.098v -23.0331" fill="none" stroke="#ff0000"/>
<path d="M79.8701,327.098h 11.3386" fill="none" stroke="#ff0000"/>
<path d="M91.2087,327.098h 11.3386" fill="none" stroke="#ff0000"/>
<g stroke="black" stroke-width="1" fill="none">
<line x1="90.2087" y1="327.098" x2="91.2087" y2="327.098"/>
</g>
<path d="M113.886,331.112v -21.424" fill="none" stroke="#ff0000"/>
<path d="M113.886,309.689v -21.424" fill="none" stroke="#ff0000"/>
<path d="M102.547,309.689h 11.3386" fill="none" stroke="#ff0000"/>
<path d="M113.886,309.689h 11.3386" fill="none" stroke="#ff0000"/>
<g stroke="black" stroke-width="1" fill="none">
<line x1="112.886" y1="309.689" x2="113.886" y2="309.689"/>
</g>
<path d="M136.563,313.889v -19.449" fill="none" stroke="#ff0000"/>
<path d="M136.563,294.44v -19.449" fill="none" stroke="#ff0000"/>
<path d="M125.224,294.44h 11.3386" fill="none" stroke="#ff0000"/>
<path d="M136.563,294.44h 11.3386" fill="none" stroke="#ff0000"/>
<g stroke="black" stroke-width="1" fill="none">
<line x1="135.563" y1="294.44" x2="136.563" y2="294.44"/>
</g>
<path d="M159.24,291.915v -17.6631" fill="none" stroke="#ff0000"/>
<path d="M159.24,274.252v -17.6631" fill="none" stroke="#ff0000"/>
<path d="M147.902,274.252h 11.3386" fill="none" stroke="#ff0000"/>
<path d="M159.24,274.252h 11.3386" fill="none" stroke="#ff0000"/>
<g stroke="black" stroke-width="1" fill="none">
<line x1="158.24" y1="274.252" x2="159.24" y2="274.252"/>
</g>
<path d="M181.917,277.674v -16.5107" fill="none" stroke="#ff0000"/>
<path d="M181.917,261.163v -16.5107" fill="none" stroke="#ff0000"/>
<path d="M170.579,261.163h 11.3386" fill="none" stroke="#ff0000"/>
<path d="M181.917,261.163h 11.3386" fill="none" stroke="#ff0000"/>
<g stroke="black" stroke-width="1" fill="none">
<line x1="180.917" y1="261.163" x2="181.917" y2="261.163"/>
</g>
<path d="M204.594,281.281v -16.6466" fill="none" stroke="#ff0000"/>
<path d="M204.594,264.634v -16.6466" fill="none" stroke="#ff0000"/>
<path d="M193.256,264.634h 11.3386" fill="none" stroke="#ff0000"/>
<path d="M204.594,264.634h 11.3386" fill="none" stroke="#ff0000"/>
<g stroke="black" stroke-width="1" fill="none">
<line x1="203.594" y1="264.634" x2="204.594" y2="264.634"/>
</g>
<path d="M227.272,323.887v -18.7231" fill="none" stroke="#ff0000"/>
<path d="M227.272,305.163v -18.7231" fill="none" stroke="#ff0000"/>
<path d="M215.933,305.163h 11.3386" fill="none" stroke="#ff0000"/>
<path d="M227.272,305.163h 11.3386" fill="none" stroke="#ff0000"/>
<g stroke="black" stroke-width="1" fill="none">
<line x1="226.272" y1="305.163" x2="227.272" y2="305.163"/>
</g>
<path d="M249.949,400.301v -23.3032" fill="none" stroke="#ff0000"/>
<path d="M249.949,376.997v -23.3032" fill="none" stroke="#ff0000"/>
<path d="M238.61,376.997h 11.3386" fill="none" stroke="#ff0000"/>
<path d="M249.949,376.997h 11.3386" fill="none" stroke="#ff0000"/>
<g stroke="black" stroke-width="1" fill="none">
<line x1="248.949" y1="376.997" x2="249.949" y2="376.997"/>
</g>
<path d="M272.626,489.699v -30.7263" fill="none" stroke="#ff0000"/>
<path d="M272.626,458.973v -30.7263" fill="none" stroke="#ff0000"/>
<path d="M261.287,458.973h 11.3386" fill="none" stroke="#ff0000"/>
<path d="M272.626,458.973h 11.3386" fill="none" stroke="#ff0000"/>
<g stroke="black" stroke-width="1" fill="none">
<line x1="271.626" y1="458.973" x2="272.626" y2="458.973"/>
</g>
<path d="M295.303,568.287v -41.228" fill="none" stroke="#ff0000"/>
<path d="M295.303,527.059v -41.228" fill="none" stroke="#ff0000"/>
<path d="M283.965,527.059h 11.3386" fill="none" stroke="#ff0000"/>
<path d="M295.303,527.059h 11.3386" fill="none" stroke="#ff0000"/>
<g stroke="black" stroke-width="1" fill="none">
<line x1="294.303" y1="527.059" x2="295.303" y2="527.059"/>
</g>
<path d="M317.98,606.288v -12.5978" fill="none" stroke="#ff0000"/>
<path d="M317.98,593.69v -55.2059" fill="none" stroke="#ff0000"/>
<path d="M306.642,593.69h 11.3386" fill="none" stroke="#ff0000"/>
<path d="M317.98,593.69h 11.3386" fill="none" stroke="#ff0000"/>
<g stroke="black" stroke-width="1" fill="none">
<line x1="316.98" y1="593.69" x2="317.98" y2="593.69"/>
</g>
<path d="M499.398,606.288v -99.321" fill="none" stroke="#ff0000"/>
<path d="M499.398,506.967v -432.764" fill="none" stroke="#ff0000"/>
<path d="M488.059,506.967h 11.3386" fill="none" stroke="#ff0000"/>
<path d="M499.398,506.967h 11.3386" fill="none" stroke="#ff0000"/>
<g stroke="black" stroke-width="1" fill="none">
<line x1="498.398" y1="506.967" x2="499.398" y2="506.967"/>
</g></svg>
